<svg xmlns="http://www.w3.org/2000/svg" xmlns:xlink="http://www.w3.org/1999/xlink" version="1.1" x="0px" y="0px" viewBox="0 0 70.551 75.56125" enable-background="new 0 0 70.551 60.449" xml:space="preserve"><circle cx="16.823" cy="5.43" r="4.43"/><path d="M19.681,27.777L19.681,27.777l5.693,4.323c0.387,0.293,0.845,0.438,1.294,0.438c0.646,0,1.285-0.291,1.708-0.85  c0.714-0.939,0.531-2.284-0.41-3l-8.285-6.292V27.777z"/><path d="M12.413,36.868c-1.45-1.002-2.465-1.705-2.997-2.521L1.189,55.744c-0.544,1.376,0.128,2.932,1.503,3.477  c0.324,0.129,0.656,0.188,0.985,0.188c1.066,0,2.074-0.644,2.49-1.689l7.648-19.928l-0.192-0.125L12.413,36.868z"/><path d="M28.635,41.294c-0.146-0.599-0.541-1.164-1.036-1.524l-8.987-7V15.186c0.049-2.127-0.668-3.922-3.475-4.303  c-0.133-0.018-0.267-0.027-0.4-0.027c-1.425,0-2.994,0.96-4.038,2.079l-7.471,7.388c-0.396,0.396-0.635,0.961-0.635,1.521v8.816  c0,1.185,0.958,2.145,2.141,2.145s2.142-0.96,2.142-2.145v-7.92l3.169-3.135l0.05,13.659c0.195,0.867,1.334,1.621,3.159,2.883  l1.859,1.248l8.562,6.147l3.462,13.836c0.305,1.217,1.396,2.028,2.596,2.028c0.217,0,0.436-0.026,0.65-0.081  c1.435-0.357,2.307-1.812,1.949-3.247L28.635,41.294z"/><path d="M60.112,34.699c-1.434,0.341-2.788,0.663-4.424,0.412c-0.594-0.089-1.178-0.252-1.797-0.422  c-0.919-0.256-1.87-0.52-2.919-0.56c-1.088-0.042-2.155,0.048-3.363,0.285c-0.633,0.124-1.24,0.312-1.83,0.49  c-0.863,0.263-1.678,0.511-2.493,0.553c-1.032,0.054-2.012-0.241-3.048-0.553c-0.374-0.112-0.752-0.226-1.139-0.326  c-2.461-0.638-4.734-0.503-6.617,0.379v2.005c0.152-0.008,0.304-0.039,0.444-0.119c1.543-0.879,3.453-1.033,5.672-0.459  c0.361,0.094,0.715,0.199,1.066,0.304c1.057,0.318,2.146,0.645,3.382,0.645c0.111,0,0.224-0.004,0.337-0.008  c1.064-0.052,2.038-0.35,2.98-0.636c0.564-0.173,1.1-0.335,1.632-0.441c1.05-0.207,1.972-0.287,2.897-0.25  c0.817,0.033,1.618,0.256,2.465,0.49c0.646,0.179,1.315,0.365,2.027,0.473c2.021,0.309,3.634-0.073,5.19-0.444  c1.591-0.379,3.093-0.735,4.957-0.263c0.478,0.121,1.453,0.516,2.097,0.773l0.203,0.084v-2.027c-0.635-0.253-1.34-0.521-1.808-0.639  C63.684,33.85,61.868,34.282,60.112,34.699z"/><path d="M40.239,29.295c0.624,0.188,1.229,0.369,1.835,0.472c0.4,0.069,0.803,0.104,1.213,0.083  c0.229-0.013,0.459-0.043,0.689-0.083c0.589-0.102,1.184-0.28,1.804-0.471c0.589-0.179,1.196-0.365,1.829-0.49  c1.208-0.237,2.277-0.328,3.363-0.286c1.049,0.04,2.001,0.303,2.919,0.559c0.619,0.171,1.203,0.333,1.797,0.424  c1.636,0.25,2.99-0.072,4.424-0.413c1.171-0.279,2.37-0.562,3.732-0.544c-0.33-3.558-5.84-6.419-12.755-6.657V10.62  c0-0.204,0.014-0.405,0.031-0.604c2.448,0.183,3.867,1.627,5.421,4.01c0.179,0.274,0.478,0.424,0.782,0.424  c0.176,0,0.353-0.049,0.51-0.152c0.433-0.282,0.554-0.86,0.272-1.292c-1.145-1.755-2.533-3.595-4.817-4.425  c2.546-0.982,5.547-0.341,7.441,1.833c0.185,0.211,0.443,0.32,0.705,0.32c0.217,0,0.436-0.076,0.613-0.23  c0.389-0.339,0.429-0.929,0.09-1.317c-2.541-2.916-6.64-3.684-9.992-2.155c1.188-1.854,3.262-3.088,5.622-3.088  c0.516,0,0.934-0.418,0.934-0.934c0-0.516-0.418-0.934-0.934-0.934c-2.66,0-5.04,1.222-6.608,3.134V1.934  C51.16,1.418,50.742,1,50.227,1s-0.934,0.418-0.934,0.934v3.45c-1.564-2.011-4.006-3.309-6.745-3.309  c-0.516,0-0.935,0.418-0.935,0.934c0,0.516,0.419,0.934,0.935,0.934c2.216,0,4.177,1.089,5.392,2.755  c-3.176-1.059-6.821-0.19-9.152,2.487c-0.34,0.389-0.299,0.979,0.09,1.317c0.178,0.154,0.396,0.23,0.613,0.23  c0.261,0,0.52-0.109,0.705-0.32c1.837-2.109,4.718-2.779,7.214-1.92c-2.442,0.78-3.896,2.69-5.083,4.511  c-0.282,0.433-0.16,1.011,0.272,1.292c0.157,0.103,0.335,0.152,0.509,0.152c0.305,0,0.604-0.149,0.783-0.424  c1.527-2.343,2.928-3.777,5.304-3.998c0.017,0.195,0.03,0.392,0.03,0.592v11.269c-6.945,0.241-12.469,3.126-12.756,6.705  c0.847,0.024,1.725,0.143,2.633,0.378C39.486,29.071,39.865,29.182,40.239,29.295z"/><path d="M66.023,30.704c-0.561-0.143-1.091-0.226-1.596-0.264c-0.197-0.016-0.393-0.023-0.583-0.026  c-1.361-0.018-2.561,0.266-3.732,0.545c-1.434,0.341-2.788,0.662-4.424,0.412c-0.593-0.09-1.178-0.253-1.796-0.424  c-0.92-0.256-1.871-0.519-2.918-0.559c-1.088-0.043-2.156,0.049-3.365,0.285c-0.633,0.125-1.24,0.312-1.828,0.49  c-0.621,0.189-1.216,0.367-1.804,0.471c-0.231,0.039-0.46,0.07-0.69,0.083c-0.41,0.021-0.812-0.015-1.211-0.083  c-0.608-0.103-1.213-0.283-1.837-0.472c-0.374-0.112-0.752-0.226-1.138-0.325c-0.908-0.234-1.787-0.353-2.633-0.378  c-0.111-0.003-0.225-0.01-0.336-0.01c-1.321,0.001-2.552,0.254-3.649,0.768v2.005c0.151-0.008,0.304-0.04,0.444-0.119  c1.111-0.633,2.414-0.884,3.882-0.764c0.572,0.047,1.167,0.145,1.789,0.305c0.361,0.094,0.717,0.2,1.067,0.305  c1.057,0.316,2.146,0.643,3.382,0.643c0.111,0,0.223-0.002,0.337-0.008c1.063-0.053,2.038-0.351,2.98-0.637  c0.565-0.172,1.099-0.334,1.632-0.439c1.05-0.211,1.971-0.289,2.898-0.251c0.816,0.033,1.617,0.255,2.463,0.489  c0.647,0.179,1.316,0.365,2.027,0.473c2.022,0.311,3.634-0.072,5.191-0.443c0.981-0.233,1.931-0.457,2.95-0.483  c0.632-0.017,1.292,0.04,2.006,0.222c0.478,0.121,1.453,0.515,2.097,0.774l0.203,0.082v-2.026  C67.196,31.09,66.491,30.821,66.023,30.704z"/><text x="0" y="75.449" fill="#000000" font-size="5px" font-weight="bold" font-family="'Helvetica Neue', Helvetica, Arial-Unicode, Arial, Sans-serif">Created by corpus delicti</text><text x="0" y="80.449" fill="#000000" font-size="5px" font-weight="bold" font-family="'Helvetica Neue', Helvetica, Arial-Unicode, Arial, Sans-serif">from the Noun Project</text></svg>