<svg xmlns="http://www.w3.org/2000/svg" xmlns:xlink="http://www.w3.org/1999/xlink" version="1.1" x="0px" y="0px" viewBox="0 0 100 100" enable-background="new 0 0 100 100" xml:space="preserve"><path fill="none" d="M78.938,43.097c-0.449-0.684-0.91-1.348-1.379-1.983C77.995,41.728,78.458,42.392,78.938,43.097z"></path><path fill="none" d="M82.227,56.293c0,0-0.149-9.989-8.523-13.223C73.702,43.07,74.145,53.941,82.227,56.293z"></path><path fill="none" d="M26.543,43.07c-8.375,3.233-8.521,13.223-8.521,13.223C26.103,53.941,26.543,43.07,26.543,43.07z"></path><path fill="none" d="M96.355,93.035c-3.105-1.633-32.975-18.725-33.654-72.856c-0.217-0.805-0.408-1.626-0.551-2.478  c-0.021-0.084-2.807-10.918-7.071-13.761c-0.058-0.048-2.654-2.343-4.343-2.904L50,0.788l-0.737,0.248  c-1.688,0.562-4.284,2.856-4.31,2.879c-4.297,2.868-7.082,13.702-7.108,13.811c-0.151,0.908-0.362,1.781-0.597,2.636  c-0.739,53.667-30.2,70.841-33.596,72.643l-1.703,6.193h96.102L96.355,93.035z M60.085,19.037c-2.194-6.413-4.397-8.938-4.397-8.938  C60.73,10.332,60.085,19.037,60.085,19.037z M44.393,10.1c0,0-2.204,2.524-4.399,8.937C39.993,19.036,39.348,10.333,44.393,10.1z   M27.327,74.952l0.029,0.019c2.881-2.053,8.213-6.433,8.213-6.433c2.746-2.946,5.266-4.815,7.419-6.003l0.009-0.121l0.03,0.1  c4.128-2.266,6.892-2.014,7.266-1.966c0.374-0.048,3.139-0.3,7.268,1.966l0.029-0.1l0.01,0.121c2.153,1.188,4.674,3.057,7.42,6.003  c0,0,5.332,4.381,8.213,6.433l0.029-0.019l-0.005,0.034c0.646,0.459,1.168,0.803,1.474,0.945l-1.763,0.979l0.289-1.924  c-0.009-0.006-0.016-0.01-0.024-0.016l-3.104,1.938l0.783-3.623l-3.623,1.958l0.487-4.405l-3.623,3.229l0.392-5.973l-3.722,5.877  l-0.195-9.404l-2.352,6.76L57.6,62.535c-0.013-0.008-0.025-0.016-0.039-0.021l-2.515,8.228l-0.784-9.599l-2.742,9.795l-1.226-9.992  l-1.225,9.992l-2.742-9.795l-0.784,9.599l-2.515-8.228c-0.013,0.008-0.026,0.014-0.04,0.021l-0.678,8.794l-2.349-6.761l-0.196,9.404  l-3.723-5.877l0.393,5.975l-3.625-3.23l0.49,4.405l-3.623-1.958l0.782,3.623l-3.104-1.94c-0.008,0.007-0.015,0.011-0.023,0.017  l0.288,1.925l-1.763-0.978c0.306-0.145,0.829-0.486,1.475-0.947L27.327,74.952z M35.43,92.215L35.43,92.215L35.43,92.215  c-1.558-0.588-3.098-1.316-4.544-2.226l-0.083,0.096l0.031-0.127c-1.342-0.851-2.599-1.854-3.712-3.042L26.982,87l0.064-0.16  c-1.154-1.246-2.151-2.688-2.913-4.363l2.406-0.472l-1.47,2.204l3.674-1.615l-1.698,4.246c0.024,0.026,0.051,0.051,0.075,0.076  l5.223-3.146l-1.511,6.188c0.017,0.011,0.035,0.021,0.052,0.031l5.423-6.22L35.43,92.215C35.43,92.214,35.43,92.215,35.43,92.215  l4.26-8.52l-0.148,9.693l4.263-10.354l0.882,11.091l2.86-11.164l2.72,11.605C50.267,94.566,42.675,94.943,35.43,92.215z M73.57,87  l-0.139-0.084c-1.115,1.186-2.371,2.191-3.715,3.041l0.03,0.126l-0.082-0.095c-1.447,0.91-2.988,1.639-4.546,2.226l0,0l0,0  c-7.246,2.729-14.836,2.353-14.836,2.353l2.718-11.606l2.865,11.164l0.878-11.09l4.263,10.354l-0.146-9.693l4.258,8.52l0,0  l-0.877-8.445l5.423,6.221c0.017-0.012,0.034-0.021,0.052-0.031l-1.51-6.189l5.225,3.148c0.023-0.025,0.051-0.051,0.074-0.077  l-1.699-4.247l3.672,1.615l-1.469-2.202l2.41,0.472c-0.763,1.676-1.76,3.117-2.914,4.362L73.57,87z"></path><path fill="#000000" d="M87.393,58.241c-0.277-0.692-6.867-17.03-13.754-22.157c-0.09-0.072-9.043-7.267-10.916-18.501  c-0.115-0.455-2.869-11.161-7.287-14.104c-0.11-0.098-2.715-2.396-4.509-2.997L50.143,0.22h-0.285l-0.783,0.262  c-1.795,0.601-4.399,2.899-4.477,2.972c-4.451,2.968-7.205,13.674-7.323,14.152C35.406,28.817,26.452,36.011,26.37,36.078  c-6.894,5.133-13.482,21.471-13.771,22.193L1.184,99.779h97.632L87.393,58.241z M82.227,56.293  c-8.082-2.352-8.523-13.223-8.523-13.223C82.076,46.304,82.227,56.293,82.227,56.293z M77.561,41.114  c0.469,0.635,0.928,1.299,1.379,1.983C78.458,42.392,77.995,41.728,77.561,41.114z M26.543,43.07c0,0-0.44,10.872-8.521,13.223  C18.022,56.293,18.168,46.304,26.543,43.07z M3.652,93.004c3.396-1.802,32.857-18.975,33.596-72.643  c0.235-0.855,0.445-1.728,0.597-2.636c0.026-0.108,2.812-10.942,7.108-13.811c0.025-0.022,2.622-2.317,4.31-2.879L50,0.788  l0.736,0.248c1.688,0.562,4.285,2.856,4.343,2.904c4.267,2.843,7.05,13.677,7.071,13.761c0.143,0.852,0.334,1.673,0.551,2.478  c0.68,54.131,30.549,71.225,33.654,72.856l1.694,6.162H1.949L3.652,93.004z"></path><path fill="#000000" d="M27.327,74.952l0.005,0.034c0.008-0.006,0.015-0.01,0.023-0.018L27.327,74.952z"></path><path fill="#000000" d="M42.998,62.414l-0.009,0.121c0.013-0.008,0.026-0.016,0.04-0.021L42.998,62.414z"></path><path fill="#000000" d="M27.62,76.91l-0.288-1.924c-0.646,0.459-1.169,0.803-1.475,0.945L27.62,76.91z"></path><path fill="#000000" d="M46.327,61.143l2.742,9.795l1.225-9.992l1.226,9.992l2.742-9.795l0.784,9.599l2.515-8.228  c-4.129-2.266-6.893-2.014-7.267-1.966c-0.374-0.048-3.138-0.3-7.266,1.966l2.515,8.228L46.327,61.143z"></path><path fill="#000000" d="M29.678,73.287l3.623,1.958l-0.49-4.405l3.625,3.23l-0.393-5.975l3.723,5.877l0.196-9.404l2.349,6.761  l0.678-8.794c-2.154,1.188-4.674,3.057-7.419,6.003c0,0-5.332,4.38-8.213,6.433l3.104,1.939L29.678,73.287z"></path><path fill="#000000" d="M57.591,62.414l-0.03,0.1c0.014,0.008,0.026,0.014,0.039,0.021L57.591,62.414z"></path><path fill="#000000" d="M73.264,74.952l-0.029,0.019c0.009,0.006,0.016,0.01,0.023,0.018L73.264,74.952z"></path><path fill="#000000" d="M60.627,64.568l0.196,9.404l3.721-5.877l-0.392,5.975l3.623-3.23l-0.487,4.405l3.623-1.958l-0.783,3.623  l3.104-1.939c-2.881-2.052-8.213-6.433-8.213-6.433c-2.746-2.946-5.267-4.815-7.42-6.003l0.676,8.794L60.627,64.568z"></path><path fill="#000000" d="M74.73,75.934c-0.306-0.145-0.828-0.486-1.474-0.945l-0.289,1.923L74.73,75.934z"></path><path fill="#000000" d="M26.982,87l0.139-0.084c-0.024-0.025-0.051-0.05-0.075-0.076L26.982,87z"></path><path fill="#000000" d="M30.803,90.085l0.083-0.096c-0.017-0.011-0.035-0.021-0.052-0.031L30.803,90.085z"></path><polygon fill="#000000" points="35.43,92.216 35.43,92.215 35.43,92.214 "></polygon><path fill="#000000" d="M27.122,86.916c1.113,1.188,2.37,2.191,3.712,3.042l1.511-6.188L27.122,86.916z"></path><path fill="#000000" d="M30.886,89.989c1.446,0.909,2.986,1.638,4.543,2.225l0.88-8.444L30.886,89.989z"></path><path fill="#000000" d="M25.07,84.209l1.47-2.204l-2.406,0.472c0.762,1.676,1.758,3.117,2.913,4.363l1.698-4.246L25.07,84.209z"></path><path fill="#000000" d="M44.687,94.125l-0.882-11.091l-4.263,10.356l0.148-9.695l-4.26,8.521c7.245,2.729,14.836,2.353,14.836,2.353  l-2.72-11.605L44.687,94.125z"></path><path fill="#000000" d="M69.718,89.957c1.343-0.85,2.601-1.855,3.714-3.041l-5.224-3.148L69.718,89.957z"></path><path fill="#000000" d="M65.12,92.214c1.558-0.587,3.099-1.315,4.546-2.226l-5.423-6.221L65.12,92.214z"></path><path fill="#000000" d="M74.012,82.005l1.469,2.202l-3.674-1.615l1.7,4.247c1.154-1.245,2.151-2.688,2.914-4.362L74.012,82.005z"></path><path fill="#000000" d="M73.57,87l-0.063-0.161c-0.024,0.026-0.051,0.052-0.075,0.077L73.57,87z"></path><path fill="#000000" d="M65.12,92.214L65.12,92.214L65.12,92.214z"></path><path fill="#000000" d="M69.748,90.083l-0.03-0.126c-0.018,0.011-0.034,0.021-0.052,0.031L69.748,90.083z"></path><path fill="#000000" d="M61.008,93.389l-4.263-10.354l-0.878,11.09L53.002,82.96l-2.718,11.606c0,0,7.59,0.377,14.836-2.353  l-4.259-8.521L61.008,93.389z"></path><path fill="#000000" d="M44.393,10.1c-5.045,0.233-4.399,8.937-4.399,8.937C42.188,12.624,44.393,10.1,44.393,10.1z"></path><path fill="#000000" d="M55.688,10.1c0,0,2.203,2.524,4.397,8.938C60.085,19.037,60.73,10.332,55.688,10.1z"></path></svg>