<svg xmlns="http://www.w3.org/2000/svg" xmlns:xlink="http://www.w3.org/1999/xlink" xml:space="preserve" version="1.1" style="shape-rendering:geometricPrecision;text-rendering:geometricPrecision;image-rendering:optimizeQuality;" viewBox="0 0 296 370" x="0px" y="0px" fill-rule="evenodd" clip-rule="evenodd"><defs><style type="text/css">
   
    .fil0 {fill:black;fill-rule:nonzero}
   
  </style></defs><g><polygon class="fil0" points="110,124 110,168 47,168 47,193 0,146 47,99 47,124 "/><polygon class="fil0" points="186,168 186,124 249,124 249,99 296,146 249,193 249,168 "/><polygon class="fil0" points="170,110 126,110 126,47 101,47 148,0 195,47 170,47 "/><polygon class="fil0" points="126,186 170,186 170,249 195,249 148,296 101,249 126,249 "/></g><text x="0" y="311" fill="#000000" font-size="5px" font-weight="bold" font-family="'Helvetica Neue', Helvetica, Arial-Unicode, Arial, Sans-serif">Created by Abdul Wahhab</text><text x="0" y="316" fill="#000000" font-size="5px" font-weight="bold" font-family="'Helvetica Neue', Helvetica, Arial-Unicode, Arial, Sans-serif">from the Noun Project</text></svg>