<svg xmlns="http://www.w3.org/2000/svg" x="0px" y="0px" viewBox="0 0 80 100"><metadata>image/svg+xml</metadata><g><title>background</title><rect fill="none" height="402" width="582" y="-1" x="-1"/></g><g><title>Layer 1</title><g display="inline"><path fill="#000000" fill-rule="evenodd" stroke="#000000" stroke-width="0.872" stroke-miterlimit="4" d="m73.523796,7.239868l-16.052464,5.349609l4.038845,4.03894l-0.102909,0.103271l-20.407269,20.40686l-20.407261,-20.407227l-0.102911,-0.103271l4.038841,-4.03894l-16.052461,-5.349609l5.34962,16.05249l4.038841,-4.038818l0.102909,0.103149l20.407265,20.407349l-20.407265,20.407227l-0.102909,0.103271l-4.038841,-4.038818l-5.34962,16.052368l16.052461,-5.349609l-4.038841,-4.038818l0.102911,-0.103271l20.407261,-20.407227l20.407265,20.407349l0.102909,0.103271l-4.038845,4.038818l16.05246,5.349609l-5.349617,-16.052368l-4.038841,4.038696l-0.102913,-0.103149l-20.407261,-20.407349l20.407261,-20.407227l0.102913,-0.103271l4.038841,4.03894l5.349617,-16.05249l0.000008,0.000244z"/></g></g><text x="0" y="95" fill="#000000" font-size="5px" font-weight="bold" font-family="'Helvetica Neue', Helvetica, Arial-Unicode, Arial, Sans-serif">Created by Daniel Baker</text><text x="0" y="100" fill="#000000" font-size="5px" font-weight="bold" font-family="'Helvetica Neue', Helvetica, Arial-Unicode, Arial, Sans-serif">from the Noun Project</text></svg>