<svg xmlns="http://www.w3.org/2000/svg" xmlns:xlink="http://www.w3.org/1999/xlink" xml:space="preserve" style="shape-rendering:geometricPrecision;text-rendering:geometricPrecision;image-rendering:optimizeQuality;" viewBox="0 0 0.333331 0.41666375" x="0px" y="0px" fill-rule="evenodd" clip-rule="evenodd"><defs><style type="text/css">
   
    .fil0 {fill:black}
    .fil1 {fill:black;fill-rule:nonzero}
   
  </style></defs><g><polygon class="fil0" points="0.0645079,0.185315 0.0645079,0.172972 0.125945,0.172657 0.125945,0.160783 0.0642756,0.160748 0.064252,0.148472 0.0291969,0.16676 "/><path class="fil1" d="M0.0682835 0.192752l0 -0.0159213 0.0614173 0 0 -0.0203228 -0.0614173 0 0 -0.0159213 -0.0487283 0.0260827 0.0487283 0.0260827zm0.00274803 -0.0131732l0 0.017752 -0.0572756 -0.0306614 0.0572756 -0.0306614 0 0.017752 0.0614173 0 0 0.0258189 -0.0614173 0z"/><polygon class="fil0" points="0.268823,0.185315 0.268823,0.172972 0.207386,0.172657 0.207386,0.160783 0.269055,0.160748 0.269079,0.148472 0.304134,0.16676 "/><path class="fil1" d="M0.265047 0.192752l0 -0.0159213 -0.0614173 0 0 -0.0203228 0.0614173 0 0 -0.0159213 0.0487283 0.0260827 -0.0487283 0.0260827zm-0.00274803 -0.0131732l0 0.017752 0.0572756 -0.0306614 -0.0572756 -0.0306614 0 0.017752 -0.0614173 0 0 0.0258189 0.0614173 0z"/><polygon class="fil0" points="0.0645079,0.185315 0.0645079,0.172972 0.125945,0.172657 0.125945,0.160783 0.0642756,0.160748 0.064252,0.148472 0.0291969,0.16676 "/><path class="fil1" d="M0.0682835 0.192752l0 -0.0159213 0.0614173 0 0 -0.0203228 -0.0614173 0 0 -0.0159213 -0.0487283 0.0260827 0.0487283 0.0260827zm0.00274803 -0.0131732l0 0.017752 -0.0572756 -0.0306614 0.0572756 -0.0306614 0 0.017752 0.0614173 0 0 0.0258189 -0.0614173 0z"/><polygon class="fil0" points="0.268823,0.185315 0.268823,0.172972 0.207386,0.172657 0.207386,0.160783 0.269055,0.160748 0.269079,0.148472 0.304134,0.16676 "/><path class="fil1" d="M0.265047 0.192752l0 -0.0159213 -0.0614173 0 0 -0.0203228 0.0614173 0 0 -0.0159213 0.0487283 0.0260827 -0.0487283 0.0260827zm-0.00274803 -0.0131732l0 0.017752 0.0572756 -0.0306614 -0.0572756 -0.0306614 0 0.017752 -0.0614173 0 0 0.0258189 0.0614173 0z"/><polygon class="fil0" points="0.185311,0.268823 0.172969,0.268823 0.172654,0.207386 0.16078,0.207386 0.160748,0.269055 0.148469,0.269079 0.166756,0.304134 "/><path class="fil1" d="M0.192748 0.265047l-0.0159213 0 0 -0.0614173 -0.0203228 0 0 0.0614173 -0.0159213 0 0.0260827 0.0487283 0.0260827 -0.0487283zm-0.0131732 -0.00274803l0.017752 0 -0.0306614 0.0572756 -0.0306614 -0.0572756 0.017752 0 0 -0.0614173 0.0258189 0 0 0.0614173z"/><polygon class="fil0" points="0.185311,0.0645079 0.172969,0.0645079 0.172654,0.125945 0.16078,0.125945 0.160748,0.0642756 0.148469,0.064252 0.166756,0.0291969 "/><path class="fil1" d="M0.192748 0.0682835l-0.0159213 0 0 0.0614173 -0.0203228 0 0 -0.0614173 -0.0159213 0 0.0260827 -0.0487283 0.0260827 0.0487283zm-0.0131732 0.00274803l0.017752 0 -0.0306614 -0.0572756 -0.0306614 0.0572756 0.017752 0 0 0.0614173 0.0258189 0 0 -0.0614173z"/><polygon class="fil0" points="0.185311,0.268823 0.172969,0.268823 0.172654,0.207386 0.16078,0.207386 0.160748,0.269055 0.148469,0.269079 0.166756,0.304134 "/><path class="fil1" d="M0.192748 0.265047l-0.0159213 0 0 -0.0614173 -0.0203228 0 0 0.0614173 -0.0159213 0 0.0260827 0.0487283 0.0260827 -0.0487283zm-0.0131732 -0.00274803l0.017752 0 -0.0306614 0.0572756 -0.0306614 -0.0572756 0.017752 0 0 -0.0614173 0.0258189 0 0 0.0614173z"/><polygon class="fil0" points="0.185311,0.0645079 0.172969,0.0645079 0.172654,0.125945 0.16078,0.125945 0.160748,0.0642756 0.148469,0.064252 0.166756,0.0291969 "/><path class="fil1" d="M0.192748 0.0682835l-0.0159213 0 0 0.0614173 -0.0203228 0 0 -0.0614173 -0.0159213 0 0.0260827 -0.0487283 0.0260827 0.0487283zm-0.0131732 0.00274803l0.017752 0 -0.0306614 -0.0572756 -0.0306614 0.0572756 0.017752 0 0 0.0614173 0.0258189 0 0 -0.0614173z"/><polygon class="fil0" points="0.107618,0.252091 0.0988898,0.243358 0.14211,0.199693 0.133713,0.191299 0.0900827,0.234882 0.0813858,0.226213 0.0695276,0.263933 "/><path class="fil1" d="M0.115543 0.254677l-0.0112598 -0.0112598 0.0434331 -0.0434291 -0.0143701 -0.0143701 -0.0434291 0.0434331 -0.0112598 -0.0112598 -0.0160118 0.0528976 0.0528976 -0.0160118zm-0.00737008 -0.0112598l0.0125512 0.0125512 -0.0621811 0.0188228 0.0188228 -0.0621811 0.0125512 0.0125512 0.0434291 -0.0434291 0.0182559 0.0182559 -0.0434291 0.0434291z"/><polygon class="fil0" points="0.252091,0.107614 0.243362,0.0988858 0.199697,0.142106 0.191299,0.133709 0.234882,0.0900787 0.226217,0.0813819 0.263937,0.0695276 "/><path class="fil1" d="M0.254681 0.115543l-0.0112598 -0.0112598 -0.0434291 0.0434291 -0.0143701 -0.0143701 0.0434291 -0.0434291 -0.0112598 -0.0112598 0.0528976 -0.0160079 -0.0160079 0.0528976zm-0.0112598 -0.00737008l0.0125512 0.0125512 0.0188189 -0.0621811 -0.0621811 0.0188189 0.0125512 0.0125512 -0.0434291 0.0434291 0.0182598 0.0182598 0.0434291 -0.0434291z"/><polygon class="fil0" points="0.107618,0.252091 0.0988898,0.243358 0.14211,0.199693 0.133713,0.191299 0.0900827,0.234882 0.0813858,0.226213 0.0695276,0.263933 "/><path class="fil1" d="M0.115543 0.254677l-0.0112598 -0.0112598 0.0434331 -0.0434291 -0.0143701 -0.0143701 -0.0434291 0.0434331 -0.0112598 -0.0112598 -0.0160118 0.0528976 0.0528976 -0.0160118zm-0.00737008 -0.0112598l0.0125512 0.0125512 -0.0621811 0.0188228 0.0188228 -0.0621811 0.0125512 0.0125512 0.0434291 -0.0434291 0.0182559 0.0182559 -0.0434291 0.0434291z"/><polygon class="fil0" points="0.252091,0.107614 0.243362,0.0988858 0.199697,0.142106 0.191299,0.133709 0.234882,0.0900787 0.226217,0.0813819 0.263937,0.0695276 "/><path class="fil1" d="M0.254681 0.115543l-0.0112598 -0.0112598 -0.0434291 0.0434291 -0.0143701 -0.0143701 0.0434291 -0.0434291 -0.0112598 -0.0112598 0.0528976 -0.0160079 -0.0160079 0.0528976zm-0.0112598 -0.00737008l0.0125512 0.0125512 0.0188189 -0.0621811 -0.0621811 0.0188189 0.0125512 0.0125512 -0.0434291 0.0434291 0.0182598 0.0182598 0.0434291 -0.0434291z"/><polygon class="fil0" points="0.252091,0.225717 0.243358,0.234441 0.199693,0.191224 0.191299,0.199618 0.234882,0.243248 0.226213,0.251949 0.263933,0.263803 "/><path class="fil1" d="M0.254677 0.217787l-0.0112598 0.0112598 -0.0434291 -0.0434291 -0.0143701 0.0143701 0.0434331 0.0434291 -0.0112598 0.0112559 0.0528976 0.0160118 -0.0160118 -0.0528976zm-0.0112598 0.00737008l0.0125512 -0.0125512 0.0188228 0.0621811 -0.0621811 -0.0188189 0.0125512 -0.0125512 -0.0434291 -0.0434291 0.0182559 -0.0182598 0.0434291 0.0434291z"/><polygon class="fil0" points="0.107614,0.0812402 0.0988858,0.0899724 0.142106,0.133638 0.133709,0.142031 0.0900787,0.0984488 0.0813819,0.107114 0.0695276,0.0693937 "/><path class="fil1" d="M0.115543 0.0786535l-0.0112598 0.0112559 0.0434291 0.0434331 -0.0143701 0.0143661 -0.0434291 -0.0434291 -0.0112598 0.0112598 -0.0160079 -0.0528976 0.0528976 0.0160118zm-0.00737008 0.0112559l0.0125512 -0.0125512 -0.0621811 -0.0188189 0.0188189 0.0621811 0.0125512 -0.0125512 0.0434291 0.0434291 0.0182598 -0.0182559 -0.0434291 -0.0434331z"/><polygon class="fil0" points="0.252091,0.225717 0.243358,0.234441 0.199693,0.191224 0.191299,0.199618 0.234882,0.243248 0.226213,0.251949 0.263933,0.263803 "/><path class="fil1" d="M0.254677 0.217787l-0.0112598 0.0112598 -0.0434291 -0.0434291 -0.0143701 0.0143701 0.0434331 0.0434291 -0.0112598 0.0112559 0.0528976 0.0160118 -0.0160118 -0.0528976zm-0.0112598 0.00737008l0.0125512 -0.0125512 0.0188228 0.0621811 -0.0621811 -0.0188189 0.0125512 -0.0125512 -0.0434291 -0.0434291 0.0182559 -0.0182598 0.0434291 0.0434291z"/><polygon class="fil0" points="0.107614,0.0812402 0.0988858,0.0899724 0.142106,0.133638 0.133709,0.142031 0.0900787,0.0984488 0.0813819,0.107114 0.0695276,0.0693937 "/><path class="fil1" d="M0.115543 0.0786535l-0.0112598 0.0112559 0.0434291 0.0434331 -0.0143701 0.0143661 -0.0434291 -0.0434291 -0.0112598 0.0112598 -0.0160079 -0.0528976 0.0528976 0.0160118zm-0.00737008 0.0112559l0.0125512 -0.0125512 -0.0621811 -0.0188189 0.0188189 0.0621811 0.0125512 -0.0125512 0.0434291 0.0434291 0.0182598 -0.0182559 -0.0434291 -0.0434331z"/></g><text x="0" y="15.333331" fill="#000000" font-size="5px" font-weight="bold" font-family="'Helvetica Neue', Helvetica, Arial-Unicode, Arial, Sans-serif">Created by Abdul Wahhab</text><text x="0" y="20.333331" fill="#000000" font-size="5px" font-weight="bold" font-family="'Helvetica Neue', Helvetica, Arial-Unicode, Arial, Sans-serif">from the Noun Project</text></svg>