<svg xmlns="http://www.w3.org/2000/svg" xmlns:xlink="http://www.w3.org/1999/xlink" version="1.1" x="0px" y="0px" viewBox="0 0 100 125" enable-background="new 0 0 100 100" xml:space="preserve"><g display="none"><rect x="-496.249" y="-376.34" display="inline" fill="#000000" width="1206.405" height="1215.22"/></g><g><polygon points="62.264,33.785 60.455,30.652 58.646,33.785  "/><circle cx="62.423" cy="78.472" r="2.13"/><path d="M73.594,46.741c7.257-11.437,7.257-25.832,0-37.269H38.027c6.347,11.662,6.347,25.607,0,37.269H73.594z M56.911,17.929   h7.086c5,0,9.091,4.091,9.091,9.091c0,4.661-3.568,8.487-8.101,8.991c-0.359,1.304-1.546,2.274-2.96,2.274h-3.147   c-1.414,0-2.601-0.97-2.96-2.274c-4.533-0.503-8.101-4.329-8.101-8.991C47.82,22.02,51.911,17.929,56.911,17.929z"/><circle cx="65.627" cy="27.403" r="3.59"/><circle cx="30.47" cy="78.471" r="2.13"/><path d="M65.22,51.006c0,6.838-5.544,13.979-12.382,13.979H37.805V7.015h-3.014v57.749c-5.74-1.077-10.087-6.108-10.087-12.161   v-4.83H5v5.804h5.325v22.367c0,9.412,7.63,17.041,17.041,17.041h36.746c9.412,0,17.041-7.63,17.041-17.041V53.983H95v-3.068H65.22   V51.006z M30.47,83.797c-2.937,0-5.326-2.389-5.326-5.325s2.39-5.326,5.326-5.326c2.937,0,5.326,2.389,5.326,5.326   S33.407,83.797,30.47,83.797z M46.447,83.797c-2.937,0-5.326-2.389-5.326-5.325s2.39-5.326,5.326-5.326s5.326,2.389,5.326,5.326   S49.384,83.797,46.447,83.797z M67.749,78.472c0,2.937-2.389,5.325-5.325,5.325c-2.937,0-5.326-2.389-5.326-5.325   s2.39-5.326,5.326-5.326C65.36,73.146,67.749,75.535,67.749,78.472z"/><circle cx="46.447" cy="78.471" r="2.13"/><circle cx="55.282" cy="27.403" r="3.59"/></g><text x="0" y="115" fill="#000000" font-size="5px" font-weight="bold" font-family="'Helvetica Neue', Helvetica, Arial-Unicode, Arial, Sans-serif">Created by Oksana Latysheva</text><text x="0" y="120" fill="#000000" font-size="5px" font-weight="bold" font-family="'Helvetica Neue', Helvetica, Arial-Unicode, Arial, Sans-serif">from the Noun Project</text></svg>