<svg xmlns="http://www.w3.org/2000/svg" xmlns:xlink="http://www.w3.org/1999/xlink" version="1.1" x="0px" y="0px" viewBox="0 0 100 125" enable-background="new 0 0 100 100" xml:space="preserve"><path d="M29.187,49.19l-8.965-8.057l11.941-3.115l-4.366-12.711l12.521,2.264l0.549-12.443l10.648,7.615l6.606-10.895l6.136,10.877  l9.182-7.357l1.698,12.777l12.521-2.637L83.11,37.714l12.745,3.214l-10.453,8.553l9.607,8.798l-12.249,3.424l4.147,10.83  l-11.926-1.23l-1.217,12.555l-9.712-7.271l-5.944,11.168l-6.795-11.037l-9.476,6.83l-1.449-7.959  c-3.646,0.926-7.509,0.4-10.773-1.465l-19.28-11.039c-0.278,0.484-0.678,0.885-1.162,1.166c-1.503,0.859-3.416,0.334-4.273-1.166  c-0.86-1.5-0.341-3.412,1.163-4.273c1.5-0.854,3.412-0.334,4.273,1.166L29.187,49.19z M47.364,67.566  c2.48-4.34,2.053-9.754-1.082-13.65c2.456-1.064,3.589-3.915,2.528-6.371c-1.063-2.457-3.915-3.586-6.371-2.523  c-1.847,0.796-3.009,2.655-2.917,4.669c-2.973-0.681-6.09-0.216-8.734,1.295L12.366,61.531l18.423,10.541  C36.609,75.408,44.029,73.387,47.364,67.566z M43.492,79.447l8.501-6.127l5.968,9.695l5.304-9.969l8.559,6.406l1.04-10.746  l10.471,1.084l-3.702-9.66l10.65-2.98l-8.483-7.765l8.938-7.314l-10.758-2.713l3.972-10.656l-10.815,2.275L71.653,19.82  l-8.087,6.479l-5.52-9.778l-5.836,9.622l-9.18-6.567l-0.475,10.8l-11.221-2.033l3.888,11.314L25.06,42.309l6.395,5.744  c1.946-0.771,4.034-1.118,6.123-1.01c0.35-0.975,0.909-1.871,1.635-2.611c2.782-2.846,7.342-2.893,10.187-0.113  c2.845,2.783,2.896,7.343,0.114,10.189c0.215,0.389,0.412,0.789,0.592,1.195c3.218,7.338-0.12,15.891-7.456,19.111L43.492,79.447z   M38.116,55.07c0-1.143-0.924-2.062-2.065-2.062c-1.139,0-2.065,0.92-2.065,2.062c0,1.141,0.926,2.068,2.065,2.068  C37.192,57.139,38.116,56.211,38.116,55.07L38.116,55.07z"/><text x="0" y="115" fill="#000000" font-size="5px" font-weight="bold" font-family="'Helvetica Neue', Helvetica, Arial-Unicode, Arial, Sans-serif">Created by Aldric Rodríguez</text><text x="0" y="120" fill="#000000" font-size="5px" font-weight="bold" font-family="'Helvetica Neue', Helvetica, Arial-Unicode, Arial, Sans-serif">from the Noun Project</text></svg>