<svg xmlns="http://www.w3.org/2000/svg" xmlns:xlink="http://www.w3.org/1999/xlink" version="1.1" x="0px" y="0px" viewBox="0 0 100 125" enable-background="new 0 0 100 100" xml:space="preserve"><g><path fill="none" d="M52.829,54.399c-0.327-0.665-0.786-1.157-1.412-1.527c-0.517-0.306-0.992-0.335-1.575-0.086   c-1.294,0.553-1.801,1.718-2.062,2.88c-0.476,2.127-0.974,4.284-0.658,6.504c0.089,0.624,0.236,1.242,0.3,1.869   c0.228,2.216,0.371,4.443,0.666,6.65c0.241,1.795,0.138,3.555-0.193,5.313c-0.225,1.204-0.497,2.398-0.744,3.597   c-0.474,2.287-0.946,4.574-1.417,6.861c-0.015-0.002-0.03-0.005-0.044-0.007c-0.066,0.591-0.166,1.18-0.188,1.772   c-0.044,1.173,0.101,2.296,0.929,3.233c1.005,1.135,2.734,1.247,3.727,0.099c0.544-0.629,0.936-1.419,1.267-2.192   c1.174-2.745,1.487-5.655,1.556-8.608c0.053-2.297,0.215-4.586-0.212-6.881c-0.521-2.802-0.266-5.548,0.948-8.177   c0.208-0.451,0.252-1.009,0.252-1.518c-0.002-1.448-0.035-2.898-0.114-4.343C53.755,57.982,53.675,56.123,52.829,54.399z    M50.951,54.16c0.038,0.93-0.035,0.994-1.18,1.066C49.959,54.59,50.457,54.433,50.951,54.16z M48.454,87.244   c-0.068-0.059-0.137-0.118-0.206-0.178c0.244-0.331,0.488-0.662,0.875-1.189C49.235,86.75,48.86,87.007,48.454,87.244z    M48.19,58.46c0.547-0.369,1.094-0.737,1.664-1.122C50.248,58.411,49.791,58.745,48.19,58.46z M50.482,75.125   c0.053-0.086,0.413-0.113,0.442-0.06c0.087,0.155,0.175,0.439,0.095,0.54c-0.278,0.353-0.628,0.652-0.951,0.971   c-0.082-0.06-0.165-0.119-0.246-0.179C50.037,75.97,50.233,75.53,50.482,75.125z M50.976,80.785   c-0.272,0.48-0.675,0.836-1.236,1.037c-0.219-0.841,0.444-1.168,0.74-1.713C50.927,80.161,51.26,80.279,50.976,80.785z    M50.331,66.645c-0.057-0.834,0.233-1.298,0.636-1.637c0.297-0.248,0.597,0.002,0.914,0.391   C51.402,65.784,50.943,66.153,50.331,66.645z M51.378,62.164c0.158-1.038,0.506-1.3,1.281-0.716   C52.144,61.736,51.736,61.963,51.378,62.164z"/><path fill="none" d="M35.277,62.795c0.395-1.582,0.914-3.134,1.377-4.7c0.454-1.888,0.254-3.781,0.091-5.667   c-0.033-0.395-0.19-0.796-0.363-1.16c-0.357-0.744-0.875-1-1.631-0.683c-1.092,0.46-2.157,0.992-3.194,1.566   c-0.37,0.204-0.772,0.572-0.9,0.953c-0.508,1.506-1.151,3.023-1.305,4.58c-0.236,2.391-0.121,4.815-0.567,7.198   c-0.129,0.689-0.201,1.39-0.287,2.087c-0.219,1.779-0.611,3.511-1.416,5.125c-0.828,1.658-1.632,3.33-2.522,4.955   c-0.612,1.119-0.665,2.28-0.443,3.461c0.274,1.459,1.724,2.353,3.112,1.903c0.575-0.186,1.184-0.542,1.566-0.999   c0.756-0.905,1.529-1.861,2-2.926c0.925-2.095,1.84-4.201,2.312-6.48C33.746,68.92,34.51,65.855,35.277,62.795z M28.189,75.567   c0.232-0.388,0.464-0.777,0.727-1.217C29.378,75.147,29.351,75.202,28.189,75.567z M32.56,57.179   c0.432-0.833,0.432-0.833,1.311-0.998C34.056,57.125,33.943,57.21,32.56,57.179z M30.557,69.583   c-0.034-0.822-0.034-0.822,0.842-1.356C31.812,68.947,31.748,69.048,30.557,69.583z M32.99,52.63   c0.392,1.011,0.146,1.349-1.271,1.799C31.709,53.492,32.187,52.97,32.99,52.63z M31.852,64.692c0.284-0.48,0.367-1.107,1.019-1.337   C32.92,64.321,32.869,64.389,31.852,64.692z M34.043,59.26c0.03,1.122,0.03,1.122-1.074,1.541   C33.077,59.957,33.14,59.864,34.043,59.26z"/><path fill="none" d="M69.043,51.03c-0.941-1.078-2.01-1.998-3.405-2.428c-0.819-0.251-1.44,0.059-1.625,0.886   c-0.201,0.894-0.347,1.828-0.321,2.739c0.045,1.591,0.3,3.175,0.345,4.766c0.027,0.978,0.282,1.823,0.834,2.602   c0.664,0.936,1.41,1.826,1.986,2.813c0.933,1.593,1.956,3.131,2.638,4.879c1.041,2.67,1.413,5.449,1.685,8.26   c0.203,2.102,0.338,4.214,0.643,6.301c0.168,1.15,1.044,1.84,2.151,2.187c0.543,0.171,1.008,0.031,1.459-0.308   c0.953-0.717,1.156-1.77,1.324-2.711c0.263-1.767,0.135-3.397-0.19-5.005c-0.413-2.035-0.932-4.049-1.355-6.082   c-0.682-3.28-1.581-6.505-2.902-9.576c-1.235-2.871-2.508-5.71-3.069-8.811C69.209,51.365,69.157,51.161,69.043,51.03z    M65.272,56.103c0.304-0.415,0.609-0.831,0.94-1.284C66.802,55.653,66.615,55.93,65.272,56.103z M65.437,51.105   c0.286-1.216,0.286-1.216,1.096-0.805C66.127,50.598,65.782,50.851,65.437,51.105z M74.196,76.817   c0.295,0.506,0.115,0.792-0.375,1.11C73.746,77.436,73.734,77.091,74.196,76.817z M72.954,69.793   c0.284,0.188,0.487,0.322,0.796,0.526c-0.32,0.438-0.603,0.828-0.974,1.337C72.468,70.928,72.546,70.411,72.954,69.793z    M71.134,63.536c0.816,0.915,0.724,1.168-0.569,1.8C70.504,64.434,70.504,64.434,71.134,63.536z M69.675,59.041   c-0.34,0.325-0.681,0.652-1.207,1.156c-0.04-0.789-0.014-1.277,0.458-1.575c0.138-0.087,0.424,0.058,0.642,0.096   C69.604,58.826,69.639,58.933,69.675,59.041z"/><path fill="none" d="M85.907,69.97c-0.302-1.062-0.371-2.192-0.525-3.295c-0.198-1.433-0.306-2.883-0.584-4.3   c-0.243-1.235-0.698-2.425-1.003-3.649c-0.879-3.537-2.447-6.753-4.391-9.817c-1.201-1.894-2.703-3.429-4.656-4.548   c-1.159-0.665-2.253-1.444-3.392-2.146c-0.6-0.369-1.205-0.756-1.858-1.011c-1.659-0.646-3.349-1.214-5.021-1.829   c-0.508-0.187-0.999-0.424-1.607-0.686c0.212-0.445,0.315-0.68,0.436-0.906c1.109-2.061,2.238-4.113,3.331-6.183   c0.722-1.37,1.137-2.847,1.094-4.397c-0.05-1.816-0.12-3.639-0.339-5.44c-0.301-2.472-0.733-4.918-2.008-7.143   c-0.865-1.51-1.573-3.087-2.732-4.441c-2.036-2.381-4.539-3.779-7.637-4.136c-2.709-0.313-5.33,0.185-7.923,0.901   C46.74,7.04,46.42,7.258,46.084,7.417c-1.809,0.854-3.2,2.276-4.751,3.483c-1.338,1.043-2.416,2.305-3.243,3.786   c-0.091,0.161-0.204,0.311-0.317,0.458c-0.857,1.118-1.372,2.413-1.58,3.769c-0.559,3.67-0.558,7.339,0.516,10.935   c0.52,1.741,0.988,3.516,2.141,4.993c0.596,0.762,1.178,1.534,1.763,2.304c0.179,0.236,0.389,0.46,0.513,0.724   c0.286,0.612,0.145,0.916-0.495,1.214c-0.437,0.205-0.886,0.388-1.31,0.621c-3.093,1.707-6.193,3.406-9.269,5.146   c-1.515,0.857-3.036,1.72-4.464,2.709c-1.993,1.38-3.614,3.108-4.862,5.241c-1.263,2.158-2.152,4.421-2.393,6.877   c-0.195,2.006-0.394,3.988-1.103,5.887c-0.48,1.285-0.894,2.603-1.479,3.838c-0.681,1.439-1.524,2.802-2.287,4.203   c-0.709,1.305-1.504,2.575-2.082,3.937c-0.617,1.45-0.763,2.972,0.399,4.299c0.686,0.784,1.419,0.953,2.276,0.374   c0.694-0.468,1.384-1.043,1.849-1.725c0.791-1.162,1.45-2.421,2.08-3.682c1.149-2.296,2.12-4.66,2.701-7.179   c0.72-3.116,1.477-6.225,2.293-9.316c0.329-1.249,0.813-2.443,1.579-3.539c1.698-2.434,4.094-4.081,6.364-5.874   c0.578-0.457,1.249-0.802,1.896-1.166c2.599-1.463,5.49,0.367,5.689,3.156c0.305,4.292-0.197,8.447-1.923,12.421   c-0.162,0.373-0.286,0.766-0.394,1.16c-0.457,1.678-0.9,3.361-1.352,5.041c-0.53,1.973-1.141,3.929-0.866,6.025   c0.066,0.504-0.007,1.044-0.107,1.549c-0.284,1.419-0.525,2.857-0.955,4.233c-0.461,1.475-0.908,2.991-2.084,4.13   c-1.237,1.198-1.533,2.764-1.622,4.391c-0.046,0.868,0.39,1.59,1.095,1.905c1.062,0.475,2.86,0.205,3.665-0.622   c2.072-2.127,3.451-4.657,4.043-7.557c0.4-1.963,0.615-3.965,0.868-5.956c0.397-3.12,1.135-6.152,2.552-8.963   c0.999-1.982,1.612-4.077,2.161-6.196c0.504-1.942,0.873-3.918,1.291-5.881c0.336-1.577,0.933-3.057,1.704-4.459   c0.631-1.145,1.632-1.922,2.823-2.434c0.667-0.287,1.344-0.31,2.048,0c2.232,0.983,3.308,2.871,3.72,5.089   c0.343,1.844,0.344,3.754,0.45,5.638c0.054,0.96-0.157,1.96,0.037,2.881c0.313,1.479,0.826,2.921,1.325,4.353   c0.39,1.121,0.848,2.209,0.993,3.407c0.152,1.251,0.509,2.487,0.563,3.738c0.068,1.589-0.084,3.187-0.135,4.782   c-0.082,2.636-0.224,5.274-0.212,7.909c0.006,1.205,0.086,2.456,0.702,3.57c0.563,1.019,1.1,1.264,2.194,0.885   c1.35-0.467,2.186-1.496,2.746-2.757c0.726-1.633,0.888-3.373,0.818-5.131c-0.116-2.895-0.249-5.79-0.425-8.682   c-0.171-2.831-0.57-5.627-1.775-8.233c-0.951-2.057-1.091-4.239-0.964-6.432c0.156-2.713,0.243-5.415-0.025-8.125   c-0.165-1.68-0.036-3.34,0.553-4.949c0.535-1.458,2.654-2.888,4.465-1.899c1.596,0.873,2.971,1.973,4.157,3.306   c1.381,1.554,2.734,3.115,4.399,4.392c1.689,1.295,2.784,2.951,2.847,5.185c0.038,1.297,0.18,2.595,0.327,3.886   c0.194,1.694,0.248,3.432,1.01,4.998c0.661,1.362,1.123,2.827,2.131,4.023c0.339,0.401,0.493,1.004,0.604,1.541   c0.279,1.34,0.483,2.697,0.723,4.047c0.104,0.585,0.143,1.195,0.343,1.746c0.399,1.093,0.899,2.157,2.207,2.428   c2.108,0.438,3.986-1.191,3.87-3.453c-0.123-2.394-0.658-4.688-1.893-6.803C86.657,72.071,86.208,71.027,85.907,69.97z    M43.178,22.639c-0.186,0.438-0.543,0.692-1.053,0.605c-0.51-0.088-0.744-0.464-0.82-0.919c-0.082-0.488,0.268-0.726,0.663-0.872   c0.302-0.111,0.623-0.173,0.894-0.246C43.435,21.638,43.388,22.145,43.178,22.639z M46.195,38.488   c0.64-0.34,0.641-0.342,1.277,0.224C47.08,38.644,46.688,38.575,46.195,38.488z M48.436,35.868c0.301-0.28,0.591-0.619,0.832,0.103   C48.991,35.936,48.713,35.902,48.436,35.868z M51.634,33.873c-0.213-0.014-0.428-0.026-0.642-0.04   c0.007-0.058,0.014-0.115,0.021-0.172c0.209,0.037,0.418,0.074,0.626,0.11C51.638,33.805,51.636,33.84,51.634,33.873z    M52.07,36.297c0.989-0.254,0.989-0.254,1.155,0.647C52.764,36.686,52.417,36.491,52.07,36.297z M55.521,27.436   c-0.395,1.339-1.754,2.419-3.139,2.455c-1.459,0.04-2.683-0.459-3.595-1.64c-0.576-0.747-0.612-1.538-0.297-2.367   c0.566-0.061,0.936,0.056,1.104,0.593c0.11,0.35,0.279,0.688,0.464,1.007c0.84,1.454,2.222,1.829,3.486,0.316   c0.261-0.312,0.461-0.672,0.695-1.005c0.22-0.314,0.459-0.63,0.904-0.402C55.579,26.614,55.651,26.995,55.521,27.436z    M56.062,38.677c0.687-0.49,0.687-0.49,1.582,0.042C57.013,39.233,56.556,38.95,56.062,38.677z M60.039,35.64   c-0.387,0.287-0.757,0.12-1.138-0.274c0.385-0.186,0.733-0.355,1.059-0.513C60.313,35.141,60.307,35.443,60.039,35.64z    M61.523,21.105c-0.517,0.113-0.96-0.087-1.109-0.499c-0.141-0.384,0.091-0.873,0.529-1.101c0.098-0.051,0.208-0.081,0.315-0.109   c0.176-0.044,0.357-0.079,0.694-0.155c0.11,0.374,0.229,0.644,0.261,0.923C62.28,20.727,62.07,20.986,61.523,21.105z"/><path d="M88.518,71.381c-0.684-1.309-1.231-2.611-1.259-4.107c-0.019-0.964-0.071-1.929-0.169-2.887   c-0.108-1.064-0.226-2.134-0.448-3.178c-0.262-1.231-0.631-2.44-0.974-3.653c-0.241-0.855-0.47-1.719-0.786-2.548   c-0.394-1.038-0.927-2.025-1.3-3.07c-1.081-3.032-2.931-5.486-5.529-7.354c-1.9-1.367-3.826-2.71-5.825-3.928   c-1.576-0.96-3.148-1.977-4.989-2.434c-0.557-0.137-1.077-0.43-1.73-0.699c0.297-0.559,0.495-1.037,0.78-1.452   c0.892-1.293,1.683-2.639,2.045-4.178c0.384-1.626,0.744-3.262,0.999-4.911c0.164-1.056,0.239-2.154,0.148-3.215   c-0.233-2.706-0.791-5.354-1.891-7.855c-0.67-1.526-1.244-3.11-2.303-4.43c-0.487-0.605-1.025-1.169-1.558-1.735   c-1.566-1.664-3.254-3.116-5.51-3.836c-1.652-0.527-3.327-0.731-5.035-0.86c-3.047-0.232-5.942,0.295-8.6,1.802   c-3.718,2.106-6.6,5.052-8.43,8.936c-0.792,1.681-1.414,3.458-1.505,5.337c-0.076,1.553-0.03,3.117,0.05,4.672   c0.191,3.661,1.547,6.937,3.43,10.026c0.474,0.778,0.953,1.555,1.479,2.409c-1.552,0.698-2.992,1.3-4.388,1.99   c-0.927,0.458-1.804,1.025-2.683,1.573c-0.815,0.509-1.59,1.083-2.412,1.583c-0.473,0.289-1.037,0.434-1.497,0.739   c-2.103,1.394-4.2,2.802-6.268,4.248c-0.541,0.378-1.003,0.885-1.451,1.378c-1.203,1.328-2.164,2.822-2.913,4.451   c-0.842,1.833-1.585,3.68-1.542,5.763c0.05,2.429-0.726,4.739-1.658,6.887c-1.277,2.942-2.936,5.727-4.539,8.517   c-1.09,1.9-1.441,3.75-0.56,5.834c0.899,2.127,4.156,2.873,5.87,1.385c1.067-0.925,1.885-1.986,2.47-3.247   c0.656-1.412,1.293-2.835,1.936-4.249c1.037-2.28,1.751-4.65,2.487-7.021c0.507-1.63,0.888-3.299,1.355-4.942   c0.363-1.279,0.731-2.56,1.178-3.811c0.232-0.649,0.666-1.223,0.969-1.849c0.564-1.167,1.492-1.998,2.661-3.012   c-0.012,0.484,0.002,0.696-0.025,0.903c-0.367,2.797-0.732,5.595-1.116,8.39c-0.186,1.361-0.332,2.735-0.634,4.072   c-0.586,2.583-1.474,5.052-2.934,7.303c-0.867,1.337-1.27,2.847-1.09,4.464c0.371,3.329,3.181,4.12,5.424,3.439   c1.265-0.383,2.071-1.225,2.723-2.307c0.371-0.617,0.803-1.198,1.207-1.794c0.08,0.035,0.159,0.07,0.24,0.105   c-0.128,0.717-0.203,1.447-0.39,2.148c-0.494,1.866-0.987,3.73-2.449,5.16c-0.404,0.395-0.773,0.976-0.858,1.519   c-0.222,1.388-0.321,2.802-0.379,4.209c-0.035,0.88,0.442,1.557,1.205,2.007c1.345,0.793,2.743,0.866,4.163,0.237   c1-0.444,1.79-1.107,2.425-2.048c1.356-2.012,2.534-4.112,3.264-6.419c0.753-2.379,1.031-4.862,1.293-7.341   c0.249-2.337,0.708-4.616,1.926-6.686c1.29-2.193,2.232-4.525,2.644-7.054c0.048-0.297,0.201-0.576,0.305-0.864   c0.077,0.012,0.156,0.023,0.233,0.035c0.041,0.39,0.089,0.78,0.12,1.171c0.135,1.666,0.27,3.332,0.395,4.999   c0.128,1.735,0.236,3.457-0.134,5.192c-0.595,2.795-1.028,5.625-1.664,8.409c-0.343,1.499-0.542,2.993-0.546,4.517   c-0.005,1.728,1.097,4.062,3.312,4.49c1.4,0.27,2.762,0.36,3.851-0.758c0.457-0.468,0.868-1.029,1.142-1.62   c1.091-2.37,1.783-4.832,2.042-7.463c0.333-3.38,0.236-6.738,0.083-10.112c-0.06-1.326,0.072-2.661,0.138-3.991   c0.011-0.216,0.143-0.426,0.274-0.79c1.09,2.031,1.733,4.035,1.802,6.118c0.116,3.486-0.039,6.98,0.017,10.47   c0.037,2.261,0.219,4.522,0.39,6.779c0.078,1.038,0.634,1.919,1.327,2.65c0.851,0.898,1.926,1.232,3.159,0.858   c1.386-0.422,2.384-1.359,3.181-2.503c1.521-2.182,1.66-4.699,1.609-7.239c-0.029-1.445-0.134-2.888-0.186-4.332   c-0.042-1.144-0.012-2.292-0.093-3.432c-0.099-1.402-0.245-2.802-0.437-4.195c-0.165-1.205-0.349-2.416-0.658-3.59   c-0.296-1.131-0.76-2.217-1.148-3.324c-0.038-0.105-0.08-0.216-0.08-0.324c-0.001-1.63,0-3.259,0.021-4.888   c0.001-0.112,0.158-0.221,0.317-0.43c0.373,0.566,0.735,1.035,1.011,1.551c0.646,1.207,1.262,2.43,1.869,3.658   c1.142,2.311,1.946,4.718,2.112,7.316c0.065,0.993,0.196,1.983,0.32,2.972c0.166,1.317,0.4,2.627,0.524,3.948   c0.2,2.124,1.246,3.622,3.2,4.439c1.31,0.548,2.522,0.357,3.599-0.657c1.004-0.945,1.472-2.129,1.673-3.435   c0.287-1.856,0.175-3.703-0.259-5.531c-0.308-1.298-0.602-2.598-0.906-3.896c-0.474-2.024-0.872-4.07-1.447-6.065   c-0.586-2.029-1.314-4.02-2.314-5.896c-0.855-1.603-1.764-3.181-2.328-4.92c-0.072-0.221-0.094-0.459-0.185-0.934   c1.508,1.244,2.87,2.271,4.113,3.426c0.852,0.793,1.361,1.826,1.447,3.055c0.136,1.961,0.322,3.921,0.539,5.875   c0.299,2.694,1.111,5.215,2.595,7.514c0.332,0.516,0.521,1.155,0.656,1.765c0.368,1.668,0.657,3.353,1.005,5.026   c0.292,1.417,0.912,2.663,1.98,3.672c1.837,1.735,4.545,1.687,6.126-0.241c1.013-1.235,1.495-2.75,1.431-4.364   C90.688,76.185,89.74,73.724,88.518,71.381z M30.796,78.487c-0.47,1.065-1.244,2.021-2,2.926c-0.381,0.456-0.991,0.812-1.566,0.999   c-1.389,0.45-2.838-0.444-3.112-1.903c-0.222-1.181-0.169-2.342,0.443-3.461c0.89-1.625,1.694-3.296,2.522-4.955   c0.805-1.614,1.197-3.346,1.416-5.125c0.087-0.697,0.159-1.398,0.287-2.087c0.446-2.383,0.33-4.807,0.567-7.198   c0.154-1.557,0.796-3.074,1.305-4.58c0.128-0.381,0.53-0.748,0.9-0.953c1.037-0.575,2.102-1.107,3.194-1.566   c0.755-0.317,1.274-0.061,1.631,0.683c0.173,0.363,0.33,0.764,0.363,1.16c0.163,1.886,0.362,3.779-0.091,5.667   c-0.463,1.566-0.982,3.118-1.377,4.7c-0.767,3.06-1.53,6.124-2.169,9.212C32.635,74.287,31.72,76.392,30.796,78.487z    M53.717,65.698c-1.214,2.629-1.468,5.375-0.948,8.177c0.427,2.295,0.265,4.583,0.212,6.881c-0.068,2.953-0.382,5.864-1.556,8.608   c-0.33,0.773-0.723,1.564-1.267,2.192c-0.993,1.148-2.722,1.036-3.727-0.099c-0.828-0.936-0.974-2.06-0.929-3.233   c0.022-0.592,0.122-1.181,0.188-1.772c0.015,0.002,0.03,0.005,0.044,0.007c0.471-2.287,0.943-4.574,1.417-6.861   c0.247-1.199,0.519-2.394,0.744-3.597c0.331-1.758,0.434-3.518,0.193-5.313c-0.295-2.207-0.437-4.434-0.666-6.65   c-0.064-0.627-0.211-1.244-0.3-1.869c-0.316-2.22,0.182-4.377,0.658-6.504c0.26-1.162,0.768-2.327,2.062-2.88   c0.583-0.249,1.058-0.219,1.575,0.086c0.626,0.371,1.086,0.862,1.412,1.527c0.845,1.724,0.926,3.584,1.025,5.438   c0.079,1.446,0.111,2.895,0.114,4.343C53.969,64.688,53.925,65.247,53.717,65.698z M72.311,60.354   c1.321,3.071,2.22,6.296,2.902,9.576c0.423,2.034,0.942,4.047,1.355,6.082c0.325,1.607,0.453,3.237,0.19,5.005   c-0.169,0.941-0.371,1.994-1.324,2.711c-0.451,0.339-0.917,0.479-1.459,0.308c-1.107-0.347-1.983-1.037-2.151-2.187   c-0.306-2.087-0.44-4.199-0.643-6.301c-0.272-2.812-0.644-5.591-1.685-8.26c-0.682-1.749-1.705-3.286-2.638-4.879   c-0.576-0.988-1.322-1.877-1.986-2.813c-0.553-0.778-0.807-1.623-0.834-2.602c-0.045-1.591-0.301-3.175-0.345-4.766   c-0.025-0.911,0.12-1.845,0.321-2.739c0.184-0.827,0.806-1.137,1.625-0.886c1.394,0.429,2.463,1.35,3.405,2.428   c0.114,0.131,0.166,0.335,0.199,0.513C69.803,54.644,71.077,57.483,72.311,60.354z M85.235,83.276   c-1.309-0.272-1.809-1.336-2.207-2.428c-0.2-0.551-0.24-1.161-0.343-1.746c-0.24-1.349-0.444-2.706-0.723-4.047   c-0.111-0.537-0.264-1.141-0.604-1.541c-1.008-1.195-1.469-2.661-2.131-4.023c-0.762-1.567-0.816-3.304-1.01-4.998   c-0.147-1.291-0.289-2.589-0.327-3.886c-0.063-2.235-1.158-3.89-2.847-5.185c-1.665-1.277-3.018-2.838-4.399-4.392   c-1.186-1.334-2.561-2.433-4.157-3.306c-1.81-0.989-3.929,0.441-4.465,1.899c-0.589,1.609-0.717,3.269-0.553,4.949   c0.268,2.71,0.18,5.412,0.025,8.125c-0.127,2.193,0.013,4.375,0.964,6.432c1.205,2.606,1.604,5.402,1.775,8.233   c0.176,2.892,0.309,5.787,0.425,8.682c0.07,1.758-0.092,3.498-0.818,5.131c-0.56,1.261-1.396,2.29-2.746,2.757   c-1.094,0.379-1.631,0.134-2.194-0.885c-0.616-1.113-0.696-2.365-0.702-3.57c-0.011-2.636,0.13-5.273,0.212-7.909   c0.051-1.595,0.203-3.193,0.135-4.782c-0.054-1.251-0.412-2.487-0.563-3.738c-0.146-1.198-0.604-2.286-0.993-3.407   c-0.499-1.433-1.012-2.874-1.325-4.353c-0.194-0.921,0.017-1.921-0.037-2.881c-0.105-1.884-0.107-3.794-0.45-5.638   c-0.413-2.218-1.488-4.106-3.72-5.089c-0.704-0.31-1.381-0.287-2.048,0c-1.191,0.512-2.193,1.289-2.823,2.434   c-0.771,1.402-1.368,2.883-1.704,4.459c-0.418,1.963-0.786,3.94-1.291,5.881c-0.549,2.119-1.162,4.214-2.161,6.196   c-1.417,2.811-2.155,5.843-2.552,8.963c-0.253,1.991-0.468,3.993-0.868,5.956c-0.592,2.9-1.971,5.43-4.043,7.557   c-0.805,0.827-2.603,1.097-3.665,0.622c-0.706-0.315-1.142-1.037-1.095-1.905c0.089-1.627,0.385-3.193,1.622-4.391   c1.175-1.139,1.623-2.655,2.084-4.13c0.431-1.376,0.671-2.815,0.955-4.233c0.101-0.505,0.173-1.045,0.107-1.549   c-0.275-2.096,0.337-4.052,0.866-6.025c0.452-1.681,0.895-3.363,1.352-5.041c0.108-0.395,0.231-0.788,0.394-1.16   c1.726-3.974,2.228-8.129,1.923-12.421c-0.198-2.789-3.09-4.619-5.689-3.156c-0.647,0.364-1.318,0.709-1.896,1.166   c-2.27,1.793-4.666,3.441-6.364,5.874c-0.766,1.096-1.249,2.29-1.579,3.539c-0.816,3.091-1.573,6.2-2.293,9.316   c-0.581,2.519-1.552,4.883-2.701,7.179c-0.63,1.261-1.289,2.52-2.08,3.682c-0.465,0.682-1.156,1.257-1.849,1.725   c-0.857,0.578-1.59,0.41-2.276-0.374c-1.163-1.327-1.016-2.849-0.399-4.299c0.578-1.362,1.373-2.632,2.082-3.937   c0.764-1.401,1.606-2.764,2.287-4.203c0.586-1.235,0.999-2.553,1.479-3.838c0.709-1.899,0.908-3.88,1.103-5.887   c0.24-2.456,1.13-4.718,2.393-6.877c1.248-2.134,2.869-3.861,4.862-5.241c1.428-0.989,2.949-1.853,4.464-2.709   c3.076-1.739,6.175-3.439,9.269-5.146c0.423-0.233,0.872-0.416,1.31-0.621c0.64-0.298,0.781-0.603,0.495-1.214   c-0.124-0.263-0.334-0.488-0.513-0.724c-0.585-0.77-1.167-1.542-1.763-2.304c-1.153-1.477-1.622-3.252-2.141-4.993   c-1.073-3.596-1.075-7.265-0.516-10.935c0.208-1.356,0.722-2.651,1.58-3.769c0.113-0.147,0.227-0.296,0.317-0.458   c0.827-1.48,1.905-2.743,3.243-3.786c1.551-1.207,2.942-2.63,4.751-3.483c0.336-0.159,0.656-0.376,1.008-0.473   c2.593-0.717,5.214-1.214,7.923-0.901c3.098,0.357,5.601,1.756,7.637,4.136c1.159,1.354,1.867,2.931,2.732,4.441   c1.275,2.225,1.707,4.671,2.008,7.143c0.219,1.801,0.289,3.625,0.339,5.44c0.043,1.55-0.371,3.027-1.094,4.397   c-1.093,2.07-2.221,4.122-3.331,6.183c-0.121,0.226-0.223,0.461-0.436,0.906c0.608,0.261,1.099,0.499,1.607,0.686   c1.672,0.615,3.362,1.184,5.021,1.829c0.653,0.254,1.258,0.641,1.858,1.011c1.139,0.702,2.234,1.481,3.392,2.146   c1.953,1.119,3.455,2.654,4.656,4.548c1.944,3.063,3.512,6.28,4.391,9.817c0.305,1.224,0.76,2.414,1.003,3.649   c0.278,1.417,0.386,2.867,0.584,4.3c0.153,1.103,0.222,2.234,0.525,3.295c0.301,1.057,0.75,2.101,1.305,3.05   c1.235,2.114,1.771,4.409,1.893,6.803C89.221,82.085,87.343,83.714,85.235,83.276z"/><path d="M55.143,26.392c-0.446-0.228-0.684,0.088-0.904,0.402c-0.234,0.333-0.434,0.693-0.695,1.005   c-1.263,1.513-2.645,1.137-3.486-0.316c-0.184-0.319-0.354-0.657-0.464-1.007c-0.169-0.537-0.539-0.654-1.104-0.593   c-0.315,0.83-0.278,1.62,0.297,2.367c0.912,1.182,2.136,1.68,3.595,1.64c1.385-0.037,2.743-1.116,3.139-2.455   C55.651,26.995,55.579,26.614,55.143,26.392z"/><path d="M42.863,21.207c-0.272,0.073-0.592,0.135-0.894,0.246c-0.395,0.145-0.745,0.384-0.663,0.872   c0.076,0.455,0.31,0.831,0.82,0.919c0.51,0.087,0.866-0.167,1.053-0.605C43.388,22.145,43.435,21.638,42.863,21.207z"/><path d="M61.258,19.396c-0.107,0.028-0.217,0.058-0.315,0.109c-0.437,0.227-0.67,0.716-0.529,1.101   c0.149,0.413,0.591,0.612,1.109,0.499c0.547-0.119,0.757-0.378,0.69-0.941c-0.032-0.279-0.151-0.549-0.261-0.923   C61.615,19.316,61.435,19.352,61.258,19.396z"/><path d="M58.901,35.366c0.381,0.394,0.751,0.561,1.138,0.274c0.268-0.198,0.273-0.5-0.079-0.787   C59.634,35.011,59.286,35.18,58.901,35.366z"/><path d="M56.062,38.677c0.494,0.273,0.95,0.556,1.582,0.042C56.749,38.187,56.749,38.187,56.062,38.677z"/><path d="M52.07,36.297c0.347,0.194,0.693,0.389,1.155,0.647C53.059,36.043,53.059,36.043,52.07,36.297z"/><path d="M46.195,38.488c0.493,0.087,0.885,0.155,1.277,0.224C46.835,38.147,46.834,38.149,46.195,38.488z"/><path d="M48.436,35.868c0.277,0.034,0.554,0.068,0.832,0.103C49.028,35.25,48.738,35.588,48.436,35.868z"/><path d="M50.992,33.834c0.215,0.013,0.429,0.026,0.642,0.04c0.002-0.034,0.003-0.068,0.004-0.101   c-0.208-0.037-0.417-0.074-0.626-0.11C51.006,33.719,50.999,33.776,50.992,33.834z"/><path d="M49.855,57.338c-0.571,0.385-1.118,0.753-1.664,1.122C49.791,58.745,50.248,58.411,49.855,57.338z"/><path d="M50.479,80.109c-0.296,0.544-0.959,0.871-0.74,1.713c0.561-0.201,0.964-0.557,1.236-1.037   C51.26,80.279,50.927,80.161,50.479,80.109z"/><path d="M50.967,65.008c-0.403,0.339-0.693,0.803-0.636,1.637c0.612-0.492,1.071-0.861,1.55-1.246   C51.564,65.01,51.265,64.76,50.967,65.008z"/><path d="M51.02,75.605c0.08-0.101-0.008-0.385-0.095-0.54c-0.03-0.053-0.39-0.026-0.442,0.06c-0.25,0.406-0.445,0.845-0.66,1.272   c0.082,0.06,0.165,0.119,0.246,0.179C50.392,76.257,50.742,75.958,51.02,75.605z"/><path d="M51.378,62.164c0.358-0.201,0.766-0.428,1.281-0.716C51.884,60.863,51.536,61.126,51.378,62.164z"/><path d="M50.951,54.16c-0.494,0.273-0.992,0.43-1.18,1.066C50.915,55.154,50.989,55.09,50.951,54.16z"/><path d="M48.249,87.066c0.069,0.06,0.138,0.119,0.206,0.178c0.405-0.237,0.781-0.493,0.669-1.367   C48.736,86.404,48.492,86.735,48.249,87.066z"/><path d="M71.134,63.536c-0.63,0.897-0.63,0.897-0.569,1.8C71.858,64.705,71.95,64.451,71.134,63.536z"/><path d="M73.749,70.319c-0.309-0.204-0.511-0.338-0.796-0.526c-0.408,0.618-0.485,1.135-0.178,1.863   C73.146,71.147,73.43,70.757,73.749,70.319z"/><path d="M68.925,58.622c-0.472,0.298-0.498,0.786-0.458,1.575c0.526-0.505,0.867-0.831,1.207-1.156   c-0.036-0.107-0.071-0.215-0.107-0.323C69.349,58.68,69.064,58.535,68.925,58.622z"/><path d="M65.272,56.103c1.343-0.172,1.53-0.45,0.94-1.284C65.881,55.271,65.576,55.687,65.272,56.103z"/><path d="M65.437,51.105c0.344-0.254,0.69-0.507,1.096-0.805C65.723,49.889,65.723,49.889,65.437,51.105z"/><path d="M74.196,76.817c-0.462,0.274-0.45,0.619-0.375,1.11C74.311,77.609,74.49,77.324,74.196,76.817z"/><path d="M32.99,52.63c-0.802,0.34-1.281,0.862-1.271,1.799C33.135,53.979,33.382,53.641,32.99,52.63z"/><path d="M32.56,57.179c1.383,0.031,1.496-0.054,1.311-0.998C32.993,56.346,32.993,56.346,32.56,57.179z"/><path d="M34.043,59.26c-0.903,0.604-0.966,0.698-1.074,1.541C34.073,60.382,34.073,60.382,34.043,59.26z"/><path d="M30.557,69.583c1.191-0.535,1.254-0.636,0.842-1.356C30.524,68.761,30.524,68.761,30.557,69.583z"/><path d="M31.852,64.692c1.017-0.302,1.067-0.371,1.019-1.337C32.219,63.585,32.136,64.212,31.852,64.692z"/><path d="M28.189,75.567c1.162-0.365,1.189-0.42,0.727-1.217C28.652,74.791,28.42,75.179,28.189,75.567z"/></g><text x="0" y="115" fill="#000000" font-size="5px" font-weight="bold" font-family="'Helvetica Neue', Helvetica, Arial-Unicode, Arial, Sans-serif">Created by Alena Artemova</text><text x="0" y="120" fill="#000000" font-size="5px" font-weight="bold" font-family="'Helvetica Neue', Helvetica, Arial-Unicode, Arial, Sans-serif">from the Noun Project</text></svg>