<svg xmlns="http://www.w3.org/2000/svg" xmlns:xlink="http://www.w3.org/1999/xlink" version="1.1" x="0px" y="0px" viewBox="0 0 100 125" enable-background="new 0 0 100 100" xml:space="preserve"><g><path fill="none" d="M35.907,38.175c-0.127-0.967-0.658-0.991-1.355-0.77C34.666,38.384,35.123,38.564,35.907,38.175z"/><path fill="none" d="M69.993,45.508c-1.294-0.389-2.615-0.613-3.79-0.509c-0.478,0.605-0.79,1.109-1.21,1.5   c-0.412,0.384-0.931,0.652-1.403,0.971c1.696,0.199,3.23,0.39,4.656,1.185c0.742,0.413,1.481,0.174,2.135-0.284   c0.547-0.384,0.992-0.853,0.923-1.605C71.23,45.969,70.624,45.699,69.993,45.508z"/><path fill="none" d="M67.423,52.145c0.442-0.054,1.051-0.569,1.16-0.983c0.1-0.381-0.258-1.042-0.613-1.35   c-1.124-0.974-2.51-1.197-3.959-1.032c-0.189,0.022-0.406,0.157-0.534,0.305c-0.59,0.679-1.154,1.382-1.76,2.115   C63.438,52.636,65.455,52.387,67.423,52.145z"/><path fill="none" d="M34.198,42.048c1.107,1.573,2.22,3.154,4.283,2.803c0.509,0,0.781,0.026,1.048-0.004   c1.182-0.135,1.761-0.666,1.846-1.665c0.102-1.196-0.508-2.334-1.428-2.659c-1.009-0.357-2.021-0.705-3.029-1.067   c-0.767-0.276-1.682-0.081-2.159,0.604C34.357,40.637,33.588,41.183,34.198,42.048z"/><path fill="none" d="M52.431,49.841c0.419-0.092,0.856-0.095,1.285-0.145c0.715-0.083,1.421-0.183,1.599-1.069   c0.164-0.813-0.184-1.472-1.215-1.831c-1.652-0.576-3.357-0.806-5.068-0.193c-0.419,0.15-0.816,0.36-1.266,0.562   c1.243,1.038,2.337,1.951,3.622,3.024C51.618,50.11,52.015,49.933,52.431,49.841z"/><path fill="none" d="M28.877,47.081c0.709,0.773,1.428,0.285,2.092,0.21C30.34,47.053,29.713,46.684,28.877,47.081z"/><path fill="none" d="M33.625,49.621c-1.143-0.867-2.425-1.368-3.908-1.127c-0.575,0.094-1.041,0.278-1.068,1.065   c1.533,0.905,3.097,1.831,4.725,2.793C34.422,51.156,34.498,50.281,33.625,49.621z"/><path fill="none" d="M38.015,47.305c-0.47-1.71-2.208-1.423-2.951-2.242c-1.042,0.735-1.945,1.373-3.102,2.188   c1.186,0.728,2.224,1.363,3.269,2.002C36.18,48.59,37.128,47.926,38.015,47.305z"/><path fill="none" d="M33.576,44.658c0.656-1.003-0.07-1.834-0.592-2.65c-1.218-0.174-2.282-0.352-3.353-0.47   c-0.585-0.064-1.183-0.063-1.771-0.022c-0.603,0.043-1.19,0.183-1.446,0.853c-0.279,0.728,0.111,1.241,0.538,1.755   c1.015,1.223,2.375,1.662,3.895,1.665C31.897,45.791,32.963,45.597,33.576,44.658z"/><path fill="none" d="M60.283,53.317c0.331,0.203,0.693,0.426,1.218,0.747c0.302-0.446,0.524-0.776,0.737-1.094   c-0.676-0.514-1.254-0.954-1.955-1.486C60.283,52.193,60.283,52.719,60.283,53.317z"/><path fill="none" d="M45.627,48.143c-0.794,0.146-1.589,0.293-2.538,0.469c0.213,0.602,0.383,1.164,0.615,1.699   c0.099,0.227,0.29,0.487,0.505,0.58c1.244,0.541,2.502,1.109,3.91,0.858c0.467-0.084,0.997-0.225,1.328-0.525   c0.238-0.216,0.37-0.817,0.243-1.118C49.267,49.101,46.73,47.941,45.627,48.143z"/><path fill="none" d="M48.338,45.101c0.96-0.131,1.918-0.316,2.86-0.545c0.801-0.195,1.124-0.834,1.114-1.598   c-0.009-0.709-0.409-1.195-1.081-1.471c-1.191-0.487-2.385-0.613-3.646-0.26c-0.962,0.269-1.877,0.537-2.291,1.737   c0.772,0.664,1.448,1.283,2.169,1.846C47.696,44.992,48.061,45.138,48.338,45.101z"/><path fill="none" d="M43.401,55.737c0.893,0.343,1.866,0.482,2.973,0.754c0.894-0.251,1.904-0.435,2.832-0.82   c0.814-0.336,1.079-1.031,0.804-1.718c-0.275-0.69-0.74-1.159-1.579-1.174c-0.855-0.014-1.72-0.057-2.56-0.208   c-1.189-0.214-2.136,0.193-2.932,0.995C42.127,54.383,42.301,55.314,43.401,55.737z"/><path fill="none" d="M35.248,50.607c2.741,1.708,5.995,1.608,7.381-0.111c-0.597-1.179-1.272-2.142-2.883-2.094   C37.915,48.457,36.408,48.947,35.248,50.607z"/><path fill="none" d="M63.619,43.3c-1.314-0.85-2.7-0.905-4.159-0.355c-0.06,0.808-0.111,1.504-0.168,2.261   c0.986,0.34,1.856,0.612,2.703,0.939c0.917,0.354,2.151,0.005,2.523-0.761C64.783,44.837,64.369,43.786,63.619,43.3z"/><path fill="none" d="M57.936,46.472c-1.187,0.136-1.472,0.515-1.531,1.786c-0.02,0.423-0.048,0.845-0.075,1.311   c0.713,0.227,1.447,0.318,2.018,0.671c1.337,0.828,2.391,0.236,3.393-0.548c1.112-0.872,1.019-1.882-0.194-2.578   C60.428,46.47,59.191,46.328,57.936,46.472z"/><path fill="none" d="M42.327,44.498c-0.915,1.123-2.054,1.498-3.546,2.002c0.427,0.253,0.827,0.583,1.286,0.738   c0.555,0.187,1.157,0.283,1.744,0.318c1.484,0.089,2.909-0.21,4.213-0.923c0.679-0.371,0.73-0.919,0.199-1.466   c-0.297-0.307-0.644-0.663-1.03-0.768C44.237,44.141,43.076,43.58,42.327,44.498z"/><path fill="none" d="M74.539,49.466c0.192-0.214,0.386-0.427,0.59-0.653c-1.977-1.37-2.726-1.206-3.972,0.799   c0.953,0.178,1.882,0.35,2.792,0.519C74.19,49.859,74.364,49.662,74.539,49.466z"/><path fill="none" d="M38.906,21.476c2.323,1.088,13.938,4.198,16.201,4.31c0.434-1.155,0.883-2.349,1.359-3.617   c-5.637-1.193-11.114-2.353-16.581-3.51C39.537,19.66,39.221,20.569,38.906,21.476z"/><path fill="none" d="M19.971,12.244c0.543,0.187,0.773,0.295,1.014,0.346c3.129,0.664,6.261,1.314,9.389,1.98   c2.963,0.631,5.973,1.091,8.679,2.61c0.599,0.336,1.317,0.501,2.003,0.64c4.41,0.897,8.838,1.712,13.236,2.665   c2.146,0.464,4.222,0.525,6.415,0.229c4.656-0.628,8.109-2.998,10.867-6.76c-2.357-0.383-4.631-0.809-6.921-1.111   c-3.548-0.468-7.12-0.764-10.657-1.298c-2.513-0.38-4.979-1.064-7.477-1.554c-5.374-1.052-10.759-2.042-16.127-3.119   c-0.876-0.176-1.506-0.171-2.17,0.532c-1.941,2.055-4.384,3.335-7.012,4.294C20.884,11.815,20.576,11.975,19.971,12.244z"/><path fill="none" d="M13.944,14.84c4.405,1.25,8.64,2.451,12.777,3.625c0.435-1.184,0.801-2.177,1.166-3.168   c-4.117-1.037-8.234-2.074-12.391-3.12C14.992,13.042,14.532,13.831,13.944,14.84z"/><path fill="none" d="M20.771,10.747c2.431-1.071,4.89-2.056,6.714-4.281c-1.477-0.578-2.773-0.739-4.132,0.279   c-2.329,1.744-5.065,2.661-7.801,3.552c-0.263,0.086-0.512,0.214-0.86,0.361C16.819,11.683,18.762,11.633,20.771,10.747z"/><path fill="none" d="M14.534,11.816c-3.936-1.359-3.124-1.498-5.525,1.413c1.371,0.506,2.567,0.947,3.897,1.437   C13.487,13.65,14,12.751,14.534,11.816z"/><path fill="none" d="M27.166,40.496c-0.597-1.048-1.545-0.874-2.364-0.867c-1.242,0.011-2.349,0.945-2.341,1.829   c0.007,0.796,0.937,1.359,2.536,1.437C25.338,41.712,25.771,40.668,27.166,40.496z"/><path fill="none" d="M64.046,21.005c-0.81,0.248-1.638,0.44-2.457,0.658c1.822,0.7,3.617,1.225,5.441,1.614   c0.661,0.141,1.446,0.109,2.08-0.115c1.366-0.483,2.812-0.943,3.971-1.768c2.462-1.752,4.762-3.731,7.122-5.625   c0.048-0.038,0.015-0.179,0.029-0.462c-2.355-0.423-4.732-0.85-6.56-1.179c-1.552,1.372-2.861,2.359-3.961,3.541   C68.133,19.363,66.197,20.346,64.046,21.005z"/><path fill="none" d="M64.578,23.871c-2.457-0.577-4.656-1.094-7.011-1.646c-0.555,1.371-1.052,2.602-1.578,3.9   c2.291,0.659,4.45,1.28,6.688,1.924C63.318,26.64,63.895,25.372,64.578,23.871z"/><path fill="none" d="M41.444,34.508c0.124,0.051,0.316-0.024,0.463-0.078c2.712-1,4.943-0.171,6.89,1.78   c2.189-0.189,4.135,0.482,5.972,1.663c0.977,0.628,1.74,1.289,1.501,2.515c0.929,0.583,1.796,1.128,2.676,1.681   c2.915-1.239,4.74-0.756,6.821,1.749c1.382,0.167,2.681,0.265,3.956,0.494c1.139,0.205,2.205,0.594,2.675,1.852   c0.092,0.246,0.444,0.519,0.707,0.556c1.196,0.166,2.096,0.799,2.962,1.583c0.332,0.3,0.853,0.421,1.308,0.55   c1.687,0.48,3.297,1.093,4.593,2.477c1.778-1.015,3.544-2.022,5.5-3.138c-0.421-0.213-0.592-0.341-0.782-0.391   c-1.731-0.457-3.465-0.9-5.198-1.348c-2.1-0.542-4.228-0.994-6.295-1.643c-6.435-2.025-12.431-5.106-18.57-7.842   c-1.782-0.794-3.607-1.497-5.431-2.19c-2.735-1.039-5.484-2.039-8.233-3.041c-0.502-0.183-1.058-0.483-1.539-0.409   c-1.309,0.203-2.592,0.578-3.904,0.889C38.271,34.134,40.072,33.939,41.444,34.508z"/><path fill="none" d="M25.615,44.325c-1.144-0.761-3.815-0.102-4.895,1.36c2.197,1.362,4.451,2.319,6.738,3.192   C28.236,47.285,27.487,45.572,25.615,44.325z"/><path fill="none" d="M16.816,41.8c-0.617,0.443-0.616,1.3,0.084,1.741c0.848,0.535,1.758,0.969,2.501,1.372   c0.878-0.746,1.57-1.332,2.357-2.001C20.878,41.424,18.181,40.821,16.816,41.8z"/><path fill="none" d="M33.667,17.542c1.211,0.437,1.123,1.425,0.991,2.572c1.103,0.237,2.126,0.456,3.205,0.688   c1.066-2.361,1.023-2.729-0.975-3.446c-1.971-0.708-4.021-1.234-6.072-1.667c-1.462-0.31-2.127,0.243-2.813,1.985   c0.688,0.312,1.386,0.629,2.034,0.923C31.303,17.105,32.006,16.943,33.667,17.542z"/><path fill="none" d="M48.536,32.445c1.923,0.734,3.868,1.415,5.764,2.214c2.596,1.094,5.155,2.278,7.732,3.419   c1.19,0.526,2.414,0.983,3.57,1.575c3.975,2.036,8.161,3.514,12.441,4.732c3.283,0.934,6.6,1.754,9.891,2.663   c0.792,0.219,1.489,0.276,2.216-0.471c-1.255-0.765-2.414-1.443-3.544-2.166c-6.718-4.295-13.395-8.655-20.165-12.868   c-1.866-1.162-3.942-2.059-6.025-2.783c-2.552-0.887-5.214-1.458-7.825-2.177c-4.441-1.222-8.884-2.435-13.317-3.687   c-1.65-0.466-3.271-1.032-4.845-1.534c-0.707,1.648-1.329,3.099-1.984,4.626c0.33,0.147,0.815,0.381,1.313,0.583   c3.457,1.401,6.914,2.804,10.377,4.189C45.594,31.342,47.069,31.884,48.536,32.445z"/><path fill="none" d="M28.741,24.159c0.28-1.195,0.559-2.393,0.883-3.775c-5.801-1.642-11.531-3.265-17.262-4.888   C14.124,17.306,27.034,23.972,28.741,24.159z"/><path fill="none" d="M33.778,18.608c-0.816-0.126-1.467-0.227-2.324-0.359c-0.569,1.962-1.103,3.803-1.653,5.697   c1.831,0.927,2.325,0.89,2.708-0.311C33.01,22.061,33.328,20.429,33.778,18.608z"/><path fill="none" d="M77.599,53.769c1.168-0.657,2.215-1.244,3.306-1.858c-1.081-1.111-2.665-1.867-4.152-1.964   c-0.475-0.03-0.965,0.149-1.448,0.233c-0.013,0.147-0.027,0.296-0.041,0.444C76.675,51.13,77.179,52.331,77.599,53.769z"/><path fill="none" d="M11.858,43.562c-0.017-0.398-0.133-0.974-0.405-1.145C10.324,41.709,9.165,41,7.694,40.865   c-0.056,0.339-0.137,0.593-0.133,0.846c0.082,4.771,0.142,9.545,0.282,14.314c0.046,1.567,0.296,3.128,0.469,4.69   c0.035,0.318,0.081,0.663,0.233,0.933c0.266,0.477,3.35,2.228,3.992,2.363c-0.108-3.609-0.211-7.233-0.328-10.858   C12.104,49.955,11.998,46.757,11.858,43.562z"/><path fill="none" d="M69.049,58.27c1.337-0.622,2.695-1.227,4.164-2.271c-0.939-0.464-1.618-0.799-2.533-1.253   c0.097,1.976-1.4,2.181-2.919,3.068C68.395,58.051,68.822,58.375,69.049,58.27z"/><path fill="none" d="M17.73,40.331c1.226-0.075,2.465,0.054,3.843,0.098c0.774-1.491,2.304-1.922,3.89-1.96   c0.28-0.95,0.523-1.775,0.856-2.908c-5.559,1.394-10.971,2.562-16.631,4.438c2.043,0.993,3.71,1.805,5.467,2.66   C15.474,41.062,16.44,40.41,17.73,40.331z"/><path fill="none" d="M33.69,58.07c0.018-0.102,0.086-0.208,0.16-0.281c0.86-0.843,0.882-1.91,0.889-2.949   c-3.735-2.726-8.874-5.433-10.639-5.591c-0.038,0.593,0.03,1.215-0.136,1.769c-0.313,1.039-0.016,1.867,0.498,2.763   c0.362,0.63,0.416,1.43,0.651,2.14c0.199,0.601,0.304,1.37,0.732,1.727c0.794,0.66,0.918,1.458,0.871,2.323   c-0.13,2.383-0.286,4.765-0.503,7.141c-0.162,1.778-0.434,3.544-0.666,5.387c1.634,1.049,3.211,2.062,5.084,3.263   c0.198-5.362,0.383-10.371,0.576-15.602C32.524,60.046,33.448,59.446,33.69,58.07z"/><path fill="none" d="M27.608,39.087c1.171,1.003,2.589,1.277,3.902,1.47c1.084,0.046,1.867-0.343,2.158-1.039   c0.358-0.855-0.061-1.617-0.708-1.955c-1.265-0.66-2.643-1.11-3.99-1.603c-0.222-0.081-0.538,0.025-0.789,0.11   c-0.723,0.244-1.176,0.751-1.309,1.509C26.755,38.249,27.127,38.674,27.608,39.087z"/><path fill="none" d="M76.125,53.933c0.127-0.96-0.363-1.716-1.163-2.147c-1.536-0.832-3.191-1.209-4.906-1.041   c-0.329,0.679-0.599,1.235-0.871,1.795c0.555,0.446,1.009,0.936,1.566,1.233c1.124,0.602,2.302,1.1,3.654,1.731   C75.047,55.299,75.977,55.049,76.125,53.933z"/><path fill="none" d="M47.118,62.797c-0.036-0.973-0.378-1.461-1.175-1.885c-3.111-1.663-6.195-3.376-9.293-5.063   c-0.171-0.092-0.379-0.117-0.566-0.172c-0.755,2.296-1.549,4.457-3.747,5.676c-0.253,4.969-0.506,9.95-0.757,14.868   c5.298,3.631,10.532,7.218,15.86,10.872c0.503-4.243,0.567-8.252,0.331-12.269C47.537,70.815,47.263,66.809,47.118,62.797z"/><path fill="none" d="M34.518,36.112c0.535-0.046,1.101,0.003,1.596-0.161c0.687-0.227,1.218-0.71,1.285-1.509   c0.059-0.719-0.442-1.208-0.997-1.294c-1.91-0.299-3.839-0.495-5.768-0.637c-0.324-0.024-0.864,0.351-0.972,0.658   c-0.104,0.296,0.132,0.818,0.374,1.111C31.194,35.677,32.768,36.109,34.518,36.112z"/><path fill="none" d="M24.799,58.672c-0.361-0.768-0.74-1.53-1.045-2.321c-0.305-0.791-0.43-1.665-0.813-2.41   c-0.472-0.919-0.634-1.793-0.416-2.81c0.19-0.885,0.201-1.809,0.294-2.755c-3.295-1.692-6.267-3.771-9.777-5.197   c0.1,2.146,0.19,4.088,0.281,6.028c0.234,4.981,0.493,9.959,0.679,14.94c0.035,0.948,0.443,1.458,1.197,1.917   c2.777,1.691,5.525,3.431,8.289,5.144c0.256,0.16,0.552,0.254,0.843,0.384c0.521-1.911,1.29-9.866,1.077-11.687   C25.358,59.477,24.995,59.09,24.799,58.672z"/><path fill="none" d="M54.913,65.553c-2.088-1.005-4.168-2.027-6.345-3.087c0,1.546-0.093,2.902,0.016,4.243   c0.498,6.108,0.835,12.212,0.275,18.337c-0.073,0.806-0.09,1.626-0.043,2.435c0.019,0.333,0.184,0.763,0.433,0.963   c1.771,1.414,3.58,2.778,5.557,4.298c0.022-0.635,0.033-1.152,0.059-1.667c0.125-2.543,0.108-5.103,0.409-7.625   c0.666-5.573,0.344-11.149,0.318-16.726C55.589,66.182,55.424,65.798,54.913,65.553z"/><path fill="none" d="M89.836,37.813c0.179-1.609,0.427-3.211,0.64-4.816c0.214-1.607,0.631-3.22,0.584-4.819   c-0.068-2.315-0.523-4.617-0.714-6.932c-0.103-1.254-0.711-2.166-1.635-2.864c-1.034-0.782-2.135-1.487-3.262-2.13   c-1.474-0.842-2.968-0.64-4.283,0.338c-1.561,1.163-3.078,2.394-4.533,3.687c-3.131,2.781-6.474,4.918-11.063,4.026   c-0.662,1.456-1.318,2.901-1.951,4.294c2.259,1.255,4.403,2.311,6.408,3.586c5.764,3.666,11.468,7.426,17.204,11.136   c1.31,0.847,2.652,1.641,4.044,2.499c0.159-0.341,0.221-0.545,0.338-0.712c0.891-1.281,0.696-2.351-0.445-3.424   C90.085,40.661,89.672,39.296,89.836,37.813z"/><path fill="none" d="M52.544,54.886c1.77,0.266,3.576,0.345,5.286-0.391c0.903-0.389,1.539-1.293,1.418-1.993   c-0.149-0.871-0.863-1.291-1.596-1.43c-1.159-0.22-2.355-0.271-3.538-0.347c-1.532-0.1-2.763,0.438-3.552,1.829   C50.971,53.543,51.314,54.701,52.544,54.886z"/><path fill="none" d="M91.086,47.804c-11.159,6.394-22.353,12.721-33.915,17.927c0,4.669,0.181,9.121-0.05,13.552   c-0.235,4.49-0.833,8.962-0.775,13.757c2.968-1.829,5.722-3.447,8.396-5.19c7.825-5.099,15.612-10.257,23.433-15.361   c0.712-0.464,1.003-0.971,1.076-1.822c0.343-3.948,0.786-7.888,1.166-11.833c0.351-3.666,0.667-7.335,0.999-11.005   C91.291,47.817,91.161,47.762,91.086,47.804z M81.524,67.657c-4.247,2.49-8.507,4.973-13.219,6.543   c-0.812,0.27-1.554,0.757-2.314,1.171c-1.617,0.878-2.853,0.781-3.84-0.327c-1.072-1.204-1.159-3.008-0.216-4.348   c1.071-1.52,2.622-2.465,4.248-3.182c1.828-0.808,2.739-1.997,2.528-4.002c-0.071-0.677,0.265-1.141,0.842-1.444   c0.716-0.376,1.42-0.78,2.161-1.098c1.094-0.47,2.233-0.835,3.32-1.32c0.912-0.406,1.711-0.378,2.323,0.44   c0.534,0.714,1.124,0.663,1.861,0.408c0.763-0.263,1.556-0.467,2.353-0.604c2.044-0.347,3.257,0.682,3.27,2.718   C84.828,65.005,83.397,66.558,81.524,67.657z"/><path fill="none" d="M56.475,62.874c-1.185-0.114-2.39-0.04-3.587-0.04c0.597,0.671,1.302,1.02,1.94,1.465   c1.012,0.704,1.883,0.551,2.978-0.515C57.286,63.413,56.903,62.916,56.475,62.874z"/><path fill="none" d="M82.066,61.158c-0.695,0.069-1.403,0.22-2.053,0.471c-1.508,0.583-2.861,0.657-3.908-0.981   c-1.17,0.47-2.176,0.865-3.176,1.277c-1.041,0.429-2.076,0.874-3.017,1.269c-0.113,1.131-0.215,2.048-0.292,2.964   c-0.076,0.905-0.536,1.466-1.373,1.834c-1.041,0.458-2.082,0.949-3.038,1.56c-0.81,0.518-1.577,1.155-2.222,1.867   c-0.664,0.732-0.521,1.935,0.142,2.682c0.557,0.63,1.141,0.649,2.211,0.109c0.918-0.463,1.813-1.009,2.779-1.337   c4.554-1.541,8.638-4.021,12.785-6.361c1.48-0.835,2.674-2.085,2.59-4.031C83.454,61.539,82.987,61.065,82.066,61.158z"/><path fill="none" d="M69.701,54.804c-0.091-0.661-0.413-1.131-1.088-1.253c-0.743-0.134-1.498-0.21-2.179-0.3   c-0.783,0.087-1.484,0.153-2.18,0.248c-0.266,0.036-0.539,0.105-0.782,0.218c-1.15,0.536-1.382,1.776-0.465,2.419   c1.326,0.932,4.626,0.992,5.947,0.152C69.526,55.922,69.793,55.477,69.701,54.804z"/><path fill="none" d="M42.673,35.156c0.478,0.939,0.88,1.73,1.31,2.574c1.131-0.367,2.275-0.737,3.419-1.109   c-0.012-0.149-0.024-0.298-0.035-0.446C45.951,35.338,44.484,34.723,42.673,35.156z"/><path fill="none" d="M42.718,42.865c0.472,0.029,0.934,0.057,1.393,0.085c0.276-0.545,0.513-1.013,0.643-1.269   c-0.658-0.608-1.236-1.142-1.929-1.781c-0.068,0.043-0.457,0.29-0.9,0.57C42.195,41.286,42.444,42.036,42.718,42.865z"/><path fill="none" d="M38.73,35.103c-0.624,0.676-1.203,1.306-1.885,2.045c0.738,1.588,2.198,2.251,4.315,1.986   c0.579-0.072,1.043-0.255,1.245-0.864c0.205-0.616,0.171-1.168-0.308-1.654C41.153,35.659,40.102,34.958,38.73,35.103z"/><path fill="none" d="M45.5,38.208c-0.814,0.236-1.164,0.879-0.964,1.438c0.217,0.606,1.013,1.076,1.675,0.955   c1.365-0.248,2.727-0.514,4.365-0.824c-0.138-0.359-0.169-0.848-0.403-0.981C48.712,37.961,47.123,37.739,45.5,38.208z"/><path fill="none" d="M41.089,55.915c0.293-1.239,0.523-2.21,0.79-3.343c-2.117,0.733-4.265,0.295-6.418-0.247   c-0.213-0.054-0.536,0.331-1.065,0.684c1.994,1.122,3.705,2.143,5.481,3.037C40.246,56.232,40.852,55.947,41.089,55.915z"/><path fill="none" d="M53.012,41.264c0.685,1.458,0.337,2.717-0.326,3.921c1.077,0.387,2.029,0.729,2.977,1.069   c0.45-0.223,0.88-0.444,1.317-0.652c1.493-0.708,1.769-2.123,0.522-3.2C56.262,41.332,54.774,41,53.012,41.264z"/><path fill="none" d="M51.489,40.655c1.447-0.347,2.548-0.613,4.011-0.964c-1.785-1.299-3.303-2.267-5.342-2.249   C51.555,38.032,51.86,39.126,51.489,40.655z"/><path fill="none" d="M47.556,58.146c-0.565-0.852-1.28-0.46-1.867-0.575c-0.681-0.134-1.363-0.265-2.047-0.38   c-0.572-0.098-1.069-0.725-1.994-0.175c1.635,0.904,3.097,1.712,4.625,2.558C46.752,59.04,47.161,58.586,47.556,58.146z"/><path fill="none" d="M60.154,62.848c-1.089-0.819-1.089-0.819-1.859,0.117C59.007,63.996,59.49,63.106,60.154,62.848z"/><path fill="none" d="M61.876,56.866c-0.691-0.867-0.558-2.305-1.863-2.527c-1.305,0.697-2.383,1.275-3.527,1.885   c0.047,0.473,0.3,0.834,0.997,0.856c0.533,0.016,1.132,0.044,1.578,0.291C60.164,57.978,60.995,57.57,61.876,56.866z"/><path fill="none" d="M62.267,61.686c1.639-0.69,3.217-1.531,4.783-2.38c0.228-0.123,0.379-0.619,0.344-0.918   c-0.026-0.214-0.403-0.511-0.655-0.547c-0.638-0.09-1.311,0.039-1.938-0.083c-1.542-0.3-2.862,0.158-4.096,0.919   c-0.104,0.925-0.198,1.768-0.328,2.941C61.039,61.655,61.751,61.904,62.267,61.686z"/><path fill="none" d="M52.622,61.642c0.706-0.544,1.343-1.239,1.069-2.201c-0.126-0.445-0.586-0.958-1.017-1.123   c-1.618-0.624-4.003,0.176-5.379,1.769c1.094,0.626,2.174,1.218,3.228,1.854C51.323,62.424,52.004,62.119,52.622,61.642z"/><path fill="none" d="M55.605,57.349c-0.454-1.182-0.457-1.155-1.281-1.272c-1.042-0.146-2.077-0.344-3.139-0.525   c-0.73,0.594-1.54,1.254-2.4,1.955c1.747-0.274,3.419-0.615,5.121,0.073C54.358,57.764,55.012,57.445,55.605,57.349z"/><path fill="none" d="M58.57,61.254c0.859-0.493,1.074-0.988,0.919-1.863c-0.155-0.878-0.818-1.144-1.531-1.152   c-1.009-0.011-2.019,0.138-2.971,0.214c-0.227,1.295-0.396,2.263-0.576,3.289C55.865,61.791,57.271,62.002,58.57,61.254z"/><path d="M92.669,41.529c-1.045-0.957-1.585-2.212-1.44-3.658c0.146-1.452,0.379-2.895,0.564-4.343   c0.234-1.823,0.699-3.657,0.629-5.469c-0.103-2.695-0.579-5.376-0.924-8.06c-0.046-0.365-0.164-0.781-0.392-1.053   c-1.827-2.168-4.038-3.825-6.858-4.374c-2.44-0.476-4.928-0.705-7.393-1.051c-4.779-0.672-9.553-1.369-14.335-2.018   c-2.096-0.285-4.222-0.379-6.304-0.733c-4.863-0.826-9.715-1.722-14.558-2.655c-4.9-0.944-9.792-1.938-14.673-2.972   c-1.701-0.361-3.064-0.033-4.569,0.933c-3.161,2.027-6.557,3.6-10.459,3.661c-0.599,0.009-1.341,0.236-1.759,0.634   c-1.005,0.956-1.858,2.072-2.924,3.298c1.509,1.11,2.797,2.173,4.194,3.064c5.822,3.714,12.114,6.537,18.326,9.5   c2.148,1.025,4.434,1.759,6.644,2.66c0.934,0.381,1.834,0.849,3.04,1.413c-2.703,0.86-4.999,1.521-7.527,1.069   c-2.286-0.409-3.113,0.227-3.882,2.551c-0.771,0.184-1.611,0.381-2.448,0.587c-6.002,1.482-12,2.977-18.008,4.433   c-0.689,0.167-1.052,0.51-1.15,1.169c-0.079,0.534-0.178,1.074-0.172,1.611c0.056,4.724,0.069,9.45,0.236,14.17   c0.069,1.939,0.474,3.868,0.746,5.799c0.095,0.675,0.435,1.192,1.045,1.561c1.207,0.729,2.381,1.513,3.575,2.263   c11.853,7.46,23.835,14.718,35.159,22.988c2.588,1.891,5.281,3.638,7.487,5.993c0.611,0.65,1.193,0.613,1.876,0.196   c2.315-1.411,4.683-2.742,6.945-4.235c8.699-5.738,17.361-11.534,26.052-17.285c0.82-0.543,1.099-1.236,1.184-2.165   c0.349-3.838,0.787-7.668,1.123-11.505c0.364-4.162,0.636-8.332,0.993-12.495c0.058-0.685,0.217-1.421,0.547-2.011   C94.022,43.634,93.81,42.574,92.669,41.529z M80.231,15.307c-0.014,0.283,0.019,0.424-0.029,0.462   c-2.36,1.895-4.66,3.873-7.122,5.625c-1.159,0.825-2.605,1.285-3.971,1.768c-0.634,0.224-1.419,0.256-2.08,0.115   c-1.824-0.388-3.619-0.914-5.441-1.614c0.82-0.218,1.647-0.409,2.457-0.658c2.15-0.659,4.086-1.642,5.663-3.336   c1.1-1.182,2.409-2.169,3.961-3.541C75.499,14.456,77.876,14.884,80.231,15.307z M57.567,22.225   c2.355,0.553,4.554,1.07,7.011,1.646c-0.683,1.501-1.26,2.769-1.901,4.177c-2.238-0.644-4.396-1.265-6.688-1.924   C56.515,24.826,57.012,23.596,57.567,22.225z M55.107,25.786c-2.263-0.113-13.877-3.222-16.201-4.31   c0.315-0.907,0.631-1.816,0.978-2.816c5.467,1.157,10.945,2.317,16.581,3.51C55.989,23.437,55.541,24.631,55.107,25.786z    M30.391,6.871c5.368,1.077,10.753,2.067,16.127,3.119c2.498,0.49,4.964,1.174,7.477,1.554c3.537,0.534,7.109,0.83,10.657,1.298   c2.29,0.302,4.564,0.728,6.921,1.111c-2.759,3.763-6.212,6.132-10.867,6.76c-2.192,0.296-4.269,0.235-6.415-0.229   c-4.398-0.953-8.825-1.768-13.236-2.665c-0.685-0.139-1.403-0.304-2.003-0.64c-2.705-1.519-5.716-1.979-8.679-2.61   c-3.128-0.666-6.26-1.316-9.389-1.98c-0.241-0.051-0.471-0.158-1.014-0.346c0.604-0.269,0.913-0.429,1.237-0.547   c2.628-0.959,5.071-2.239,7.012-4.294C28.885,6.7,29.514,6.696,30.391,6.871z M27.888,15.297c-0.365,0.991-0.731,1.984-1.166,3.168   c-4.138-1.174-8.373-2.376-12.777-3.625c0.588-1.008,1.048-1.798,1.553-2.663C19.654,13.223,23.77,14.26,27.888,15.297z    M15.552,10.297c2.736-0.891,5.472-1.808,7.801-3.552c1.359-1.018,2.655-0.857,4.132-0.279c-1.823,2.225-4.283,3.211-6.714,4.281   c-2.009,0.885-3.952,0.936-6.078-0.089C15.04,10.511,15.289,10.383,15.552,10.297z M9.009,13.229   c2.401-2.911,1.589-2.772,5.525-1.413c-0.534,0.935-1.047,1.834-1.628,2.85C11.576,14.176,10.38,13.735,9.009,13.229z    M28.741,24.159c-1.707-0.187-14.617-6.853-16.379-8.663c5.731,1.623,11.462,3.246,17.262,4.888   C29.301,21.766,29.021,22.964,28.741,24.159z M28.003,17.673c0.686-1.742,1.351-2.295,2.813-1.985   c2.051,0.433,4.101,0.96,6.072,1.667c1.997,0.717,2.041,1.085,0.975,3.446c-1.079-0.232-2.102-0.451-3.205-0.688   c0.132-1.147,0.22-2.135-0.991-2.572c-1.661-0.599-2.364-0.437-3.629,1.055C29.389,18.302,28.691,17.986,28.003,17.673z    M29.8,23.946c0.55-1.894,1.084-3.735,1.653-5.697c0.857,0.132,1.508,0.233,2.324,0.359c-0.45,1.821-0.768,3.453-1.27,5.027   C32.125,24.836,31.632,24.873,29.8,23.946z M33.759,26.57c-0.498-0.202-0.984-0.436-1.313-0.583   c0.655-1.526,1.277-2.978,1.984-4.626c1.574,0.501,3.195,1.067,4.845,1.534c4.432,1.252,8.876,2.466,13.317,3.687   c2.611,0.719,5.272,1.29,7.825,2.177c2.082,0.724,4.158,1.621,6.025,2.783c6.769,4.213,13.446,8.573,20.165,12.868   c1.131,0.723,2.29,1.401,3.544,2.166c-0.727,0.747-1.424,0.69-2.216,0.471c-3.291-0.91-6.607-1.729-9.891-2.663   c-4.28-1.218-8.466-2.697-12.441-4.732c-1.156-0.592-2.381-1.048-3.57-1.575c-2.577-1.141-5.136-2.325-7.732-3.419   c-1.896-0.799-3.841-1.479-5.764-2.214c-1.468-0.561-2.942-1.103-4.401-1.686C40.673,29.374,37.216,27.971,33.759,26.57z    M41.42,31.328c0.481-0.074,1.037,0.226,1.539,0.409c2.748,1.002,5.498,2.002,8.233,3.041c1.824,0.694,3.649,1.397,5.431,2.19   c6.139,2.736,12.135,5.817,18.57,7.842c2.066,0.65,4.195,1.102,6.295,1.643c1.733,0.448,3.468,0.891,5.198,1.348   c0.191,0.05,0.361,0.178,0.782,0.391c-1.955,1.116-3.721,2.123-5.5,3.138c-1.296-1.384-2.906-1.997-4.593-2.477   c-0.455-0.129-0.976-0.249-1.308-0.55c-0.866-0.784-1.766-1.417-2.962-1.583c-0.263-0.037-0.615-0.31-0.707-0.556   c-0.47-1.258-1.537-1.646-2.675-1.852c-1.275-0.229-2.574-0.327-3.956-0.494c-2.082-2.505-3.907-2.988-6.821-1.749   c-0.881-0.553-1.747-1.098-2.676-1.681c0.24-1.225-0.524-1.887-1.501-2.515c-1.837-1.181-3.782-1.853-5.972-1.663   c-1.947-1.952-4.178-2.781-6.89-1.78c-0.146,0.054-0.339,0.129-0.463,0.078c-1.372-0.569-3.173-0.375-3.928-2.291   C38.828,31.907,40.111,31.531,41.42,31.328z M25.615,44.325c1.871,1.246,2.621,2.959,1.842,4.551   c-2.287-0.873-4.541-1.829-6.738-3.192C21.8,44.223,24.471,43.564,25.615,44.325z M19.401,44.914   c-0.742-0.403-1.653-0.837-2.501-1.372c-0.7-0.441-0.701-1.299-0.084-1.741c1.366-0.979,4.062-0.376,4.942,1.112   C20.97,43.582,20.279,44.168,19.401,44.914z M22.462,41.458c-0.008-0.884,1.099-1.818,2.341-1.829   c0.819-0.007,1.767-0.18,2.364,0.867c-1.395,0.172-1.829,1.216-2.169,2.399C23.399,42.817,22.469,42.254,22.462,41.458z    M26.953,44.125c-0.427-0.514-0.818-1.026-0.538-1.755c0.257-0.67,0.843-0.81,1.446-0.853c0.587-0.042,1.186-0.042,1.771,0.022   c1.071,0.117,2.135,0.295,3.353,0.47c0.521,0.816,1.247,1.647,0.592,2.65c-0.613,0.939-1.679,1.133-2.728,1.132   C29.328,45.787,27.968,45.347,26.953,44.125z M30.969,47.291c-0.664,0.074-1.383,0.563-2.092-0.21   C29.713,46.684,30.34,47.053,30.969,47.291z M29.717,48.494c1.483-0.242,2.765,0.26,3.908,1.127   c0.872,0.66,0.796,1.536-0.251,2.731c-1.629-0.962-3.192-1.887-4.725-2.793C28.676,48.772,29.142,48.588,29.717,48.494z    M31.963,47.252c1.157-0.816,2.06-1.453,3.102-2.188c0.743,0.819,2.481,0.532,2.951,2.242c-0.887,0.621-1.836,1.284-2.784,1.949   C34.187,48.615,33.149,47.979,31.963,47.252z M34.758,40.06c0.478-0.686,1.392-0.881,2.159-0.604   c1.007,0.362,2.02,0.71,3.029,1.067c0.92,0.325,1.53,1.464,1.428,2.659c-0.085,0.999-0.664,1.529-1.846,1.665   c-0.267,0.03-0.539,0.004-1.048,0.004c-2.064,0.351-3.177-1.23-4.283-2.803C33.588,41.183,34.357,40.637,34.758,40.06z    M34.551,37.405c0.697-0.222,1.229-0.197,1.355,0.77C35.123,38.564,34.666,38.384,34.551,37.405z M70.381,48.372   c-0.654,0.458-1.393,0.697-2.135,0.284c-1.427-0.795-2.961-0.986-4.656-1.185c0.472-0.319,0.992-0.587,1.403-0.971   c0.419-0.391,0.731-0.895,1.21-1.5c1.176-0.104,2.496,0.12,3.79,0.509c0.631,0.19,1.237,0.46,1.311,1.259   C71.374,47.519,70.929,47.988,70.381,48.372z M75.129,48.813c-0.205,0.227-0.398,0.439-0.59,0.653   c-0.175,0.196-0.349,0.393-0.59,0.666c-0.91-0.169-1.839-0.342-2.792-0.519C72.403,47.607,73.152,47.443,75.129,48.813z    M61.718,51.199c0.606-0.733,1.17-1.435,1.76-2.115c0.128-0.147,0.345-0.283,0.534-0.305c1.448-0.165,2.834,0.058,3.959,1.032   c0.354,0.308,0.712,0.969,0.613,1.35c-0.109,0.413-0.718,0.929-1.16,0.983C65.455,52.387,63.438,52.636,61.718,51.199z    M62.238,52.97c-0.214,0.318-0.435,0.648-0.737,1.094c-0.525-0.321-0.887-0.544-1.218-0.747c0-0.598,0-1.125,0-1.833   C60.984,52.016,61.562,52.456,62.238,52.97z M64.518,45.384c-0.371,0.766-1.605,1.116-2.523,0.761   c-0.847-0.327-1.717-0.599-2.703-0.939c0.056-0.757,0.108-1.453,0.168-2.261c1.458-0.55,2.844-0.495,4.159,0.355   C64.369,43.786,64.783,44.837,64.518,45.384z M61.547,47.113c1.213,0.696,1.306,1.706,0.194,2.578   c-1.001,0.784-2.055,1.376-3.393,0.548c-0.571-0.353-1.304-0.444-2.018-0.671c0.027-0.466,0.055-0.888,0.075-1.311   c0.06-1.27,0.344-1.65,1.531-1.786C59.191,46.328,60.428,46.47,61.547,47.113z M46.223,45.167c0.531,0.547,0.48,1.096-0.199,1.466   c-1.304,0.713-2.729,1.012-4.213,0.923c-0.588-0.035-1.189-0.131-1.744-0.318c-0.459-0.155-0.859-0.485-1.286-0.738   c1.492-0.504,2.63-0.879,3.546-2.002c0.749-0.918,1.91-0.357,2.866-0.099C45.58,44.503,45.926,44.86,46.223,45.167z M45.294,42.965   c0.414-1.2,1.328-1.468,2.291-1.737c1.261-0.353,2.455-0.227,3.646,0.26c0.672,0.275,1.072,0.761,1.081,1.471   c0.009,0.763-0.313,1.402-1.114,1.598c-0.942,0.229-1.899,0.414-2.86,0.545c-0.277,0.037-0.642-0.109-0.874-0.29   C46.743,44.248,46.067,43.629,45.294,42.965z M49.691,50.106c0.127,0.3-0.005,0.901-0.243,1.118   c-0.331,0.3-0.861,0.441-1.328,0.525c-1.408,0.251-2.666-0.317-3.91-0.858c-0.215-0.093-0.406-0.353-0.505-0.58   c-0.232-0.535-0.402-1.097-0.615-1.699c0.948-0.175,1.743-0.322,2.538-0.469C46.73,47.941,49.267,49.101,49.691,50.106z    M39.746,48.402c1.612-0.048,2.286,0.915,2.883,2.094c-1.387,1.718-4.64,1.819-7.381,0.111   C36.408,48.947,37.915,48.457,39.746,48.402z M42.939,53.565c0.796-0.802,1.743-1.209,2.932-0.995   c0.839,0.152,1.705,0.194,2.56,0.208c0.839,0.015,1.304,0.484,1.579,1.174c0.275,0.688,0.011,1.382-0.804,1.718   c-0.928,0.384-1.938,0.569-2.832,0.82c-1.107-0.271-2.08-0.411-2.973-0.754C42.301,55.314,42.127,54.383,42.939,53.565z    M47.767,47.165c0.45-0.202,0.847-0.412,1.266-0.562c1.711-0.613,3.416-0.383,5.068,0.193c1.031,0.359,1.378,1.018,1.215,1.831   c-0.179,0.886-0.885,0.987-1.599,1.069c-0.429,0.05-0.867,0.053-1.285,0.145c-0.416,0.092-0.813,0.269-1.042,0.347   C50.104,49.116,49.009,48.203,47.767,47.165z M54.114,50.724c1.183,0.076,2.379,0.126,3.538,0.347   c0.733,0.139,1.447,0.56,1.596,1.43c0.121,0.7-0.515,1.604-1.418,1.993c-1.709,0.736-3.515,0.657-5.286,0.391   c-1.23-0.185-1.573-1.342-1.982-2.332C51.351,51.162,52.582,50.625,54.114,50.724z M56.979,45.602   c-0.437,0.207-0.867,0.429-1.317,0.652c-0.948-0.34-1.9-0.682-2.977-1.069c0.663-1.204,1.012-2.463,0.326-3.921   c1.762-0.263,3.251,0.068,4.49,1.139C58.748,43.479,58.472,44.895,56.979,45.602z M51.489,40.655   c0.371-1.529,0.067-2.622-1.33-3.213c2.039-0.018,3.557,0.95,5.342,2.249C54.037,40.042,52.935,40.308,51.489,40.655z    M50.173,38.796c0.234,0.133,0.264,0.622,0.403,0.981c-1.639,0.31-3,0.576-4.365,0.824c-0.662,0.12-1.458-0.349-1.675-0.955   c-0.2-0.559,0.149-1.202,0.964-1.438C47.123,37.739,48.712,37.961,50.173,38.796z M43.982,37.729   c-0.43-0.844-0.832-1.634-1.31-2.574c1.811-0.433,3.278,0.182,4.693,1.018c0.012,0.148,0.024,0.298,0.035,0.446   C46.257,36.992,45.113,37.363,43.982,37.729z M42.825,39.9c0.692,0.639,1.27,1.173,1.929,1.781   c-0.13,0.257-0.367,0.724-0.643,1.269c-0.459-0.028-0.921-0.056-1.393-0.085c-0.275-0.83-0.523-1.579-0.793-2.396   C42.368,40.189,42.757,39.943,42.825,39.9z M42.406,38.271c-0.203,0.609-0.666,0.792-1.245,0.864   c-2.117,0.265-3.577-0.398-4.315-1.986c0.681-0.739,1.261-1.369,1.885-2.045c1.372-0.145,2.423,0.556,3.367,1.513   C42.577,37.103,42.611,37.655,42.406,38.271z M35.461,52.325c2.153,0.542,4.301,0.98,6.418,0.247   c-0.267,1.133-0.498,2.104-0.79,3.343c-0.237,0.032-0.843,0.317-1.212,0.131c-1.776-0.894-3.487-1.916-5.481-3.037   C34.924,52.656,35.248,52.271,35.461,52.325z M43.641,57.191c0.684,0.116,1.366,0.247,2.047,0.38   c0.587,0.114,1.303-0.277,1.867,0.575c-0.395,0.44-0.804,0.894-1.284,1.428c-1.529-0.846-2.99-1.654-4.625-2.558   C42.572,56.466,43.069,57.093,43.641,57.191z M52.674,58.318c0.43,0.165,0.89,0.678,1.017,1.123   c0.274,0.962-0.363,1.656-1.069,2.201c-0.617,0.477-1.298,0.781-2.099,0.299c-1.055-0.635-2.134-1.228-3.228-1.854   C48.671,58.495,51.056,57.694,52.674,58.318z M48.786,57.508c0.86-0.701,1.67-1.362,2.4-1.955c1.062,0.181,2.097,0.379,3.139,0.525   c0.823,0.117,0.827,0.09,1.281,1.272c-0.593,0.095-1.247,0.415-1.698,0.232C52.205,56.893,50.532,57.234,48.786,57.508z    M54.988,58.452c0.952-0.076,1.962-0.225,2.971-0.214c0.713,0.008,1.375,0.274,1.531,1.152c0.155,0.875-0.06,1.37-0.919,1.863   c-1.299,0.748-2.705,0.537-4.159,0.488C54.592,60.715,54.761,59.747,54.988,58.452z M60.154,62.848   c-0.664,0.258-1.147,1.148-1.859,0.117C59.064,62.029,59.064,62.029,60.154,62.848z M59.062,57.37   c-0.446-0.247-1.046-0.274-1.578-0.291c-0.696-0.022-0.949-0.383-0.997-0.856c1.143-0.611,2.221-1.188,3.527-1.885   c1.305,0.222,1.171,1.661,1.863,2.527C60.995,57.57,60.164,57.978,59.062,57.37z M60.706,58.678   c1.234-0.761,2.554-1.22,4.096-0.919c0.627,0.121,1.3-0.007,1.938,0.083c0.252,0.036,0.629,0.334,0.655,0.547   c0.035,0.299-0.116,0.795-0.344,0.918c-1.567,0.849-3.145,1.69-4.783,2.38c-0.517,0.218-1.229-0.032-1.889-0.068   C60.509,60.446,60.603,59.603,60.706,58.678z M63.007,56.135c-0.916-0.642-0.684-1.882,0.465-2.419   c0.243-0.113,0.516-0.182,0.782-0.218c0.696-0.095,1.397-0.161,2.18-0.248c0.681,0.091,1.436,0.167,2.179,0.3   c0.674,0.121,0.997,0.591,1.088,1.253c0.093,0.672-0.175,1.118-0.747,1.483C67.633,57.128,64.333,57.067,63.007,56.135z    M70.681,54.746c0.915,0.453,1.593,0.788,2.533,1.253c-1.469,1.045-2.827,1.65-4.164,2.271c-0.227,0.105-0.654-0.219-1.288-0.456   C69.281,56.928,70.778,56.722,70.681,54.746z M70.75,53.773c-0.556-0.298-1.011-0.787-1.566-1.233   c0.272-0.56,0.542-1.116,0.871-1.795c1.715-0.167,3.37,0.209,4.906,1.041c0.799,0.431,1.29,1.187,1.163,2.147   c-0.147,1.116-1.078,1.366-1.72,1.571C73.053,54.873,71.874,54.376,70.75,53.773z M75.264,50.624   c0.014-0.147,0.028-0.296,0.041-0.444c0.483-0.083,0.973-0.263,1.448-0.233c1.487,0.098,3.071,0.854,4.152,1.964   c-1.091,0.613-2.138,1.2-3.306,1.858C77.179,52.331,76.675,51.13,75.264,50.624z M29.663,33.169   c0.108-0.307,0.648-0.682,0.972-0.658c1.929,0.142,3.858,0.338,5.768,0.637c0.555,0.086,1.056,0.576,0.997,1.294   c-0.067,0.799-0.598,1.282-1.285,1.509c-0.495,0.164-1.061,0.115-1.596,0.161c-1.75-0.003-3.325-0.435-4.482-1.831   C29.794,33.987,29.558,33.465,29.663,33.169z M26.872,37.579c0.132-0.758,0.586-1.265,1.309-1.509   c0.251-0.085,0.567-0.191,0.789-0.11c1.347,0.493,2.724,0.942,3.99,1.603c0.647,0.338,1.066,1.099,0.708,1.955   c-0.291,0.696-1.074,1.085-2.158,1.039c-1.313-0.193-2.731-0.466-3.902-1.47C27.127,38.674,26.755,38.249,26.872,37.579z    M26.32,35.562c-0.333,1.132-0.576,1.958-0.856,2.908c-1.586,0.037-3.116,0.468-3.89,1.96c-1.378-0.044-2.617-0.173-3.843-0.098   c-1.29,0.079-2.256,0.731-2.574,2.329c-1.757-0.855-3.424-1.666-5.467-2.66C15.348,38.124,20.76,36.956,26.32,35.562z    M8.543,61.648c-0.151-0.27-0.197-0.615-0.233-0.933c-0.173-1.561-0.423-3.123-0.469-4.69c-0.14-4.769-0.2-9.543-0.282-14.314   c-0.004-0.253,0.077-0.507,0.133-0.846c1.472,0.135,2.63,0.844,3.759,1.552c0.273,0.171,0.388,0.747,0.405,1.145   c0.14,3.195,0.246,6.394,0.35,9.592c0.117,3.624,0.22,7.249,0.328,10.858C11.894,63.876,8.81,62.125,8.543,61.648z M24.332,71.593   c-0.291-0.131-0.587-0.225-0.843-0.384c-2.764-1.713-5.511-3.453-8.289-5.144c-0.754-0.459-1.161-0.969-1.197-1.917   c-0.186-4.982-0.446-9.959-0.679-14.94c-0.091-1.94-0.181-3.882-0.281-6.028c3.51,1.426,6.482,3.505,9.777,5.197   c-0.093,0.947-0.104,1.871-0.294,2.755c-0.218,1.017-0.056,1.891,0.416,2.81c0.383,0.745,0.508,1.619,0.813,2.41   c0.305,0.791,0.684,1.553,1.045,2.321c0.196,0.418,0.559,0.805,0.609,1.233C25.622,61.728,24.853,69.682,24.332,71.593z    M30.631,75.762c-1.872-1.202-3.449-2.215-5.084-3.263c0.232-1.842,0.504-3.609,0.666-5.387c0.217-2.376,0.373-4.758,0.503-7.141   c0.047-0.865-0.077-1.663-0.871-2.323c-0.428-0.357-0.532-1.126-0.732-1.727c-0.236-0.71-0.29-1.51-0.651-2.14   c-0.514-0.896-0.81-1.724-0.498-2.763c0.166-0.553,0.098-1.176,0.136-1.769c1.764,0.158,6.904,2.866,10.639,5.591   c-0.007,1.039-0.029,2.106-0.889,2.949c-0.074,0.073-0.143,0.179-0.16,0.281c-0.242,1.375-1.166,1.976-2.483,2.089   C31.014,65.391,30.829,70.4,30.631,75.762z M47.44,87.092c-5.328-3.653-10.561-7.24-15.86-10.872   c0.251-4.918,0.503-9.899,0.757-14.868c2.197-1.22,2.992-3.38,3.747-5.676c0.188,0.055,0.396,0.08,0.566,0.172   c3.098,1.687,6.182,3.4,9.293,5.063c0.797,0.424,1.14,0.912,1.175,1.885c0.145,4.012,0.419,8.018,0.654,12.026   C48.007,78.84,47.943,82.849,47.44,87.092z M55.273,83.45c-0.301,2.522-0.284,5.082-0.409,7.625   c-0.025,0.515-0.036,1.032-0.059,1.667c-1.978-1.52-3.787-2.884-5.557-4.298c-0.249-0.2-0.414-0.63-0.433-0.963   c-0.046-0.809-0.03-1.629,0.043-2.435c0.56-6.124,0.223-12.229-0.275-18.337c-0.109-1.341-0.016-2.697-0.016-4.243   c2.177,1.06,4.257,2.082,6.345,3.087c0.511,0.245,0.676,0.628,0.678,1.171C55.617,72.302,55.939,77.877,55.273,83.45z    M54.828,64.299c-0.638-0.445-1.343-0.794-1.94-1.465c1.197,0,2.402-0.074,3.587,0.04c0.428,0.041,0.812,0.539,1.331,0.909   C56.711,64.85,55.839,65.003,54.828,64.299z M90.416,58.834c-0.379,3.945-0.822,7.885-1.166,11.833   c-0.073,0.85-0.364,1.357-1.076,1.822c-7.821,5.104-15.608,10.262-23.433,15.361c-2.674,1.743-5.428,3.361-8.396,5.19   c-0.058-4.796,0.54-9.268,0.775-13.757c0.232-4.43,0.05-8.883,0.05-13.552c11.563-5.206,22.757-11.533,33.915-17.927   c0.074-0.042,0.205,0.013,0.329,0.025C91.083,51.498,90.767,55.168,90.416,58.834z M91.613,45.104   c-0.116,0.167-0.178,0.371-0.338,0.712c-1.392-0.858-2.734-1.652-4.044-2.499c-5.736-3.71-11.44-7.47-17.204-11.136   c-2.005-1.275-4.149-2.331-6.408-3.586c0.633-1.393,1.289-2.837,1.951-4.294c4.589,0.892,7.932-1.244,11.063-4.026   c1.455-1.293,2.972-2.524,4.533-3.687c1.314-0.978,2.809-1.18,4.283-0.338c1.127,0.643,2.228,1.348,3.262,2.13   c0.923,0.698,1.532,1.61,1.635,2.864c0.191,2.315,0.646,4.617,0.714,6.932c0.046,1.599-0.371,3.213-0.584,4.819   c-0.213,1.605-0.461,3.207-0.64,4.816c-0.165,1.483,0.249,2.848,1.332,3.866C92.309,42.753,92.504,43.823,91.613,45.104z"/><path d="M81.571,59.894c-0.797,0.136-1.59,0.34-2.353,0.604c-0.737,0.255-1.327,0.306-1.861-0.408   c-0.612-0.817-1.411-0.846-2.323-0.44c-1.086,0.485-2.226,0.85-3.32,1.32c-0.741,0.318-1.446,0.722-2.161,1.098   c-0.577,0.303-0.913,0.768-0.842,1.444c0.212,2.005-0.7,3.194-2.528,4.002c-1.626,0.717-3.177,1.662-4.248,3.182   c-0.943,1.339-0.856,3.143,0.216,4.348c0.987,1.108,2.223,1.204,3.84,0.327c0.76-0.415,1.502-0.901,2.314-1.171   c4.712-1.57,8.972-4.053,13.219-6.543c1.873-1.098,3.305-2.651,3.317-5.045C84.828,60.576,83.615,59.547,81.571,59.894z    M80.904,66.513c-4.147,2.34-8.232,4.82-12.785,6.361c-0.967,0.328-1.861,0.874-2.779,1.337c-1.07,0.54-1.653,0.521-2.211-0.109   c-0.663-0.747-0.806-1.95-0.142-2.682c0.645-0.713,1.412-1.349,2.222-1.867c0.956-0.611,1.997-1.102,3.038-1.56   c0.837-0.368,1.296-0.929,1.373-1.834c0.077-0.916,0.18-1.833,0.292-2.964c0.941-0.396,1.975-0.841,3.017-1.269   c1-0.412,2.006-0.808,3.176-1.277c1.047,1.639,2.4,1.564,3.908,0.981c0.65-0.251,1.359-0.402,2.053-0.471   c0.922-0.092,1.388,0.382,1.429,1.324C83.578,64.428,82.385,65.678,80.904,66.513z"/></g><text x="0" y="115" fill="#000000" font-size="5px" font-weight="bold" font-family="'Helvetica Neue', Helvetica, Arial-Unicode, Arial, Sans-serif">Created by Valeriy</text><text x="0" y="120" fill="#000000" font-size="5px" font-weight="bold" font-family="'Helvetica Neue', Helvetica, Arial-Unicode, Arial, Sans-serif">from the Noun Project</text></svg>