<svg xmlns="http://www.w3.org/2000/svg" xmlns:xlink="http://www.w3.org/1999/xlink" version="1.1" x="0px" y="0px" viewBox="0 0 100 125" enable-background="new 0 0 100 100" xml:space="preserve"><g><path d="M23.265,62.596c1.758-1.605,3.763-2.644,5.889-3.661c0.118-0.056,0.034-0.237-0.087-0.206   c-2.304,0.594-4.315,2.033-5.992,3.678C22.951,62.528,23.138,62.712,23.265,62.596z"/><path d="M35.836,55.485c-2.55-0.026-5.169,1.156-7.378,2.339c-0.16,0.086-0.019,0.323,0.142,0.242   c2.371-1.197,4.768-1.608,7.264-2.378C35.974,55.655,35.955,55.487,35.836,55.485z"/><path d="M30.575,57.98c1.21-0.625,2.458-0.907,3.73-1.35c0.114-0.04,0.104-0.23-0.03-0.222c-1.339,0.078-2.67,0.711-3.826,1.356   C30.307,57.843,30.432,58.054,30.575,57.98z"/><path d="M24.434,64.288c-0.072,0.078,0.038,0.188,0.117,0.116c2.582-2.384,5.526-3.703,8.864-4.67   c0.124-0.036,0.106-0.248-0.032-0.234C29.905,59.868,26.778,61.764,24.434,64.288z"/><path d="M29.007,63.044c1.724-1.161,3.591-1.754,5.565-2.334c0.102-0.03,0.088-0.2-0.026-0.192   c-2.082,0.144-3.991,1.118-5.65,2.336C28.784,62.937,28.888,63.124,29.007,63.044z"/><path d="M31.45,63.548c1.517-0.97,3.17-1.2,4.828-1.786c0.109-0.038,0.102-0.229-0.029-0.216c-1.723,0.178-3.506,0.783-4.956,1.733   C31.127,63.389,31.281,63.657,31.45,63.548z"/><path d="M38.449,57.083c-1.12,0.045-2.247,0.391-3.303,0.742c-0.2,0.066-0.117,0.381,0.088,0.318   c1.072-0.33,2.172-0.502,3.252-0.79C38.632,57.313,38.606,57.076,38.449,57.083z"/><path d="M19.368,65.647c0.75-0.562,1.533-1.096,2.207-1.75c0.075-0.072-0.021-0.196-0.111-0.144   c-0.8,0.468-1.515,1.071-2.247,1.635C19.068,65.504,19.213,65.763,19.368,65.647z"/><path d="M94.977,47.711c-0.277-0.313-0.644-0.671-1.054-0.871c0.218-0.016,0.437-0.028,0.661-0.028   c0.039,0,0.034-0.053,0.003-0.063c-1.032-0.32-2.306-0.026-3.296,0.357c-0.569,0.22-1.1,0.544-1.549,0.956   c1.098-1.99,0.802-4.503-0.731-6.268c-0.075-0.086-0.224,0.008-0.151,0.101c0.048,0.06,0.088,0.122,0.133,0.183   c-0.446-0.271-1.017-0.413-1.432-0.322c-0.039,0.009-0.028,0.065,0.006,0.073c0.703,0.16,1.236,0.413,1.798,0.819   c0.096,0.17,0.185,0.341,0.261,0.515c-0.428-0.369-1.001-0.6-1.53-0.667c-0.093-0.012-0.111,0.113-0.026,0.14   c0.726,0.227,1.211,0.618,1.756,1.077c0.056,0.18,0.1,0.361,0.135,0.543c-0.375-0.523-0.958-0.947-1.482-1.113   c-0.075-0.024-0.134,0.098-0.068,0.142c0.393,0.262,0.773,0.529,1.082,0.89c0.242,0.283,0.387,0.609,0.564,0.922   c0.004,0.132,0.004,0.265-0.002,0.397c-0.22-0.508-0.589-0.969-1.015-1.268c-0.08-0.056-0.173,0.045-0.102,0.116   c0.546,0.54,0.835,1.107,1.043,1.803c-0.034,0.198-0.076,0.395-0.132,0.591c-0.032-0.195-0.081-0.384-0.137-0.546   c-0.19-0.55-0.538-1.029-1.035-1.334c-0.06-0.037-0.104,0.052-0.063,0.095c0.383,0.405,0.69,0.854,0.853,1.392   c0.125,0.412,0.086,0.792,0.087,1.19c-0.034,0.074-0.067,0.149-0.104,0.222c-0.008-0.77-0.306-1.581-0.715-2.124   c-0.047-0.063-0.137,0-0.1,0.067c0.284,0.52,0.47,1.083,0.499,1.677c0.014,0.288-0.025,0.548-0.078,0.807   c-0.006-0.553-0.221-1.129-0.483-1.577c-0.035-0.061-0.139-0.009-0.11,0.055c0.227,0.491,0.351,0.932,0.36,1.39   c-0.047-0.154-0.104-0.306-0.174-0.455c-0.039-0.271-0.141-0.549-0.236-0.778c-0.155-0.376-0.358-0.676-0.643-0.963   c-0.019-0.019-0.047,0.009-0.034,0.03c0.199,0.325,0.388,0.686,0.523,1.042c0.003,0.009,0.005,0.018,0.008,0.027   c-0.054-0.075-0.104-0.153-0.162-0.224c-0.102-0.189-0.24-0.37-0.34-0.532c-0.177-0.285-0.329-0.634-0.665-0.752   c-0.056-0.02-0.12,0.054-0.063,0.095c0.188,0.135,0.318,0.355,0.439,0.57c-0.046-0.037-0.09-0.08-0.137-0.114   c-0.309-0.501-0.942-0.887-1.456-1.027c-0.068-0.019-0.085,0.077-0.035,0.108c0.226,0.145,0.446,0.304,0.655,0.474   c-0.053-0.021-0.106-0.041-0.16-0.06c-0.409-0.34-0.978-0.52-1.482-0.561c-0.092-0.007-0.119,0.122-0.026,0.143   c0.21,0.047,0.397,0.116,0.576,0.194c-0.135-0.018-0.27-0.025-0.406-0.031c-0.193-0.093-0.42-0.134-0.624-0.169   c-0.318-0.055-0.632-0.055-0.939,0.053c-0.111,0.039-0.052,0.204,0.06,0.171c0.221-0.064,0.458-0.059,0.695-0.019   c-0.506,0.071-0.999,0.225-1.451,0.477c-0.067,0.037-0.01,0.144,0.059,0.118c0.527-0.195,1.066-0.311,1.599-0.331   c-0.68,0.296-1.275,0.87-1.79,1.34c-0.071,0.065,0.041,0.159,0.111,0.097c0.754-0.665,1.485-1.14,2.437-1.391   c0.198,0.031,0.393,0.074,0.585,0.138c-0.815,0.131-1.648,0.517-2.247,1.015c-0.078,0.065,0.001,0.189,0.089,0.133   c0.43-0.271,0.861-0.517,1.345-0.679c0.443-0.148,0.885-0.195,1.341-0.247c0.165,0.087,0.327,0.186,0.485,0.303   c0.037,0.028,0.067,0.057,0.103,0.086c-0.873-0.012-1.858,0.244-2.569,0.601c-0.081,0.04-0.01,0.157,0.067,0.134   c0.539-0.159,1.047-0.328,1.611-0.379c0.429-0.039,0.851-0.009,1.277-0.007c0.164,0.169,0.31,0.344,0.435,0.527   c-0.853-0.088-1.699,0.02-2.532,0.256c-0.07,0.02-0.032,0.121,0.037,0.106c0.897-0.206,1.799-0.172,2.699-0.03   c0.081,0.144,0.158,0.291,0.228,0.443c-0.719-0.117-1.448-0.071-2.166,0.056c-0.068,0.012-0.063,0.114,0.009,0.109   c0.786-0.065,1.548,0.045,2.314,0.191c0.064,0.15,0.127,0.303,0.191,0.461c-0.193-0.122-0.483-0.165-0.675-0.202   c-0.463-0.09-0.906-0.05-1.368,0.021c-0.099,0.015-0.09,0.166,0.012,0.157c0.495-0.045,1.007,0.042,1.48,0.193   c0.107,0.034,0.218,0.092,0.328,0.129c-2.604,0.974-5.02,2.254-7.183,4.032c-1.43,1.175-2.853,2.579-3.966,4.151   c-2.714-1.349-5.643-2.368-8.57-3.135c0.506-3.655,1.225-7.099,2.807-10.527c1.651-3.576,3.855-6.983,6.398-9.996   c0.005,0.001,0.009,0.002,0.014,0.003c-0.014,0.061-0.015,0.126,0.014,0.195c0.364,0.847,0.86,1.631,1.23,2.476   c0.066,0.152,0.32,0.041,0.266-0.112c-0.285-0.808-0.518-1.644-0.882-2.423c0.013,0.003,0.026,0.006,0.039,0.009   c0.747,0.99,1.27,2.115,1.441,3.351c0.027,0.192,0.356,0.145,0.338-0.046c-0.11-1.124-0.424-2.154-0.989-3.103   c0.242,0.068,0.479,0.144,0.713,0.224c0.254,0.691,0.714,1.302,0.962,2.013c0.297,0.855,0.449,1.742,0.47,2.647   c0.005,0.213,0.308,0.206,0.326,0c0.11-1.283-0.069-3.124-0.884-4.319c0.31,0.138,0.612,0.294,0.907,0.468   c0.131,0.533,0.342,1.05,0.455,1.591c0.189,0.901,0.261,1.811,0.201,2.729c-0.016,0.248,0.362,0.243,0.383,0   c0.099-1.107,0.154-2.559-0.21-3.754c0.01,0.008,0.02,0.016,0.03,0.024c0.407,0.901,0.733,1.676,0.782,2.753   c0.047,1.02-0.065,2.064-0.193,3.075c-0.023,0.184,0.284,0.221,0.32,0.043c0.278-1.372,0.66-3.218,0.287-4.74   c0.098,0.112,0.196,0.224,0.287,0.339c0.112,0.778,0.355,1.522,0.352,2.331c-0.005,1.025-0.109,2.103-0.287,3.108   c-0.027,0.151,0.193,0.217,0.234,0.064c0.292-1.085,0.778-2.572,0.731-3.9c0.638,1.289,0.947,2.706,0.982,4.233   c0.003,0.137,0.191,0.129,0.207,0c0.133-1.073,0.036-2.153-0.235-3.186c0.204,0.295,0.395,0.598,0.555,0.92   c0.101,0.203,0.391,0.025,0.301-0.176c-0.299-0.665-0.743-1.569-1.349-2.161c-0.006-0.013-0.013-0.025-0.018-0.038   c0.06,0.043,0.124,0.083,0.179,0.129c0.477,0.404,0.86,0.883,1.287,1.335c0.12,0.127,0.297-0.035,0.228-0.176   c-0.3-0.62-0.805-1.156-1.324-1.601c-0.262-0.225-0.566-0.482-0.893-0.673c-0.079-0.131-0.154-0.264-0.24-0.391   c0.561,0.259,1.06,0.612,1.547,0.989c0.162,0.126,0.363-0.066,0.227-0.227c-0.416-0.499-0.949-0.899-1.527-1.193   c-0.252-0.129-0.552-0.283-0.857-0.371c-0.165-0.194-0.339-0.381-0.519-0.56c0.056,0.016,0.115,0.024,0.17,0.043   c0.481,0.164,0.928,0.412,1.372,0.657c0.094,0.052,0.191-0.072,0.115-0.149c-0.561-0.565-1.472-1.073-2.324-1.148   c-0.149-0.12-0.306-0.228-0.462-0.337c0.651,0.107,1.266,0.285,1.921,0.602c0.124,0.06,0.281-0.108,0.158-0.204   c-0.827-0.648-1.959-1.04-3.022-0.971c-0.194-0.099-0.394-0.187-0.597-0.27c0.7,0.033,1.397,0.113,2.116,0.203   c0.141,0.018,0.136-0.181,0.03-0.225c-1.212-0.509-2.6-0.58-3.893-0.464c-0.007,0.001-0.012,0.004-0.019,0.006   c-0.206-0.03-0.413-0.056-0.625-0.068c0.038-0.032,0.077-0.059,0.115-0.09c0.426-0.019,0.854-0.125,1.285-0.123   c0.541,0.003,1.078,0.1,1.618,0.12c0.061,0.002,0.091-0.092,0.032-0.119c-0.532-0.246-1.07-0.312-1.65-0.332   c-0.205-0.007-0.423-0.013-0.641-0.009c0.142-0.092,0.286-0.178,0.43-0.258c0.378,0.031,0.774-0.03,1.154,0.017   c0.547,0.068,1.03,0.299,1.557,0.435c0.057,0.015,0.107-0.06,0.06-0.103c-0.397-0.362-1.161-0.677-1.879-0.762   c0.138-0.051,0.276-0.1,0.416-0.141c0.007,0.002,0.01,0.009,0.018,0.011c0.511,0.078,0.997,0.09,1.481,0.297   c0.468,0.2,0.886,0.493,1.302,0.782c0.085,0.059,0.175-0.07,0.107-0.138c-0.453-0.457-1.097-0.946-1.779-1.166   c0.161-0.015,0.323-0.026,0.486-0.028c0.009,0.029,0.027,0.054,0.059,0.069c0.988,0.487,2.054,0.951,2.707,1.9   c0.056,0.081,0.183,0.009,0.133-0.078c-0.325-0.565-0.584-0.999-1.12-1.394c-0.216-0.159-0.457-0.305-0.71-0.424   c0.266,0.04,0.534,0.102,0.802,0.175c0.282,0.297,0.664,0.524,0.945,0.825c0.365,0.391,0.733,0.892,0.966,1.375   c0.043,0.089,0.184,0.025,0.157-0.066c-0.175-0.59-0.387-1.062-0.799-1.531c-0.067-0.076-0.145-0.159-0.225-0.241   c0.301,0.127,0.602,0.269,0.904,0.435c0.094,0.052,0.203-0.079,0.117-0.152c-2.213-1.898-5.606-1.815-7.891-0.125   c0.017-0.049,0.03-0.101,0.047-0.149c0.35-0.216,0.656-0.537,1.005-0.743c0.622-0.369,1.285-0.54,1.968-0.749   c0.128-0.039,0.11-0.256-0.033-0.242c-0.702,0.067-1.404,0.291-2.042,0.59c-0.168,0.079-0.352,0.168-0.532,0.269   c0.127-0.268,0.268-0.526,0.418-0.776c0.946-0.368,1.781-0.648,2.841-0.617c0.178,0.005,0.166-0.248,0-0.269   c-0.779-0.098-1.673-0.037-2.439,0.265c0.131-0.182,0.27-0.358,0.414-0.53c0.513-0.112,0.998-0.3,1.535-0.344   c0.534-0.044,1.073-0.008,1.603,0.06c0.153,0.019,0.173-0.22,0.035-0.26c-0.75-0.214-1.747-0.292-2.595-0.077   c0.123-0.121,0.241-0.246,0.371-0.361c0.479-0.022,0.949-0.158,1.432-0.185c0.588-0.033,1.159,0.018,1.736,0.138   c0.116,0.024,0.164-0.146,0.049-0.179c-0.786-0.225-1.802-0.403-2.668-0.222c0.237-0.183,0.486-0.356,0.742-0.523   c0.418,0.023,0.818-0.002,1.242,0.07c0.402,0.069,0.801,0.172,1.194,0.279c0.15,0.041,0.196-0.169,0.062-0.225   c-0.563-0.235-1.271-0.473-1.936-0.475c0.276-0.159,0.556-0.314,0.85-0.456c0.052-0.025,0.011-0.092-0.036-0.085   c-1.557,0.235-3.044,1.429-4.102,2.56c-0.608,0.65-1.099,1.413-1.427,2.238c0.179-3.31-1.805-6.422-4.939-7.766   c-0.153-0.066-0.289,0.153-0.133,0.228c0.1,0.049,0.193,0.104,0.291,0.156c-0.757-0.073-1.598,0.104-2.085,0.486   c-0.046,0.036,0.005,0.103,0.054,0.092c1.024-0.237,1.884-0.242,2.88-0.066c0.234,0.162,0.46,0.33,0.67,0.511   c-0.796-0.213-1.695-0.153-2.432,0.095c-0.129,0.043-0.074,0.219,0.055,0.2c1.097-0.163,1.983,0.043,2.989,0.299   c0.187,0.2,0.36,0.41,0.522,0.627c-0.824-0.449-1.86-0.636-2.652-0.521c-0.113,0.016-0.114,0.214,0,0.229   c0.682,0.094,1.351,0.204,1.985,0.482c0.497,0.218,0.895,0.553,1.325,0.853c0.089,0.171,0.174,0.345,0.25,0.523   c-0.611-0.528-1.388-0.898-2.137-1.02c-0.141-0.023-0.199,0.169-0.06,0.217c1.059,0.363,1.799,0.924,2.514,1.705   c0.081,0.281,0.151,0.567,0.202,0.859c-0.166-0.236-0.35-0.452-0.527-0.63c-0.598-0.601-1.359-1.01-2.206-1.095   c-0.101-0.01-0.103,0.134-0.022,0.164c0.761,0.289,1.449,0.683,2.004,1.286c0.425,0.461,0.616,0.985,0.87,1.507   c0.003,0.119,0.006,0.238,0.004,0.358c-0.499-1.006-1.405-1.881-2.286-2.335c-0.102-0.053-0.18,0.087-0.089,0.152   c0.703,0.502,1.305,1.123,1.72,1.885c0.201,0.369,0.315,0.736,0.41,1.109c-0.359-0.723-1.007-1.342-1.635-1.764   c-0.085-0.057-0.188,0.077-0.11,0.142c0.609,0.501,1.052,1.001,1.355,1.597c-0.16-0.172-0.33-0.335-0.517-0.487   c-0.223-0.331-0.534-0.631-0.803-0.871c-0.443-0.396-0.899-0.66-1.456-0.857c-0.037-0.013-0.055,0.041-0.025,0.06   c0.467,0.301,0.945,0.654,1.348,1.036c0.01,0.01,0.018,0.021,0.028,0.03c-0.118-0.064-0.233-0.134-0.355-0.191   c-0.254-0.184-0.55-0.334-0.784-0.482c-0.414-0.262-0.835-0.623-1.35-0.565c-0.086,0.01-0.123,0.147-0.022,0.164   c0.333,0.058,0.644,0.265,0.938,0.469c-0.084-0.019-0.169-0.048-0.252-0.063c-0.724-0.462-1.8-0.567-2.563-0.425   c-0.102,0.019-0.062,0.154,0.022,0.164c0.389,0.047,0.778,0.116,1.16,0.206c-0.083,0.006-0.166,0.014-0.248,0.023   c-0.752-0.187-1.614-0.062-2.303,0.204c-0.125,0.048-0.079,0.235,0.056,0.204c0.306-0.071,0.595-0.099,0.879-0.111   c-0.188,0.062-0.37,0.139-0.552,0.218c-0.312-0.001-0.637,0.09-0.927,0.174c-0.452,0.13-0.865,0.33-1.199,0.666   c-0.121,0.122,0.061,0.3,0.187,0.187c0.249-0.224,0.564-0.367,0.901-0.466c-0.619,0.414-1.169,0.93-1.603,1.547   c-0.065,0.092,0.078,0.195,0.152,0.118c0.567-0.591,1.202-1.085,1.889-1.449c-0.705,0.821-1.122,1.952-1.5,2.896   c-0.052,0.13,0.155,0.183,0.208,0.057c0.568-1.351,1.227-2.44,2.318-3.373c0.279-0.085,0.563-0.152,0.855-0.19   c-0.987,0.689-1.835,1.724-2.306,2.759c-0.061,0.135,0.121,0.248,0.202,0.118c0.392-0.629,0.802-1.226,1.335-1.746   c0.488-0.476,1.038-0.817,1.604-1.175c0.272,0.009,0.548,0.036,0.829,0.09c0.067,0.013,0.124,0.033,0.189,0.048   c-1.154,0.538-2.285,1.499-2.991,2.42c-0.08,0.104,0.086,0.213,0.173,0.133c0.606-0.551,1.167-1.095,1.875-1.52   c0.538-0.323,1.112-0.552,1.672-0.82c0.323,0.118,0.625,0.255,0.905,0.416c-1.176,0.426-2.218,1.104-3.162,1.943   c-0.08,0.071,0.035,0.18,0.115,0.115c1.047-0.841,2.253-1.368,3.525-1.753c0.198,0.137,0.391,0.281,0.581,0.436   c-1.019,0.303-1.946,0.826-2.809,1.448c-0.081,0.059-0.01,0.19,0.08,0.137c0.99-0.585,2.061-0.923,3.159-1.218   c0.179,0.157,0.359,0.318,0.543,0.484c-0.33-0.038-0.739,0.09-1.014,0.163c-0.665,0.176-1.222,0.509-1.783,0.897   c-0.12,0.083-0.012,0.275,0.116,0.198c0.622-0.374,1.349-0.584,2.065-0.686c0.162-0.023,0.345-0.017,0.512-0.039   c-2.801,2.931-5.16,6.146-6.873,9.854c-1.456,3.152-2.676,6.792-2.841,10.346c-2.252-0.542-4.488-0.944-6.604-1.222   c-6.01-0.79-12.11-0.744-18.139-0.197c-3.441,0.312-6.795,0.703-10.078,1.493c-0.151-3.578-1.379-7.246-2.845-10.419   c-1.712-3.708-4.072-6.923-6.873-9.854c0.167,0.022,0.35,0.016,0.512,0.039c0.716,0.103,1.443,0.313,2.065,0.686   c0.128,0.077,0.236-0.115,0.116-0.198c-0.561-0.387-1.118-0.721-1.783-0.897c-0.275-0.073-0.684-0.201-1.014-0.163   c0.184-0.166,0.364-0.327,0.543-0.484c1.099,0.295,2.17,0.634,3.16,1.218c0.09,0.053,0.161-0.078,0.08-0.137   c-0.863-0.622-1.791-1.145-2.809-1.448c0.189-0.155,0.383-0.298,0.581-0.436c1.272,0.385,2.478,0.912,3.525,1.753   c0.08,0.064,0.195-0.044,0.115-0.115c-0.944-0.839-1.987-1.517-3.162-1.943c0.28-0.161,0.582-0.298,0.905-0.416   c0.56,0.268,1.134,0.497,1.673,0.82c0.708,0.425,1.269,0.969,1.875,1.52c0.087,0.079,0.253-0.029,0.173-0.133   c-0.706-0.92-1.837-1.882-2.991-2.42c0.065-0.014,0.122-0.035,0.189-0.048c0.281-0.054,0.557-0.081,0.829-0.09   c0.565,0.358,1.116,0.699,1.604,1.175c0.533,0.52,0.943,1.117,1.335,1.746c0.081,0.13,0.263,0.017,0.202-0.118   c-0.47-1.034-1.319-2.07-2.306-2.759c0.292,0.038,0.576,0.105,0.855,0.19c1.091,0.934,1.749,2.022,2.318,3.373   c0.053,0.125,0.26,0.073,0.208-0.057c-0.378-0.944-0.796-2.075-1.5-2.896c0.687,0.364,1.321,0.859,1.889,1.449   c0.074,0.077,0.217-0.026,0.152-0.118c-0.434-0.617-0.984-1.134-1.603-1.547c0.337,0.098,0.652,0.242,0.901,0.466   c0.126,0.113,0.308-0.065,0.187-0.187c-0.334-0.337-0.747-0.536-1.199-0.666c-0.29-0.083-0.615-0.174-0.927-0.174   c-0.182-0.079-0.364-0.155-0.552-0.218c0.285,0.012,0.573,0.04,0.879,0.111c0.135,0.031,0.181-0.156,0.056-0.204   c-0.689-0.266-1.55-0.391-2.303-0.204c-0.083-0.009-0.165-0.017-0.248-0.023c0.383-0.09,0.771-0.159,1.161-0.206   c0.085-0.01,0.124-0.146,0.022-0.164c-0.763-0.142-1.839-0.037-2.563,0.425c-0.083,0.015-0.168,0.043-0.252,0.063   c0.294-0.205,0.604-0.411,0.938-0.469c0.101-0.018,0.063-0.155-0.022-0.164c-0.515-0.058-0.936,0.303-1.35,0.565   c-0.234,0.148-0.53,0.298-0.784,0.482c-0.122,0.057-0.236,0.127-0.355,0.191c0.01-0.01,0.018-0.021,0.028-0.03   c0.403-0.382,0.881-0.735,1.348-1.036c0.03-0.019,0.012-0.073-0.025-0.06c-0.557,0.197-1.014,0.461-1.456,0.857   c-0.27,0.241-0.58,0.541-0.803,0.871c-0.187,0.152-0.357,0.315-0.517,0.487c0.303-0.595,0.746-1.096,1.355-1.597   c0.079-0.065-0.025-0.199-0.109-0.142c-0.628,0.422-1.276,1.041-1.635,1.764c0.095-0.373,0.209-0.74,0.41-1.109   c0.415-0.762,1.017-1.383,1.72-1.885c0.091-0.065,0.013-0.205-0.089-0.152c-0.881,0.454-1.788,1.33-2.286,2.335   c-0.002-0.12,0.001-0.239,0.004-0.358c0.254-0.523,0.445-1.046,0.87-1.507c0.555-0.602,1.243-0.997,2.004-1.286   c0.081-0.031,0.079-0.175-0.022-0.164c-0.846,0.085-1.607,0.494-2.206,1.095c-0.177,0.178-0.361,0.394-0.527,0.63   c0.051-0.292,0.121-0.578,0.202-0.859c0.715-0.781,1.455-1.342,2.514-1.705c0.139-0.048,0.082-0.24-0.06-0.217   c-0.748,0.122-1.525,0.492-2.137,1.02c0.076-0.178,0.161-0.351,0.25-0.523c0.431-0.3,0.828-0.636,1.325-0.853   c0.635-0.278,1.304-0.388,1.985-0.482c0.114-0.016,0.113-0.213,0-0.229c-0.793-0.114-1.828,0.072-2.652,0.521   c0.162-0.216,0.335-0.426,0.522-0.627c1.006-0.256,1.891-0.462,2.988-0.299c0.129,0.019,0.184-0.156,0.055-0.2   c-0.737-0.248-1.637-0.308-2.432-0.095c0.21-0.181,0.436-0.349,0.67-0.511c0.996-0.176,1.856-0.171,2.88,0.066   c0.049,0.011,0.1-0.056,0.054-0.092c-0.487-0.383-1.328-0.559-2.085-0.486c0.097-0.052,0.19-0.108,0.291-0.156   c0.155-0.075,0.019-0.294-0.133-0.228c-3.134,1.344-5.118,4.456-4.939,7.766c-0.329-0.825-0.82-1.588-1.427-2.238   c-1.057-1.131-2.544-2.325-4.102-2.56c-0.047-0.007-0.087,0.06-0.036,0.085c0.294,0.142,0.574,0.297,0.85,0.456   c-0.665,0.002-1.373,0.239-1.936,0.475c-0.134,0.056-0.088,0.266,0.062,0.225c0.393-0.107,0.792-0.21,1.194-0.279   c0.424-0.073,0.823-0.048,1.242-0.07c0.256,0.167,0.505,0.34,0.742,0.523c-0.866-0.181-1.882-0.003-2.668,0.222   c-0.115,0.033-0.067,0.203,0.049,0.179c0.577-0.12,1.148-0.171,1.736-0.138c0.483,0.027,0.953,0.163,1.432,0.185   c0.13,0.116,0.248,0.24,0.371,0.361c-0.847-0.214-1.844-0.137-2.595,0.077c-0.137,0.039-0.117,0.279,0.035,0.26   c0.53-0.068,1.069-0.104,1.604-0.06c0.537,0.044,1.022,0.232,1.535,0.344c0.144,0.171,0.282,0.348,0.414,0.53   c-0.766-0.301-1.66-0.363-2.439-0.265c-0.166,0.021-0.178,0.274,0,0.269c1.06-0.031,1.895,0.249,2.841,0.617   c0.15,0.25,0.291,0.508,0.418,0.776c-0.18-0.101-0.364-0.19-0.532-0.269c-0.638-0.3-1.34-0.523-2.042-0.59   c-0.143-0.014-0.161,0.203-0.033,0.242c0.683,0.209,1.346,0.38,1.968,0.749c0.348,0.207,0.654,0.528,1.005,0.743   c0.017,0.049,0.03,0.1,0.047,0.149c-2.285-1.691-5.678-1.774-7.891,0.125c-0.086,0.074,0.024,0.204,0.117,0.152   c0.302-0.166,0.603-0.308,0.904-0.435c-0.08,0.082-0.158,0.165-0.225,0.241c-0.412,0.469-0.624,0.941-0.799,1.531   c-0.027,0.091,0.114,0.155,0.157,0.066c0.234-0.483,0.602-0.984,0.966-1.375c0.281-0.301,0.663-0.528,0.945-0.825   C15.733,31.762,16,31.7,16.266,31.66c-0.253,0.119-0.493,0.265-0.71,0.424c-0.536,0.395-0.795,0.83-1.12,1.394   c-0.05,0.087,0.078,0.159,0.133,0.078c0.652-0.949,1.719-1.413,2.707-1.9c0.031-0.016,0.05-0.041,0.059-0.069   c0.163,0.002,0.324,0.013,0.486,0.028c-0.682,0.22-1.326,0.708-1.779,1.166c-0.068,0.069,0.022,0.197,0.107,0.138   c0.416-0.289,0.835-0.582,1.302-0.782c0.483-0.207,0.97-0.219,1.481-0.297c0.008-0.001,0.01-0.008,0.018-0.011   c0.14,0.041,0.278,0.09,0.416,0.141c-0.718,0.085-1.482,0.4-1.879,0.762c-0.047,0.043,0.003,0.118,0.06,0.103   c0.528-0.136,1.01-0.367,1.557-0.435c0.38-0.047,0.775,0.014,1.154-0.017c0.145,0.08,0.288,0.166,0.43,0.258   c-0.218-0.003-0.436,0.002-0.641,0.009c-0.58,0.02-1.118,0.086-1.65,0.332c-0.058,0.027-0.029,0.121,0.032,0.119   c0.54-0.02,1.077-0.117,1.618-0.12c0.43-0.003,0.859,0.103,1.285,0.123c0.038,0.031,0.077,0.058,0.115,0.09   c-0.212,0.012-0.419,0.038-0.625,0.068c-0.007-0.001-0.012-0.005-0.019-0.006c-1.293-0.115-2.682-0.044-3.893,0.464   c-0.105,0.044-0.111,0.243,0.031,0.225c0.719-0.091,1.416-0.17,2.116-0.203c-0.203,0.083-0.403,0.17-0.597,0.27   c-1.064-0.07-2.195,0.323-3.022,0.971c-0.123,0.096,0.034,0.264,0.158,0.204c0.655-0.317,1.27-0.496,1.921-0.602   c-0.156,0.109-0.313,0.217-0.462,0.337c-0.852,0.076-1.763,0.583-2.324,1.148c-0.076,0.077,0.021,0.201,0.115,0.149   c0.444-0.245,0.891-0.493,1.372-0.657c0.056-0.019,0.114-0.027,0.17-0.043c-0.181,0.179-0.354,0.366-0.519,0.56   c-0.305,0.089-0.605,0.242-0.857,0.371c-0.578,0.294-1.11,0.694-1.527,1.193c-0.135,0.162,0.065,0.353,0.228,0.227   c0.487-0.377,0.985-0.73,1.546-0.989c-0.086,0.127-0.16,0.26-0.24,0.391c-0.327,0.19-0.632,0.448-0.893,0.673   c-0.518,0.445-1.024,0.981-1.324,1.601c-0.068,0.141,0.109,0.303,0.228,0.176c0.427-0.452,0.81-0.931,1.287-1.335   c0.055-0.046,0.119-0.086,0.179-0.129c-0.006,0.013-0.013,0.025-0.018,0.038c-0.606,0.592-1.05,1.497-1.349,2.161   c-0.09,0.201,0.199,0.379,0.301,0.176c0.16-0.322,0.351-0.626,0.555-0.92c-0.271,1.034-0.368,2.113-0.235,3.186   c0.016,0.129,0.204,0.137,0.207,0c0.035-1.527,0.343-2.944,0.982-4.233c-0.047,1.328,0.439,2.815,0.731,3.9   c0.041,0.153,0.261,0.087,0.234-0.064c-0.178-1.005-0.282-2.082-0.287-3.108c-0.004-0.81,0.24-1.553,0.352-2.331   c0.091-0.115,0.189-0.227,0.287-0.339c-0.372,1.521,0.01,3.368,0.287,4.74c0.036,0.177,0.344,0.14,0.32-0.043   c-0.128-1.011-0.24-2.055-0.193-3.075c0.049-1.077,0.375-1.852,0.782-2.753c0.01-0.008,0.02-0.016,0.03-0.024   c-0.364,1.195-0.309,2.647-0.21,3.754c0.022,0.243,0.4,0.248,0.383,0c-0.06-0.918,0.012-1.828,0.201-2.729   c0.114-0.541,0.324-1.058,0.455-1.591c0.294-0.174,0.596-0.329,0.907-0.468c-0.815,1.195-0.994,3.036-0.884,4.319   c0.018,0.206,0.321,0.213,0.326,0c0.021-0.905,0.173-1.792,0.47-2.647c0.247-0.711,0.708-1.322,0.962-2.013   c0.234-0.08,0.471-0.156,0.713-0.224c-0.564,0.948-0.879,1.978-0.988,3.103c-0.019,0.191,0.311,0.238,0.338,0.046   c0.171-1.235,0.694-2.36,1.441-3.351c0.013-0.003,0.026-0.006,0.039-0.009c-0.364,0.779-0.597,1.614-0.882,2.423   c-0.054,0.153,0.199,0.264,0.266,0.112c0.37-0.845,0.867-1.629,1.23-2.476c0.03-0.069,0.028-0.134,0.014-0.195   c0.005-0.001,0.009-0.002,0.014-0.003c2.543,3.013,4.747,6.42,6.398,9.996c1.594,3.454,2.312,6.926,2.819,10.613   c-1.526,0.412-3.038,0.909-4.535,1.545c-1.305,0.555-2.566,1.187-3.774,1.895c-1.145-1.733-2.689-3.271-4.238-4.543   c-2.164-1.778-4.58-3.058-7.183-4.032c0.109-0.036,0.221-0.095,0.328-0.129c0.473-0.15,0.984-0.238,1.48-0.193   c0.102,0.009,0.111-0.141,0.012-0.157c-0.462-0.072-0.906-0.111-1.368-0.021c-0.192,0.037-0.482,0.08-0.675,0.202   c0.064-0.158,0.127-0.311,0.191-0.461c0.767-0.146,1.528-0.256,2.314-0.191c0.071,0.006,0.076-0.097,0.009-0.109   c-0.718-0.126-1.447-0.173-2.166-0.056c0.071-0.152,0.147-0.299,0.228-0.443c0.9-0.142,1.802-0.177,2.699,0.03   c0.069,0.016,0.107-0.086,0.037-0.106c-0.833-0.236-1.679-0.344-2.532-0.256c0.124-0.183,0.27-0.358,0.435-0.527   c0.426-0.001,0.849-0.031,1.277,0.007c0.564,0.051,1.073,0.219,1.611,0.379c0.077,0.023,0.147-0.094,0.067-0.134   c-0.711-0.357-1.696-0.614-2.569-0.601c0.036-0.028,0.065-0.058,0.103-0.086c0.158-0.117,0.32-0.216,0.485-0.303   c0.456,0.052,0.897,0.098,1.341,0.247c0.484,0.162,0.915,0.408,1.345,0.679c0.089,0.056,0.167-0.068,0.089-0.133   c-0.599-0.498-1.432-0.884-2.247-1.015c0.192-0.064,0.387-0.107,0.585-0.138c0.952,0.251,1.683,0.726,2.437,1.391   c0.07,0.062,0.182-0.033,0.111-0.097c-0.515-0.47-1.111-1.044-1.79-1.34c0.533,0.02,1.072,0.136,1.599,0.331   c0.069,0.026,0.126-0.081,0.059-0.118c-0.452-0.252-0.946-0.406-1.451-0.477c0.237-0.04,0.474-0.045,0.695,0.019   c0.111,0.032,0.17-0.132,0.06-0.171c-0.306-0.108-0.621-0.108-0.939-0.053c-0.204,0.035-0.432,0.076-0.624,0.169   c-0.136,0.006-0.271,0.013-0.406,0.031c0.179-0.077,0.366-0.146,0.576-0.194c0.093-0.021,0.066-0.15-0.026-0.143   c-0.505,0.041-1.074,0.221-1.482,0.561c-0.054,0.019-0.107,0.039-0.16,0.06c0.209-0.17,0.429-0.328,0.655-0.474   c0.049-0.032,0.033-0.127-0.035-0.108c-0.514,0.14-1.146,0.526-1.455,1.027c-0.047,0.034-0.091,0.077-0.137,0.114   c0.12-0.214,0.25-0.434,0.439-0.57c0.057-0.041-0.007-0.114-0.063-0.095c-0.335,0.118-0.487,0.466-0.665,0.752   c-0.1,0.162-0.238,0.342-0.34,0.532c-0.058,0.071-0.108,0.149-0.162,0.224c0.003-0.009,0.005-0.018,0.008-0.027   c0.135-0.356,0.324-0.717,0.523-1.042c0.013-0.021-0.015-0.049-0.034-0.03c-0.285,0.288-0.488,0.587-0.643,0.963   c-0.095,0.229-0.197,0.507-0.236,0.778c-0.07,0.149-0.126,0.301-0.174,0.455c0.009-0.458,0.134-0.899,0.36-1.39   c0.029-0.064-0.075-0.116-0.11-0.055c-0.262,0.448-0.477,1.023-0.483,1.577c-0.053-0.258-0.092-0.519-0.078-0.807   c0.029-0.594,0.215-1.157,0.499-1.677c0.037-0.068-0.053-0.13-0.1-0.067c-0.409,0.543-0.707,1.354-0.715,2.124   c-0.037-0.074-0.071-0.148-0.104-0.222c0.001-0.399-0.038-0.778,0.087-1.19c0.163-0.537,0.47-0.986,0.853-1.392   c0.041-0.043-0.003-0.131-0.063-0.095c-0.497,0.305-0.845,0.785-1.035,1.334c-0.056,0.162-0.105,0.351-0.137,0.546   c-0.056-0.195-0.098-0.393-0.132-0.591c0.208-0.695,0.498-1.263,1.043-1.803c0.072-0.071-0.021-0.172-0.102-0.116   c-0.426,0.299-0.795,0.759-1.015,1.268C9.94,45.36,9.94,45.228,9.944,45.095c0.176-0.314,0.322-0.64,0.564-0.922   c0.309-0.361,0.689-0.628,1.082-0.89c0.066-0.044,0.006-0.165-0.068-0.142c-0.523,0.166-1.107,0.59-1.482,1.113   c0.036-0.182,0.08-0.363,0.135-0.543c0.544-0.458,1.03-0.85,1.756-1.077c0.086-0.027,0.067-0.151-0.026-0.14   c-0.529,0.067-1.102,0.299-1.53,0.667c0.076-0.174,0.165-0.346,0.261-0.515c0.562-0.406,1.095-0.659,1.798-0.819   c0.033-0.008,0.045-0.064,0.006-0.073c-0.415-0.091-0.987,0.051-1.432,0.322c0.045-0.061,0.085-0.123,0.133-0.183   c0.074-0.093-0.076-0.187-0.15-0.101c-1.534,1.765-1.83,4.278-0.731,6.268c-0.449-0.412-0.98-0.736-1.549-0.956   c-0.99-0.383-2.264-0.676-3.296-0.357c-0.031,0.01-0.036,0.063,0.003,0.063c0.224,0,0.443,0.012,0.661,0.028   c-0.41,0.2-0.776,0.558-1.054,0.871c-0.066,0.075,0.025,0.19,0.106,0.121c0.211-0.183,0.427-0.366,0.654-0.528   c0.24-0.171,0.494-0.275,0.745-0.414c0.208,0.026,0.413,0.059,0.614,0.102c-0.589,0.146-1.163,0.56-1.581,0.933   c-0.061,0.055,0.019,0.145,0.084,0.095c0.32-0.246,0.657-0.448,1.03-0.603c0.306-0.128,0.637-0.184,0.939-0.313   c0.115,0.033,0.225,0.074,0.337,0.112c-0.587,0.121-1.179,0.466-1.579,0.822c-0.073,0.065,0.011,0.207,0.099,0.15   c0.307-0.2,0.629-0.383,0.972-0.516c0.345-0.133,0.7-0.162,1.051-0.246c0.14,0.063,0.278,0.13,0.413,0.204   c-0.563,0.043-1.133,0.271-1.585,0.565c-0.096,0.062-0.028,0.222,0.08,0.166c0.645-0.336,1.244-0.412,1.938-0.467   c0.167,0.109,0.331,0.227,0.49,0.355c-0.141-0.009-0.282-0.009-0.409-0.007c-0.483,0.005-0.983,0.077-1.437,0.245   c-0.092,0.034-0.039,0.173,0.052,0.159c0.484-0.075,0.944-0.167,1.439-0.125c0.277,0.024,0.561,0.13,0.842,0.159   c0.025,0.025,0.049,0.053,0.074,0.078c-1.915-0.362-4.035,0.6-4.834,2.432c-0.031,0.071,0.076,0.119,0.118,0.059   c0.137-0.193,0.281-0.37,0.429-0.538c-0.025,0.075-0.049,0.149-0.067,0.216C5.922,51.338,5.932,51.692,6,52.109   c0.011,0.065,0.117,0.062,0.117-0.006c0-0.368,0.078-0.787,0.186-1.137c0.083-0.27,0.251-0.524,0.337-0.791   c0.144-0.125,0.291-0.243,0.443-0.347c-0.12,0.149-0.226,0.311-0.311,0.474c-0.213,0.404-0.243,0.75-0.275,1.195   c-0.005,0.069,0.095,0.075,0.105,0.008c0.12-0.78,0.639-1.385,1.104-1.981c0.015-0.019,0.019-0.04,0.016-0.06   c0.101-0.047,0.204-0.089,0.308-0.127c-0.356,0.339-0.607,0.833-0.75,1.25c-0.022,0.063,0.073,0.115,0.107,0.054   c0.171-0.303,0.342-0.608,0.571-0.871c0.237-0.272,0.533-0.425,0.825-0.625c0.005-0.003,0.004-0.008,0.008-0.012   c0.098-0.016,0.198-0.027,0.299-0.037c-0.418,0.267-0.795,0.689-0.933,1.031c-0.016,0.04,0.037,0.072,0.068,0.046   c0.285-0.241,0.514-0.528,0.832-0.733c0.22-0.142,0.483-0.223,0.707-0.355c0.113,0.006,0.227,0.017,0.343,0.031   c-0.136,0.063-0.268,0.132-0.393,0.197c-0.352,0.185-0.665,0.387-0.92,0.697c-0.028,0.034,0.019,0.083,0.055,0.064   c0.328-0.173,0.63-0.394,0.963-0.557c0.265-0.13,0.561-0.192,0.83-0.308c0.033,0.008,0.065,0.013,0.098,0.021   c-0.127,0.071-0.247,0.149-0.366,0.229c-0.004,0.001-0.009,0-0.013,0.002c-0.833,0.315-1.669,0.773-2.265,1.448   c-0.052,0.059,0.004,0.183,0.086,0.13c0.417-0.271,0.823-0.528,1.246-0.757c-0.1,0.112-0.198,0.225-0.288,0.345   c-0.678,0.274-1.259,0.854-1.576,1.501c-0.047,0.096,0.1,0.153,0.158,0.079c0.31-0.391,0.636-0.685,1.006-0.945   c-0.064,0.114-0.129,0.228-0.185,0.346c-0.503,0.301-0.914,0.886-1.092,1.402c-0.024,0.07,0.073,0.118,0.115,0.058   c0.201-0.284,0.403-0.57,0.651-0.815c0.029-0.028,0.062-0.051,0.092-0.078c-0.058,0.164-0.109,0.331-0.153,0.501   c-0.162,0.146-0.301,0.33-0.419,0.485c-0.269,0.354-0.478,0.759-0.586,1.192c-0.035,0.14,0.146,0.199,0.208,0.073   c0.188-0.378,0.39-0.745,0.66-1.072c-0.015,0.104-0.021,0.208-0.031,0.313c-0.145,0.215-0.256,0.465-0.351,0.682   c-0.187,0.429-0.339,0.911-0.34,1.383c0,0.108,0.157,0.155,0.194,0.041c0.129-0.406,0.222-0.816,0.396-1.208   c0.02-0.045,0.048-0.089,0.072-0.133c0,0.01,0,0.019,0,0.029c-0.197,0.546-0.202,1.237-0.188,1.737   c0.004,0.151,0.236,0.174,0.238,0.019c0.003-0.247,0.03-0.491,0.068-0.734c0.141,0.719,0.404,1.414,0.806,2.037   c0.048,0.075,0.167,0.024,0.128-0.062c-0.434-0.953-0.667-1.92-0.657-2.906c0.367,0.834,1.111,1.606,1.615,2.189   c0.071,0.082,0.187-0.024,0.125-0.11c-0.41-0.567-0.795-1.201-1.104-1.833c-0.244-0.499-0.315-1.03-0.479-1.544   c0.022-0.098,0.049-0.196,0.076-0.295c0.224,1.05,1.011,2.076,1.592,2.84c0.075,0.099,0.254-0.016,0.185-0.122   c-0.381-0.586-0.761-1.197-1.037-1.841c-0.291-0.679-0.321-1.255-0.339-1.933c0.004-0.008,0.008-0.016,0.012-0.024   c0.132,0.846,0.599,1.726,0.991,2.38c0.086,0.143,0.321,0.034,0.237-0.114c-0.311-0.549-0.538-1.132-0.69-1.745   c-0.091-0.368-0.116-0.75-0.194-1.118c0.13-0.195,0.27-0.381,0.42-0.559c-0.146,0.981,0.292,2.171,0.743,2.93   c0.073,0.122,0.262,0.036,0.201-0.097c-0.257-0.565-0.428-1.158-0.5-1.774c-0.06-0.513,0.043-1.027-0.007-1.53   c0.12-0.119,0.244-0.237,0.373-0.351c-0.066,0.754,0.048,1.483,0.316,2.21c0.045,0.123,0.263,0.054,0.222-0.073   c-0.263-0.814-0.276-1.664-0.111-2.498c0.007-0.006,0.015-0.011,0.022-0.017c0.008,0.589,0.113,1.175,0.178,1.759   c0.012,0.111,0.202,0.103,0.198-0.01c-0.024-0.632,0.049-1.264,0.021-1.896c-0.002-0.051-0.023-0.091-0.049-0.125   c0.003-0.002,0.005-0.004,0.008-0.006c2.469,1.101,4.846,2.547,6.933,4.262c1.663,1.367,2.96,2.919,4.157,4.613   c-3.291,2.048-6.176,4.666-8.459,7.866c-0.099,0.139,0.127,0.265,0.227,0.132c2.315-3.094,5.292-5.511,8.653-7.389   c0.149,0.219,0.298,0.44,0.446,0.664c-0.698,0.418-1.379,0.875-2.059,1.341c-1.722,1.179-3.533,2.476-4.62,4.294   c-0.074,0.123,0.101,0.263,0.201,0.155c1.943-2.085,4.251-3.918,6.767-5.349c0.028,0.044,0.057,0.086,0.085,0.129   c0.083,0.128,0.21,0.174,0.326,0.16c-0.546,0.387-1.066,0.795-1.543,1.182c-0.12,0.097,0.05,0.261,0.168,0.168   c0.774-0.603,1.585-1.151,2.444-1.627c0.766-0.424,1.615-0.721,2.357-1.179c0.096-0.059,0.032-0.201-0.075-0.178   c-1.073,0.225-2.129,0.798-3.102,1.462c0.034-0.072,0.04-0.161-0.003-0.263c-0.024-0.057-0.055-0.111-0.08-0.168   c1.165-0.625,2.366-1.173,3.6-1.605c0.144-0.05,0.084-0.244-0.062-0.224c-1.371,0.193-2.6,0.698-3.771,1.341   c-0.116-0.232-0.24-0.46-0.371-0.686c2.511-1.327,5.22-2.365,8.021-3.169c0.015,0.115,0.031,0.228,0.045,0.344   c0.072,0.578,0.893,0.61,0.925,0c0.011-0.205,0.015-0.412,0.018-0.618c6.143-1.634,12.654-2.187,18.416-2.201   c5.308-0.013,10.976,0.545,16.373,1.974c0,0.282,0.006,0.564,0.021,0.844c0.032,0.61,0.853,0.578,0.925,0   c0.024-0.189,0.05-0.375,0.074-0.563c2.815,0.809,5.543,1.866,8.094,3.214c-0.17,0.282-0.327,0.569-0.473,0.86   c-1.17-0.643-2.4-1.147-3.771-1.341c-0.145-0.02-0.206,0.173-0.062,0.224c1.234,0.432,2.435,0.98,3.6,1.605   c-0.025,0.057-0.056,0.111-0.08,0.168c-0.043,0.102-0.037,0.191-0.003,0.263c-0.974-0.664-2.029-1.236-3.102-1.462   c-0.108-0.023-0.171,0.119-0.075,0.178c0.742,0.458,1.59,0.755,2.357,1.179c0.859,0.476,1.669,1.024,2.444,1.627   c0.119,0.092,0.288-0.071,0.168-0.168c-0.477-0.387-0.996-0.795-1.543-1.182c0.116,0.013,0.242-0.032,0.326-0.16   c0.028-0.044,0.057-0.086,0.085-0.129c2.516,1.43,4.825,3.264,6.767,5.349c0.101,0.108,0.275-0.032,0.201-0.155   c-1.087-1.818-2.898-3.115-4.62-4.294c-0.68-0.466-1.362-0.922-2.059-1.341c0.185-0.281,0.373-0.559,0.561-0.833   c3.481,1.941,6.608,4.444,9.135,7.634c0.303,0.383,0.938-0.114,0.676-0.521c-2.208-3.432-5.472-6.028-9.188-7.992   c1.11-1.523,2.322-2.927,3.839-4.174c2.086-1.715,4.464-3.161,6.933-4.262c0.003,0.002,0.005,0.004,0.008,0.006   c-0.027,0.033-0.047,0.073-0.049,0.125c-0.028,0.631,0.044,1.264,0.021,1.896c-0.004,0.113,0.185,0.121,0.198,0.01   c0.065-0.584,0.171-1.169,0.178-1.759c0.007,0.006,0.015,0.011,0.022,0.017c0.166,0.834,0.153,1.685-0.111,2.498   c-0.041,0.126,0.177,0.196,0.222,0.073c0.268-0.727,0.381-1.456,0.316-2.21c0.129,0.114,0.253,0.232,0.373,0.351   c-0.05,0.502,0.053,1.017-0.007,1.53c-0.072,0.617-0.243,1.209-0.5,1.774c-0.06,0.133,0.129,0.219,0.201,0.097   c0.451-0.759,0.89-1.949,0.743-2.93c0.15,0.178,0.29,0.364,0.42,0.559c-0.078,0.368-0.102,0.75-0.194,1.118   c-0.152,0.613-0.38,1.196-0.69,1.745c-0.084,0.148,0.151,0.258,0.237,0.114c0.392-0.654,0.859-1.534,0.991-2.38   c0.004,0.008,0.008,0.016,0.012,0.024c-0.018,0.677-0.048,1.253-0.339,1.933c-0.276,0.644-0.656,1.255-1.037,1.841   c-0.069,0.106,0.11,0.221,0.185,0.122c0.581-0.764,1.368-1.79,1.592-2.84c0.027,0.098,0.054,0.197,0.076,0.295   c-0.163,0.514-0.235,1.045-0.479,1.544c-0.309,0.632-0.695,1.266-1.105,1.833c-0.062,0.085,0.054,0.192,0.125,0.11   c0.504-0.583,1.248-1.355,1.615-2.189c0.009,0.986-0.223,1.953-0.657,2.906c-0.039,0.086,0.08,0.136,0.128,0.062   c0.403-0.623,0.665-1.318,0.806-2.037c0.038,0.243,0.065,0.487,0.068,0.734c0.002,0.156,0.234,0.132,0.238-0.019   c0.014-0.499,0.009-1.19-0.188-1.737c0-0.01,0-0.019,0-0.029c0.024,0.044,0.052,0.088,0.072,0.133   c0.174,0.392,0.268,0.802,0.396,1.208c0.036,0.114,0.194,0.067,0.194-0.041c0-0.472-0.152-0.954-0.339-1.383   c-0.095-0.217-0.206-0.467-0.351-0.682c-0.01-0.104-0.016-0.209-0.031-0.313c0.269,0.328,0.472,0.694,0.66,1.072   c0.063,0.126,0.243,0.068,0.208-0.073c-0.108-0.432-0.317-0.838-0.586-1.192c-0.118-0.155-0.257-0.339-0.419-0.485   c-0.044-0.169-0.095-0.336-0.153-0.501c0.03,0.027,0.063,0.049,0.092,0.078c0.248,0.245,0.45,0.531,0.651,0.815   c0.043,0.06,0.14,0.013,0.115-0.058c-0.178-0.516-0.588-1.101-1.092-1.402c-0.056-0.118-0.121-0.232-0.185-0.346   c0.37,0.26,0.696,0.554,1.006,0.945c0.059,0.074,0.205,0.017,0.158-0.079c-0.317-0.647-0.899-1.227-1.576-1.501   c-0.09-0.119-0.188-0.233-0.288-0.345c0.422,0.229,0.829,0.486,1.246,0.757c0.082,0.053,0.138-0.071,0.086-0.13   c-0.596-0.676-1.432-1.134-2.265-1.448c-0.005-0.002-0.009-0.001-0.013-0.002c-0.119-0.08-0.239-0.158-0.366-0.229   c0.033-0.008,0.065-0.014,0.098-0.021c0.269,0.115,0.565,0.178,0.83,0.308c0.333,0.163,0.635,0.383,0.963,0.557   c0.037,0.02,0.083-0.03,0.055-0.064c-0.255-0.31-0.567-0.512-0.92-0.697c-0.125-0.066-0.257-0.134-0.393-0.197   c0.115-0.014,0.23-0.025,0.343-0.031c0.224,0.132,0.487,0.213,0.707,0.355c0.317,0.205,0.546,0.492,0.832,0.733   c0.031,0.026,0.084-0.005,0.068-0.046c-0.137-0.342-0.515-0.764-0.933-1.031c0.1,0.01,0.2,0.02,0.299,0.037   c0.004,0.004,0.003,0.009,0.008,0.012c0.292,0.2,0.589,0.353,0.825,0.625c0.229,0.263,0.4,0.569,0.571,0.871   c0.035,0.061,0.129,0.009,0.107-0.054c-0.143-0.417-0.395-0.911-0.75-1.25c0.104,0.039,0.207,0.08,0.308,0.127   c-0.003,0.02,0.001,0.041,0.016,0.06c0.465,0.596,0.984,1.2,1.104,1.981c0.01,0.067,0.11,0.06,0.105-0.008   c-0.032-0.445-0.062-0.791-0.275-1.195c-0.086-0.163-0.191-0.325-0.312-0.474c0.152,0.104,0.299,0.222,0.443,0.347   c0.086,0.267,0.254,0.522,0.337,0.791c0.108,0.35,0.186,0.769,0.186,1.137c0,0.068,0.106,0.071,0.117,0.006   c0.068-0.417,0.078-0.771-0.036-1.184c-0.019-0.067-0.042-0.142-0.067-0.216c0.148,0.168,0.292,0.346,0.429,0.538   c0.042,0.06,0.149,0.012,0.118-0.059c-0.8-1.832-2.919-2.794-4.834-2.432c0.025-0.025,0.048-0.053,0.074-0.078   c0.281-0.028,0.565-0.135,0.842-0.159c0.494-0.042,0.954,0.05,1.438,0.125c0.091,0.014,0.144-0.125,0.052-0.159   c-0.453-0.168-0.954-0.24-1.437-0.245c-0.127-0.001-0.267-0.001-0.409,0.007c0.159-0.128,0.322-0.245,0.49-0.355   c0.694,0.055,1.293,0.131,1.938,0.467c0.108,0.056,0.177-0.103,0.08-0.166c-0.452-0.293-1.022-0.522-1.585-0.565   c0.135-0.073,0.273-0.141,0.414-0.204c0.35,0.084,0.706,0.113,1.051,0.246c0.343,0.132,0.665,0.316,0.972,0.516   c0.088,0.058,0.172-0.085,0.099-0.15c-0.399-0.356-0.992-0.701-1.579-0.822c0.112-0.038,0.222-0.08,0.337-0.112   c0.302,0.129,0.633,0.186,0.939,0.313c0.373,0.155,0.71,0.357,1.03,0.603c0.064,0.049,0.145-0.041,0.084-0.095   c-0.418-0.373-0.992-0.787-1.581-0.933c0.201-0.042,0.406-0.075,0.614-0.102c0.251,0.139,0.505,0.243,0.745,0.414   c0.227,0.162,0.443,0.345,0.654,0.528C94.952,47.901,95.043,47.785,94.977,47.711z"/><path d="M76.925,62.407c-1.677-1.645-3.688-3.084-5.992-3.678c-0.121-0.031-0.205,0.15-0.087,0.206   c2.126,1.017,4.131,2.056,5.889,3.661C76.862,62.712,77.049,62.528,76.925,62.407z"/><path d="M64.164,55.485c-0.119,0.001-0.138,0.17-0.028,0.204c2.496,0.77,4.893,1.181,7.264,2.378   c0.16,0.081,0.302-0.157,0.142-0.242C69.334,56.642,66.714,55.459,64.164,55.485z"/><path d="M69.425,57.98c0.143,0.074,0.268-0.137,0.126-0.216c-1.156-0.645-2.487-1.278-3.826-1.356   c-0.134-0.008-0.144,0.182-0.03,0.222C66.968,57.073,68.215,57.355,69.425,57.98z"/><path d="M75.566,64.288c-2.344-2.524-5.471-4.42-8.948-4.787c-0.138-0.015-0.155,0.198-0.032,0.234   c3.337,0.967,6.281,2.286,8.863,4.67C75.528,64.477,75.638,64.366,75.566,64.288z"/><path d="M71.104,62.855c-1.658-1.218-3.568-2.192-5.65-2.336c-0.113-0.008-0.128,0.162-0.026,0.192   c1.974,0.58,3.84,1.173,5.565,2.334C71.112,63.124,71.216,62.937,71.104,62.855z"/><path d="M63.721,61.762c1.658,0.586,3.312,0.816,4.828,1.786c0.17,0.109,0.324-0.16,0.157-0.269   c-1.451-0.95-3.233-1.555-4.956-1.733C63.619,61.533,63.613,61.724,63.721,61.762z"/><path d="M61.515,57.352c1.079,0.289,2.18,0.46,3.252,0.79c0.204,0.063,0.287-0.251,0.088-0.318   c-1.056-0.351-2.183-0.697-3.303-0.742C61.394,57.076,61.368,57.313,61.515,57.352z"/><path d="M78.536,63.753c-0.09-0.053-0.186,0.071-0.111,0.144c0.674,0.654,1.457,1.188,2.207,1.75   c0.155,0.116,0.3-0.143,0.151-0.258C80.05,64.824,79.336,64.222,78.536,63.753z"/><path d="M52.523,54.716c-1.856-0.381-4.065-0.928-5.954-0.551c-2.16,0.431-4.527,0.318-6.607,1.076   c-0.16,0.058-0.095,0.312,0.071,0.259c1.91-0.614,3.949-0.33,5.902-0.733c2.229-0.46,4.304,0.048,6.556,0.176   C52.622,54.951,52.652,54.742,52.523,54.716z"/><path d="M51.317,56.2c0.083,0.009,0.098-0.123,0.019-0.144c-2.65-0.695-5.342-0.544-7.987,0.077   c-0.15,0.035-0.086,0.259,0.063,0.229C46.054,55.838,48.659,55.907,51.317,56.2z"/><path d="M45.862,57.961c1.915-0.204,3.813-0.159,5.731-0.23c0.153-0.006,0.145-0.215,0-0.232c-1.892-0.222-3.848-0.037-5.731,0.193   C45.694,57.713,45.69,57.979,45.862,57.961z"/><path d="M53.419,56.299c-0.192,0.02-0.197,0.322,0,0.305c1.283-0.112,2.493,0.082,3.755,0.287c0.133,0.022,0.179-0.15,0.055-0.2   C56.03,56.201,54.691,56.165,53.419,56.299z"/><path d="M58.062,55.537c0.131,0.022,0.242-0.169,0.099-0.234c-0.85-0.389-1.864-0.496-2.788-0.581   c-0.132-0.012-0.165,0.215-0.032,0.234C56.266,55.086,57.147,55.382,58.062,55.537z"/><path d="M79.98,68.825c-2.748-0.156-5.31-1.615-8.078-1.475c-2.65,0.134-4.928,1.727-7.624,1.672   c-3.179-0.065-6.171-1.209-9.4-1.101c-2.886,0.097-5.552,1.121-8.393,1.412c-3.076,0.315-5.703-1.276-8.67-1.697   c-2.436-0.345-4.774,0.323-7.14,0.809c-3.289,0.675-6.075-0.069-9.314-0.536c-2.219-0.32-4.284-0.21-6.194,1.031   c-0.182,0.118-0.016,0.407,0.171,0.292c2.797-1.716,5.972-0.72,8.924-0.07c2.376,0.523,4.548,0.47,6.925-0.013   c3.079-0.626,5.659-1.092,8.746-0.178c2.369,0.701,4.524,1.479,7.031,1.134c3.031-0.417,5.804-1.399,8.918-1.362   c2.968,0.036,5.789,1.141,8.736,1.157c2.658,0.014,4.947-1.605,7.577-1.653c2.679-0.048,5.085,1.44,7.786,1.316   C80.456,69.542,80.455,68.852,79.98,68.825z"/><path d="M53.731,72.352c-2.519-1.216-5.161-0.933-7.837-0.482c-1.759,0.296-3.521,0.666-5.313,0.651   c-2.006-0.017-3.814-0.806-5.773-1.081c-3.654-0.512-7.022,1.323-10.714,0.467c-2.628-0.609-5.328-1.423-7.567,0.567   c-0.13,0.115,0.045,0.349,0.188,0.244c2.886-2.135,6.287,0.069,9.408,0.242c3.385,0.188,6.38-1.339,9.808-0.561   c2.786,0.632,5.005,0.996,7.876,0.56c3.195-0.485,6.474-1.431,9.558,0.021C53.784,73.179,54.154,72.557,53.731,72.352z"/><path d="M29.832,75.42c-2.849,0.724-5.088,0.02-7.896-0.499c-1.735-0.321-3.516-0.355-5.013,0.682   c-0.139,0.097-0.021,0.291,0.131,0.224c2.811-1.236,5.316-0.205,8.127,0.357c1.574,0.314,3.386,0.458,4.766-0.49   C30.084,75.599,30.003,75.376,29.832,75.42z"/></g><text x="0" y="115" fill="#000000" font-size="5px" font-weight="bold" font-family="'Helvetica Neue', Helvetica, Arial-Unicode, Arial, Sans-serif">Created by Vladimir Belochkin</text><text x="0" y="120" fill="#000000" font-size="5px" font-weight="bold" font-family="'Helvetica Neue', Helvetica, Arial-Unicode, Arial, Sans-serif">from the Noun Project</text></svg>