<svg xmlns="http://www.w3.org/2000/svg" data-name="Layer 1" viewBox="0 0 100 125" x="0px" y="0px"><title>icons_animals_4</title><path d="M91.07,25.66a10.94,10.94,0,0,0-3.63-4.85A14.24,14.24,0,0,1,89,16.21c.94-2,1.83-3.85.31-4.64a2.7,2.7,0,0,0-2.55.07l-.18-.55-.85.15a9.41,9.41,0,0,0-7.62,6.83c-4.22.51-7.7,4.15-8.25,4.76L58.77,31.24c-3.22,0-28.14-.37-35.16-1.35-4.52-.63-10.72-.72-14.62,2.42a9.87,9.87,0,0,0-3.54,7.3c-.05.73-.07,1.44-.06,2.12-.58,1.38-3.68,9.29-2,17.07,1.62,7.43.16,9.84.16,9.84L1.65,71.34l3.08-1.16a9.14,9.14,0,0,0,2.39-1.42c-.49,3.14.38,11,.64,13.16a5.22,5.22,0,0,0-.42,3.32l.13.84h7.7v-1a4.69,4.69,0,0,0-1.24-3.29V75.22L16,81c-.4,1-1.17,3.19-.39,4.56l.29.5h7.53l0-1a13,13,0,0,0-2.05-6c-1.54-2.37-1.22-7-.62-8.06s3.65-8.28,4.79-11c3.83,1.72,10.6,3.63,21.85,3.63q3.91,0,8.59-.34c.7,3.14,1.55,7.38,1.49,9.38-.1,2.94-.28,7.27-.34,8.65a4.33,4.33,0,0,0-.86,4l.16.81h7.72v-.3l.07.3h7.35l0-1c.11-2.18-.66-3.13-1.18-3.52a9.14,9.14,0,0,1-.49-5,33.69,33.69,0,0,0-.3-11.24,14,14,0,0,1,1.46-7.82l8.35-18.52a16.09,16.09,0,0,0,3,1c1,.55,6.54,3.51,10.76,3.51A6.64,6.64,0,0,0,95,43.31a4.11,4.11,0,0,0,2.6-2.16c2.48-5.55-1-9-3.73-11.84A11.72,11.72,0,0,1,91.07,25.66ZM87.23,15.35a20.53,20.53,0,0,0-1.62,4.19L85,19.22a10.92,10.92,0,0,1,1-2.44,7.77,7.77,0,0,0,1-2.94,2,2,0,0,1,1-.55A17,17,0,0,1,87.23,15.35ZM8.52,61.67a71.18,71.18,0,0,1-.65-9.22l.42,1A20.86,20.86,0,0,1,9.95,58.6a13.35,13.35,0,0,1-1.08,6.58C8.84,64.4,8.7,63.17,8.52,61.67ZM6,67.05a25.88,25.88,0,0,0-.69-8.66,26.46,26.46,0,0,1,.59-11.94,29,29,0,0,0,.78,2.9c-1.2,1.59-1,5.56-.19,12.55.19,1.61.35,3,.34,3.59A2.3,2.3,0,0,1,6,67.05ZM18.93,70c-.94,1.67-1.3,7.09.68,10.14a11.35,11.35,0,0,1,1.58,3.95h-4a7.57,7.57,0,0,1,.71-2.59l.17-.37-3.32-9.59,7.4-13.41a15.57,15.57,0,0,0,1.48.94C22.28,62.4,19.49,69,18.93,70ZM63.88,83a3.23,3.23,0,0,0-1.12-1.84c0-3.42.33-5.19.55-5.6a.93.93,0,0,0,.14-.14,43,43,0,0,1,1,6.28A2.74,2.74,0,0,0,63.88,83Zm32-42.74a2.11,2.11,0,0,1-1.37,1.1c-3,.92-9.15-2-11.24-3.16l-.15-.08-.16,0c-.06,0-6.42-1.26-7.61-5.88l-1.94.5a9.05,9.05,0,0,0,4.26,5.41L69.27,56.71a15.72,15.72,0,0,0-1.64,9,31.46,31.46,0,0,1,.29,10.63,10.3,10.3,0,0,0,.84,6.45l.09.25.32.13s.26.19.36.89H65.81c0-.52,0-1,.18-1.08l.35-.25.06-.42c.13-.86-.7-7.93-2.13-10.48.19-1.86.35-4.66.42-8.92a15.47,15.47,0,0,0,3.83-8.06l-2-.35a13.08,13.08,0,0,1-3.51,7.21l-.34.29v.45c-.07,4.86-.4,10.6-.8,11.68-.45.4-1.15,1.56-1.15,7.66v.79l.77.18c.24.06.44.63.54,1.28h-4a1.73,1.73,0,0,1,.46-1.44l.48-.27,0-.55s.24-5.56.35-9.11S57,59.36,56.93,58.95l-1.94.5s.19.75.45,1.84c-21.77,1.57-30.21-3.38-32.28-4.93l.64-1.16-1.75-1L11.95,72.53v9.71l0,.52.41.3a2.1,2.1,0,0,1,.66,1H9.26a2.45,2.45,0,0,1,.13-1l.54-.39L9.79,82c-.28-1.2-1.16-11.68-.7-13.2a15.42,15.42,0,0,0,2.84-10.44,22.12,22.12,0,0,0-1.79-5.66C8.69,49.19,7,45.2,7.45,39.77a8,8,0,0,1,2.8-5.89c3.34-2.7,9-2.58,13.08-2,7.6,1.06,34.61,1.36,35.76,1.37h.34l11.74-8.89.15-.14s2.91-3.26,6.34-4a12.81,12.81,0,0,0-.12,2.75l2-.15c0-.32-.48-7.59,5.6-9.35a5.23,5.23,0,0,1-.84,2.42,9.83,9.83,0,0,0-1.36,6.49l2-.26c0-.23,0-.44-.05-.65a10.11,10.11,0,0,1,4.32,4.88,12.9,12.9,0,0,0,3.32,4.41C95.2,33.45,97.75,36,95.84,40.29Z"/><text x="0" y="115" fill="#000000" font-size="5px" font-weight="bold" font-family="'Helvetica Neue', Helvetica, Arial-Unicode, Arial, Sans-serif">Created by Iconic</text><text x="0" y="120" fill="#000000" font-size="5px" font-weight="bold" font-family="'Helvetica Neue', Helvetica, Arial-Unicode, Arial, Sans-serif">from the Noun Project</text></svg>